G75*
%MOIN*%
%OFA0B0*%
%FSLAX24Y24*%
%IPPOS*%
%LPD*%
%AMOC8*
5,1,8,0,0,1.08239X$1,22.5*
%
%ADD10C,0.0090*%
%ADD11C,0.0240*%
%ADD12C,0.0120*%
%ADD13C,0.0000*%
%ADD14C,0.0070*%
%ADD15C,0.0040*%
%ADD16C,0.0050*%
%ADD17C,0.0320*%
%ADD18C,0.0080*%
%ADD19C,0.0060*%
%ADD20C,0.0100*%
%ADD21R,0.0118X0.0059*%
%ADD22R,0.0118X0.0118*%
%ADD23C,0.0020*%
%ADD24C,0.0039*%
%ADD25C,0.0472*%
%ADD26R,0.0236X0.0591*%
%ADD27R,0.0591X0.0236*%
%ADD28R,0.0150X0.0200*%
%ADD29C,0.0160*%
%ADD30R,0.0200X0.0150*%
D10*
X006202Y006396D02*
X006508Y006396D01*
X006609Y006497D01*
X006609Y006599D01*
X006508Y006701D01*
X006202Y006701D01*
X006202Y006396D02*
X006202Y007006D01*
X006508Y007006D01*
X006609Y006904D01*
X006609Y006803D01*
X006508Y006701D01*
X006847Y007006D02*
X007254Y007006D01*
X007050Y007006D02*
X007050Y006396D01*
X007152Y006006D02*
X006847Y006006D01*
X006847Y005396D01*
X007152Y005396D01*
X007254Y005497D01*
X007254Y005904D01*
X007152Y006006D01*
X007491Y005803D02*
X007491Y005396D01*
X007491Y005701D02*
X007898Y005701D01*
X007898Y005803D02*
X007898Y005396D01*
X007910Y005006D02*
X007706Y005006D01*
X007808Y005006D02*
X007808Y004396D01*
X007706Y004396D02*
X007910Y004396D01*
X008136Y004396D02*
X008136Y005006D01*
X008543Y004396D01*
X008543Y005006D01*
X008780Y005006D02*
X008780Y004396D01*
X008780Y004599D02*
X009187Y005006D01*
X009187Y005396D02*
X009187Y005803D01*
X008984Y006006D01*
X008780Y005803D01*
X008780Y005396D01*
X008780Y005701D02*
X009187Y005701D01*
X009187Y006396D02*
X009187Y007006D01*
X008780Y007006D02*
X009187Y006396D01*
X008780Y006396D02*
X008780Y007006D01*
X008543Y006904D02*
X008441Y007006D01*
X008238Y007006D01*
X008136Y006904D01*
X008136Y006497D01*
X008238Y006396D01*
X008441Y006396D01*
X008543Y006497D01*
X008543Y006904D01*
X008543Y006006D02*
X008136Y006006D01*
X008339Y006006D02*
X008339Y005396D01*
X007898Y005803D02*
X007695Y006006D01*
X007491Y005803D01*
X007062Y005006D02*
X007062Y004396D01*
X007469Y004396D01*
X008882Y004701D02*
X009187Y004396D01*
X011875Y004546D02*
X011875Y005156D01*
X012180Y005156D01*
X012282Y005054D01*
X012282Y004851D01*
X012180Y004749D01*
X011875Y004749D01*
X012520Y004749D02*
X012825Y004749D01*
X012927Y004851D01*
X012927Y005054D01*
X012825Y005156D01*
X012520Y005156D01*
X012520Y004546D01*
X012723Y004749D02*
X012927Y004546D01*
X013164Y004546D02*
X013571Y004546D01*
X013809Y004647D02*
X013910Y004546D01*
X014114Y004546D01*
X014216Y004647D01*
X014216Y004749D01*
X014114Y004851D01*
X013910Y004851D01*
X013809Y004953D01*
X013809Y005054D01*
X013910Y005156D01*
X014114Y005156D01*
X014216Y005054D01*
X014453Y005156D02*
X014453Y004546D01*
X014860Y004546D01*
X014657Y004851D02*
X014453Y004851D01*
X014453Y005156D02*
X014860Y005156D01*
X015098Y005156D02*
X015505Y005156D01*
X015301Y005156D02*
X015301Y004546D01*
X016875Y004546D02*
X016875Y005156D01*
X017079Y004953D01*
X017282Y005156D01*
X017282Y004546D01*
X017520Y004546D02*
X017520Y005156D01*
X017927Y005156D01*
X018164Y005156D02*
X018571Y004546D01*
X018571Y005156D01*
X018809Y005156D02*
X018809Y004647D01*
X018910Y004546D01*
X019114Y004546D01*
X019216Y004647D01*
X019216Y005156D01*
X018164Y005156D02*
X018164Y004546D01*
X017927Y004546D02*
X017520Y004546D01*
X017520Y004851D02*
X017723Y004851D01*
X013571Y005156D02*
X013164Y005156D01*
X013164Y004546D01*
X013164Y004851D02*
X013368Y004851D01*
X008505Y008697D02*
X008403Y008596D01*
X008200Y008596D01*
X008098Y008697D01*
X008200Y008901D02*
X008403Y008901D01*
X008505Y008799D01*
X008505Y008697D01*
X008200Y008901D02*
X008098Y009003D01*
X008098Y009104D01*
X008200Y009206D01*
X008403Y009206D01*
X008505Y009104D01*
X007860Y009206D02*
X007860Y008697D01*
X007758Y008596D01*
X007555Y008596D01*
X007453Y008697D01*
X007453Y009206D01*
X007216Y009206D02*
X006809Y009206D01*
X007012Y009206D02*
X007012Y008596D01*
X006571Y008596D02*
X006571Y009003D01*
X006368Y009206D01*
X006164Y009003D01*
X006164Y008596D01*
X006164Y008901D02*
X006571Y008901D01*
X005927Y009206D02*
X005520Y009206D01*
X005723Y009206D02*
X005723Y008596D01*
X005282Y008697D02*
X005180Y008596D01*
X004977Y008596D01*
X004875Y008697D01*
X004977Y008901D02*
X004875Y009003D01*
X004875Y009104D01*
X004977Y009206D01*
X005180Y009206D01*
X005282Y009104D01*
X005180Y008901D02*
X005282Y008799D01*
X005282Y008697D01*
X005180Y008901D02*
X004977Y008901D01*
X005079Y009646D02*
X005079Y010256D01*
X005282Y010256D02*
X004875Y010256D01*
X005520Y010256D02*
X005520Y009646D01*
X005927Y009646D01*
X006164Y009646D02*
X006571Y009646D01*
X006809Y009646D02*
X006809Y010256D01*
X007216Y010256D01*
X007453Y010256D02*
X007657Y010053D01*
X007860Y010256D01*
X007860Y009646D01*
X007453Y009646D02*
X007453Y010256D01*
X007012Y009951D02*
X006809Y009951D01*
X006809Y009646D02*
X007216Y009646D01*
X006164Y009646D02*
X006164Y010256D01*
X005927Y010256D02*
X005520Y010256D01*
X005520Y009951D02*
X005723Y009951D01*
X028375Y010197D02*
X028477Y010096D01*
X028680Y010096D01*
X028782Y010197D01*
X028782Y010604D01*
X028680Y010706D01*
X028477Y010706D01*
X028375Y010604D01*
X028375Y010197D01*
X029020Y010096D02*
X029020Y010706D01*
X029121Y010401D02*
X029427Y010096D01*
X029020Y010299D02*
X029427Y010706D01*
X029470Y013796D02*
X029470Y014406D01*
X029877Y013796D01*
X029877Y014406D01*
X029232Y014304D02*
X029232Y013897D01*
X029130Y013796D01*
X028927Y013796D01*
X028825Y013897D01*
X028825Y014304D01*
X028927Y014406D01*
X029130Y014406D01*
X029232Y014304D01*
D11*
X029080Y009301D02*
X029530Y009301D01*
X029080Y008951D01*
X029080Y009251D01*
X028455Y008426D02*
X028457Y008448D01*
X028463Y008469D01*
X028472Y008488D01*
X028484Y008506D01*
X028500Y008522D01*
X028517Y008534D01*
X028537Y008543D01*
X028558Y008549D01*
X028580Y008551D01*
X028602Y008549D01*
X028623Y008543D01*
X028642Y008534D01*
X028660Y008522D01*
X028676Y008506D01*
X028688Y008488D01*
X028697Y008469D01*
X028703Y008448D01*
X028705Y008426D01*
X028703Y008404D01*
X028697Y008383D01*
X028688Y008364D01*
X028676Y008346D01*
X028660Y008330D01*
X028643Y008318D01*
X028623Y008309D01*
X028602Y008303D01*
X028580Y008301D01*
X028558Y008303D01*
X028537Y008309D01*
X028517Y008318D01*
X028500Y008330D01*
X028484Y008346D01*
X028472Y008363D01*
X028463Y008383D01*
X028457Y008404D01*
X028455Y008426D01*
X028080Y009301D02*
X028026Y009268D01*
X027974Y009232D01*
X027924Y009193D01*
X027877Y009151D01*
X027833Y009106D01*
X027791Y009059D01*
X027753Y009009D01*
X027718Y008957D01*
X027686Y008902D01*
X027657Y008846D01*
X027632Y008788D01*
X027610Y008729D01*
X027593Y008668D01*
X027579Y008607D01*
X027569Y008545D01*
X027562Y008482D01*
X027560Y008419D01*
X027562Y008356D01*
X027567Y008293D01*
X027576Y008230D01*
X027589Y008169D01*
X027606Y008108D01*
X027627Y008048D01*
X027651Y007990D01*
X027679Y007934D01*
X027710Y007879D01*
X027745Y007826D01*
X027783Y007776D01*
X027824Y007727D01*
X027868Y007682D01*
X027914Y007639D01*
X027963Y007600D01*
X028014Y007563D01*
X028068Y007530D01*
X028124Y007500D01*
X028181Y007473D01*
X028240Y007450D01*
X028300Y007431D01*
X028361Y007416D01*
X028423Y007404D01*
X028485Y007396D01*
X028548Y007392D01*
X028612Y007392D01*
X028675Y007396D01*
X028737Y007404D01*
X028799Y007416D01*
X028860Y007431D01*
X028920Y007450D01*
X028979Y007473D01*
X029036Y007500D01*
X029092Y007530D01*
X029146Y007563D01*
X029197Y007600D01*
X029246Y007639D01*
X029292Y007682D01*
X029336Y007727D01*
X029377Y007776D01*
X029415Y007826D01*
X029450Y007879D01*
X029481Y007934D01*
X029509Y007990D01*
X029533Y008048D01*
X029554Y008108D01*
X029571Y008169D01*
X029584Y008230D01*
X029593Y008293D01*
X029598Y008356D01*
X029600Y008419D01*
X029598Y008482D01*
X029591Y008545D01*
X029581Y008607D01*
X029567Y008668D01*
X029550Y008729D01*
X029528Y008788D01*
X029503Y008846D01*
X029474Y008902D01*
X029442Y008957D01*
X029407Y009009D01*
X029369Y009059D01*
X029327Y009106D01*
X029283Y009151D01*
X029236Y009193D01*
X029186Y009232D01*
X029134Y009268D01*
X029080Y009301D01*
X028080Y009301D02*
X028080Y008951D01*
X027630Y009301D01*
X028080Y009301D01*
X039565Y014333D02*
X039567Y014354D01*
X039573Y014374D01*
X039582Y014392D01*
X039594Y014409D01*
X039610Y014423D01*
X039628Y014434D01*
X039647Y014442D01*
X039668Y014446D01*
X039688Y014446D01*
X039709Y014442D01*
X039728Y014434D01*
X039746Y014423D01*
X039762Y014409D01*
X039774Y014392D01*
X039783Y014374D01*
X039789Y014354D01*
X039791Y014333D01*
X039789Y014312D01*
X039783Y014292D01*
X039774Y014274D01*
X039762Y014257D01*
X039746Y014243D01*
X039728Y014232D01*
X039709Y014224D01*
X039688Y014220D01*
X039668Y014220D01*
X039647Y014224D01*
X039628Y014232D01*
X039610Y014243D01*
X039594Y014257D01*
X039582Y014274D01*
X039573Y014292D01*
X039567Y014312D01*
X039565Y014333D01*
X019484Y030099D02*
X019486Y030120D01*
X019492Y030140D01*
X019501Y030158D01*
X019513Y030175D01*
X019529Y030189D01*
X019547Y030200D01*
X019566Y030208D01*
X019587Y030212D01*
X019607Y030212D01*
X019628Y030208D01*
X019647Y030200D01*
X019665Y030189D01*
X019681Y030175D01*
X019693Y030158D01*
X019702Y030140D01*
X019708Y030120D01*
X019710Y030099D01*
X019708Y030078D01*
X019702Y030058D01*
X019693Y030040D01*
X019681Y030023D01*
X019665Y030009D01*
X019647Y029998D01*
X019628Y029990D01*
X019607Y029986D01*
X019587Y029986D01*
X019566Y029990D01*
X019547Y029998D01*
X019529Y030009D01*
X019513Y030023D01*
X019501Y030040D01*
X019492Y030058D01*
X019486Y030078D01*
X019484Y030099D01*
X018684Y043099D02*
X018686Y043120D01*
X018692Y043140D01*
X018701Y043158D01*
X018713Y043175D01*
X018729Y043189D01*
X018747Y043200D01*
X018766Y043208D01*
X018787Y043212D01*
X018807Y043212D01*
X018828Y043208D01*
X018847Y043200D01*
X018865Y043189D01*
X018881Y043175D01*
X018893Y043158D01*
X018902Y043140D01*
X018908Y043120D01*
X018910Y043099D01*
X018908Y043078D01*
X018902Y043058D01*
X018893Y043040D01*
X018881Y043023D01*
X018865Y043009D01*
X018847Y042998D01*
X018828Y042990D01*
X018807Y042986D01*
X018787Y042986D01*
X018766Y042990D01*
X018747Y042998D01*
X018729Y043009D01*
X018713Y043023D01*
X018701Y043040D01*
X018692Y043058D01*
X018686Y043078D01*
X018684Y043099D01*
D12*
X018080Y037721D02*
X017830Y037721D01*
X017580Y037721D01*
X017580Y037471D02*
X017830Y037471D01*
X018080Y037471D01*
X019210Y034001D02*
X019210Y033751D01*
X019210Y033501D01*
X019460Y033501D02*
X019460Y033751D01*
X019460Y034001D01*
X015210Y032251D02*
X015210Y032001D01*
X015210Y031751D01*
X014960Y031751D02*
X014960Y032001D01*
X014960Y032251D01*
X011580Y033871D02*
X011330Y033871D01*
X011080Y033871D01*
X011080Y034121D02*
X011330Y034121D01*
X011580Y034121D01*
X007700Y036751D02*
X007700Y037001D01*
X007700Y037251D01*
X007450Y037251D02*
X007450Y037001D01*
X007450Y036751D01*
X007450Y038251D02*
X007450Y038501D01*
X007450Y038751D01*
X007700Y038751D02*
X007700Y038501D01*
X007700Y038251D01*
X026280Y041181D02*
X026530Y041181D01*
X026780Y041181D01*
X026780Y041431D02*
X026530Y041431D01*
X026280Y041431D01*
X028580Y009801D02*
X028580Y008301D01*
D13*
X028580Y003851D02*
X003080Y003851D01*
X002489Y005551D02*
X002491Y005599D01*
X002497Y005647D01*
X002507Y005694D01*
X002520Y005740D01*
X002538Y005785D01*
X002558Y005829D01*
X002583Y005871D01*
X002611Y005910D01*
X002641Y005947D01*
X002675Y005981D01*
X002712Y006013D01*
X002750Y006042D01*
X002791Y006067D01*
X002834Y006089D01*
X002879Y006107D01*
X002925Y006121D01*
X002972Y006132D01*
X003020Y006139D01*
X003068Y006142D01*
X003116Y006141D01*
X003164Y006136D01*
X003212Y006127D01*
X003258Y006115D01*
X003303Y006098D01*
X003347Y006078D01*
X003389Y006055D01*
X003429Y006028D01*
X003467Y005998D01*
X003502Y005965D01*
X003534Y005929D01*
X003564Y005891D01*
X003590Y005850D01*
X003612Y005807D01*
X003632Y005763D01*
X003647Y005718D01*
X003659Y005671D01*
X003667Y005623D01*
X003671Y005575D01*
X003671Y005527D01*
X003667Y005479D01*
X003659Y005431D01*
X003647Y005384D01*
X003632Y005339D01*
X003612Y005295D01*
X003590Y005252D01*
X003564Y005211D01*
X003534Y005173D01*
X003502Y005137D01*
X003467Y005104D01*
X003429Y005074D01*
X003389Y005047D01*
X003347Y005024D01*
X003303Y005004D01*
X003258Y004987D01*
X003212Y004975D01*
X003164Y004966D01*
X003116Y004961D01*
X003068Y004960D01*
X003020Y004963D01*
X002972Y004970D01*
X002925Y004981D01*
X002879Y004995D01*
X002834Y005013D01*
X002791Y005035D01*
X002750Y005060D01*
X002712Y005089D01*
X002675Y005121D01*
X002641Y005155D01*
X002611Y005192D01*
X002583Y005231D01*
X002558Y005273D01*
X002538Y005317D01*
X002520Y005362D01*
X002507Y005408D01*
X002497Y005455D01*
X002491Y005503D01*
X002489Y005551D01*
X001380Y005551D02*
X001382Y005470D01*
X001388Y005389D01*
X001397Y005309D01*
X001411Y005229D01*
X001428Y005150D01*
X001449Y005072D01*
X001473Y004995D01*
X001502Y004919D01*
X001534Y004845D01*
X001569Y004772D01*
X001608Y004701D01*
X001650Y004632D01*
X001695Y004565D01*
X001744Y004500D01*
X001795Y004438D01*
X001850Y004378D01*
X001907Y004321D01*
X001967Y004266D01*
X002029Y004215D01*
X002094Y004166D01*
X002161Y004121D01*
X002230Y004079D01*
X002301Y004040D01*
X002374Y004005D01*
X002448Y003973D01*
X002524Y003944D01*
X002601Y003920D01*
X002679Y003899D01*
X002758Y003882D01*
X002838Y003868D01*
X002918Y003859D01*
X002999Y003853D01*
X003080Y003851D01*
X001380Y005551D02*
X001380Y020051D01*
X002489Y020051D02*
X002491Y020099D01*
X002497Y020147D01*
X002507Y020194D01*
X002520Y020240D01*
X002538Y020285D01*
X002558Y020329D01*
X002583Y020371D01*
X002611Y020410D01*
X002641Y020447D01*
X002675Y020481D01*
X002712Y020513D01*
X002750Y020542D01*
X002791Y020567D01*
X002834Y020589D01*
X002879Y020607D01*
X002925Y020621D01*
X002972Y020632D01*
X003020Y020639D01*
X003068Y020642D01*
X003116Y020641D01*
X003164Y020636D01*
X003212Y020627D01*
X003258Y020615D01*
X003303Y020598D01*
X003347Y020578D01*
X003389Y020555D01*
X003429Y020528D01*
X003467Y020498D01*
X003502Y020465D01*
X003534Y020429D01*
X003564Y020391D01*
X003590Y020350D01*
X003612Y020307D01*
X003632Y020263D01*
X003647Y020218D01*
X003659Y020171D01*
X003667Y020123D01*
X003671Y020075D01*
X003671Y020027D01*
X003667Y019979D01*
X003659Y019931D01*
X003647Y019884D01*
X003632Y019839D01*
X003612Y019795D01*
X003590Y019752D01*
X003564Y019711D01*
X003534Y019673D01*
X003502Y019637D01*
X003467Y019604D01*
X003429Y019574D01*
X003389Y019547D01*
X003347Y019524D01*
X003303Y019504D01*
X003258Y019487D01*
X003212Y019475D01*
X003164Y019466D01*
X003116Y019461D01*
X003068Y019460D01*
X003020Y019463D01*
X002972Y019470D01*
X002925Y019481D01*
X002879Y019495D01*
X002834Y019513D01*
X002791Y019535D01*
X002750Y019560D01*
X002712Y019589D01*
X002675Y019621D01*
X002641Y019655D01*
X002611Y019692D01*
X002583Y019731D01*
X002558Y019773D01*
X002538Y019817D01*
X002520Y019862D01*
X002507Y019908D01*
X002497Y019955D01*
X002491Y020003D01*
X002489Y020051D01*
X001380Y020051D02*
X001382Y020132D01*
X001388Y020213D01*
X001397Y020293D01*
X001411Y020373D01*
X001428Y020452D01*
X001449Y020530D01*
X001473Y020607D01*
X001502Y020683D01*
X001534Y020757D01*
X001569Y020830D01*
X001608Y020901D01*
X001650Y020970D01*
X001695Y021037D01*
X001744Y021102D01*
X001795Y021164D01*
X001850Y021224D01*
X001907Y021281D01*
X001967Y021336D01*
X002029Y021387D01*
X002094Y021436D01*
X002161Y021481D01*
X002230Y021523D01*
X002301Y021562D01*
X002374Y021597D01*
X002448Y021629D01*
X002524Y021658D01*
X002601Y021682D01*
X002679Y021703D01*
X002758Y021720D01*
X002838Y021734D01*
X002918Y021743D01*
X002999Y021749D01*
X003080Y021751D01*
X004730Y021751D01*
X004747Y021753D01*
X004764Y021757D01*
X004780Y021764D01*
X004794Y021774D01*
X004807Y021787D01*
X004817Y021801D01*
X004824Y021817D01*
X004828Y021834D01*
X004830Y021851D01*
X004830Y023401D01*
X004828Y023418D01*
X004824Y023435D01*
X004817Y023451D01*
X004807Y023465D01*
X004794Y023478D01*
X004780Y023488D01*
X004764Y023495D01*
X004747Y023499D01*
X004730Y023501D01*
X001780Y023501D01*
X001741Y023503D01*
X001702Y023509D01*
X001664Y023518D01*
X001627Y023531D01*
X001591Y023548D01*
X001558Y023568D01*
X001526Y023592D01*
X001497Y023618D01*
X001471Y023647D01*
X001447Y023679D01*
X001427Y023712D01*
X001410Y023748D01*
X001397Y023785D01*
X001388Y023823D01*
X001382Y023862D01*
X001380Y023901D01*
X001380Y029651D01*
X001382Y029690D01*
X001388Y029729D01*
X001397Y029767D01*
X001410Y029804D01*
X001427Y029840D01*
X001447Y029873D01*
X001471Y029905D01*
X001497Y029934D01*
X001526Y029960D01*
X001558Y029984D01*
X001591Y030004D01*
X001627Y030021D01*
X001664Y030034D01*
X001702Y030043D01*
X001741Y030049D01*
X001780Y030051D01*
X004980Y030051D01*
X005003Y030053D01*
X005026Y030058D01*
X005048Y030067D01*
X005068Y030080D01*
X005086Y030095D01*
X005101Y030113D01*
X005114Y030133D01*
X005123Y030155D01*
X005128Y030178D01*
X005130Y030201D01*
X005130Y031351D01*
X005128Y031374D01*
X005123Y031397D01*
X005114Y031419D01*
X005101Y031439D01*
X005086Y031457D01*
X005068Y031472D01*
X005048Y031485D01*
X005026Y031494D01*
X005003Y031499D01*
X004980Y031501D01*
X002280Y031501D01*
X002221Y031503D01*
X002163Y031509D01*
X002104Y031518D01*
X002047Y031532D01*
X001991Y031549D01*
X001936Y031570D01*
X001882Y031594D01*
X001830Y031622D01*
X001780Y031653D01*
X001732Y031687D01*
X001687Y031724D01*
X001644Y031765D01*
X001603Y031808D01*
X001566Y031853D01*
X001532Y031901D01*
X001501Y031951D01*
X001473Y032003D01*
X001449Y032057D01*
X001428Y032112D01*
X001411Y032168D01*
X001397Y032225D01*
X001388Y032284D01*
X001382Y032342D01*
X001380Y032401D01*
X001380Y042051D01*
X001381Y042109D01*
X001384Y042167D01*
X001392Y042225D01*
X001403Y042282D01*
X001418Y042338D01*
X001436Y042393D01*
X001458Y042447D01*
X001483Y042500D01*
X001511Y042550D01*
X001542Y042599D01*
X001577Y042646D01*
X001614Y042691D01*
X001654Y042733D01*
X001696Y042773D01*
X001741Y042809D01*
X001788Y042843D01*
X001838Y042874D01*
X001889Y042902D01*
X001941Y042927D01*
X001995Y042948D01*
X002051Y042965D01*
X002107Y042980D01*
X002164Y042990D01*
X002222Y042997D01*
X002280Y043001D01*
X027630Y043001D01*
X027689Y042999D01*
X027747Y042993D01*
X027806Y042984D01*
X027863Y042970D01*
X027919Y042953D01*
X027974Y042932D01*
X028028Y042908D01*
X028080Y042880D01*
X028130Y042849D01*
X028178Y042815D01*
X028223Y042778D01*
X028266Y042737D01*
X028307Y042694D01*
X028344Y042649D01*
X028378Y042601D01*
X028409Y042551D01*
X028437Y042499D01*
X028461Y042445D01*
X028482Y042390D01*
X028499Y042334D01*
X028513Y042277D01*
X028522Y042218D01*
X028528Y042160D01*
X028530Y042101D01*
X028530Y032251D01*
X028523Y032195D01*
X028512Y032139D01*
X028497Y032085D01*
X028479Y032031D01*
X028457Y031979D01*
X028431Y031929D01*
X028403Y031880D01*
X028371Y031834D01*
X028335Y031789D01*
X028297Y031747D01*
X028256Y031708D01*
X028213Y031672D01*
X028167Y031639D01*
X028119Y031609D01*
X028069Y031582D01*
X028018Y031559D01*
X027965Y031540D01*
X027911Y031524D01*
X027855Y031512D01*
X027799Y031503D01*
X027743Y031499D01*
X027686Y031498D01*
X027630Y031501D01*
X025380Y031501D01*
X025346Y031499D01*
X025313Y031493D01*
X025281Y031484D01*
X025250Y031471D01*
X025220Y031455D01*
X025193Y031436D01*
X025168Y031413D01*
X025145Y031388D01*
X025126Y031361D01*
X025110Y031331D01*
X025097Y031300D01*
X025088Y031268D01*
X025082Y031235D01*
X025080Y031201D01*
X025080Y030301D01*
X025082Y030271D01*
X025087Y030241D01*
X025096Y030212D01*
X025109Y030185D01*
X025124Y030159D01*
X025143Y030135D01*
X025164Y030114D01*
X025188Y030095D01*
X025214Y030080D01*
X025241Y030067D01*
X025270Y030058D01*
X025300Y030053D01*
X025330Y030051D01*
X029580Y030051D01*
X029622Y030054D01*
X029664Y030053D01*
X029705Y030048D01*
X029746Y030039D01*
X029786Y030026D01*
X029824Y030010D01*
X029861Y029990D01*
X029896Y029967D01*
X029929Y029941D01*
X029959Y029912D01*
X029986Y029881D01*
X030011Y029846D01*
X030032Y029810D01*
X030049Y029772D01*
X030063Y029733D01*
X030074Y029692D01*
X030080Y029651D01*
X030080Y023901D01*
X030078Y023862D01*
X030072Y023823D01*
X030063Y023785D01*
X030050Y023748D01*
X030033Y023712D01*
X030013Y023679D01*
X029989Y023647D01*
X029963Y023618D01*
X029934Y023592D01*
X029902Y023568D01*
X029869Y023548D01*
X029833Y023531D01*
X029796Y023518D01*
X029758Y023509D01*
X029719Y023503D01*
X029680Y023501D01*
X027530Y023501D01*
X027507Y023499D01*
X027484Y023494D01*
X027462Y023485D01*
X027442Y023472D01*
X027424Y023457D01*
X027409Y023439D01*
X027396Y023419D01*
X027387Y023397D01*
X027382Y023374D01*
X027380Y023351D01*
X027380Y021901D01*
X027382Y021878D01*
X027387Y021855D01*
X027396Y021833D01*
X027409Y021813D01*
X027424Y021795D01*
X027442Y021780D01*
X027462Y021767D01*
X027484Y021758D01*
X027507Y021753D01*
X027530Y021751D01*
X028580Y021751D01*
X027989Y020051D02*
X027991Y020099D01*
X027997Y020147D01*
X028007Y020194D01*
X028020Y020240D01*
X028038Y020285D01*
X028058Y020329D01*
X028083Y020371D01*
X028111Y020410D01*
X028141Y020447D01*
X028175Y020481D01*
X028212Y020513D01*
X028250Y020542D01*
X028291Y020567D01*
X028334Y020589D01*
X028379Y020607D01*
X028425Y020621D01*
X028472Y020632D01*
X028520Y020639D01*
X028568Y020642D01*
X028616Y020641D01*
X028664Y020636D01*
X028712Y020627D01*
X028758Y020615D01*
X028803Y020598D01*
X028847Y020578D01*
X028889Y020555D01*
X028929Y020528D01*
X028967Y020498D01*
X029002Y020465D01*
X029034Y020429D01*
X029064Y020391D01*
X029090Y020350D01*
X029112Y020307D01*
X029132Y020263D01*
X029147Y020218D01*
X029159Y020171D01*
X029167Y020123D01*
X029171Y020075D01*
X029171Y020027D01*
X029167Y019979D01*
X029159Y019931D01*
X029147Y019884D01*
X029132Y019839D01*
X029112Y019795D01*
X029090Y019752D01*
X029064Y019711D01*
X029034Y019673D01*
X029002Y019637D01*
X028967Y019604D01*
X028929Y019574D01*
X028889Y019547D01*
X028847Y019524D01*
X028803Y019504D01*
X028758Y019487D01*
X028712Y019475D01*
X028664Y019466D01*
X028616Y019461D01*
X028568Y019460D01*
X028520Y019463D01*
X028472Y019470D01*
X028425Y019481D01*
X028379Y019495D01*
X028334Y019513D01*
X028291Y019535D01*
X028250Y019560D01*
X028212Y019589D01*
X028175Y019621D01*
X028141Y019655D01*
X028111Y019692D01*
X028083Y019731D01*
X028058Y019773D01*
X028038Y019817D01*
X028020Y019862D01*
X028007Y019908D01*
X027997Y019955D01*
X027991Y020003D01*
X027989Y020051D01*
X028580Y021751D02*
X028661Y021749D01*
X028742Y021743D01*
X028822Y021734D01*
X028902Y021720D01*
X028981Y021703D01*
X029059Y021682D01*
X029136Y021658D01*
X029212Y021629D01*
X029286Y021597D01*
X029359Y021562D01*
X029430Y021523D01*
X029499Y021481D01*
X029566Y021436D01*
X029631Y021387D01*
X029693Y021336D01*
X029753Y021281D01*
X029810Y021224D01*
X029865Y021164D01*
X029916Y021102D01*
X029965Y021037D01*
X030010Y020970D01*
X030052Y020901D01*
X030091Y020830D01*
X030126Y020757D01*
X030158Y020683D01*
X030187Y020607D01*
X030211Y020530D01*
X030232Y020452D01*
X030249Y020373D01*
X030263Y020293D01*
X030272Y020213D01*
X030278Y020132D01*
X030280Y020051D01*
X030280Y019301D01*
X030282Y019271D01*
X030287Y019241D01*
X030296Y019212D01*
X030309Y019185D01*
X030324Y019159D01*
X030343Y019135D01*
X030364Y019114D01*
X030388Y019095D01*
X030414Y019080D01*
X030441Y019067D01*
X030470Y019058D01*
X030500Y019053D01*
X030530Y019051D01*
X032380Y019051D01*
X032406Y019053D01*
X032432Y019058D01*
X032457Y019066D01*
X032480Y019078D01*
X032502Y019092D01*
X032521Y019110D01*
X032539Y019129D01*
X032553Y019151D01*
X032565Y019174D01*
X032573Y019199D01*
X032578Y019225D01*
X032580Y019251D01*
X032580Y031651D01*
X032582Y031710D01*
X032588Y031768D01*
X032597Y031827D01*
X032611Y031884D01*
X032628Y031940D01*
X032649Y031995D01*
X032673Y032049D01*
X032701Y032101D01*
X032732Y032151D01*
X032766Y032199D01*
X032803Y032244D01*
X032844Y032287D01*
X032887Y032328D01*
X032932Y032365D01*
X032980Y032399D01*
X033030Y032430D01*
X033082Y032458D01*
X033136Y032482D01*
X033191Y032503D01*
X033247Y032520D01*
X033304Y032534D01*
X033363Y032543D01*
X033421Y032549D01*
X033480Y032551D01*
X039630Y032551D01*
X039689Y032549D01*
X039747Y032543D01*
X039806Y032534D01*
X039863Y032520D01*
X039919Y032503D01*
X039974Y032482D01*
X040028Y032458D01*
X040080Y032430D01*
X040130Y032399D01*
X040178Y032365D01*
X040223Y032328D01*
X040266Y032287D01*
X040307Y032244D01*
X040344Y032199D01*
X040378Y032151D01*
X040409Y032101D01*
X040437Y032049D01*
X040461Y031995D01*
X040482Y031940D01*
X040499Y031884D01*
X040513Y031827D01*
X040522Y031768D01*
X040528Y031710D01*
X040530Y031651D01*
X040530Y004751D01*
X040528Y004692D01*
X040522Y004634D01*
X040513Y004575D01*
X040499Y004518D01*
X040482Y004462D01*
X040461Y004407D01*
X040437Y004353D01*
X040409Y004301D01*
X040378Y004251D01*
X040344Y004203D01*
X040307Y004158D01*
X040266Y004115D01*
X040223Y004074D01*
X040178Y004037D01*
X040130Y004003D01*
X040080Y003972D01*
X040028Y003944D01*
X039974Y003920D01*
X039919Y003899D01*
X039863Y003882D01*
X039806Y003868D01*
X039747Y003859D01*
X039689Y003853D01*
X039630Y003851D01*
X033480Y003851D01*
X033421Y003853D01*
X033363Y003859D01*
X033304Y003868D01*
X033247Y003882D01*
X033191Y003899D01*
X033136Y003920D01*
X033082Y003944D01*
X033030Y003972D01*
X032980Y004003D01*
X032932Y004037D01*
X032887Y004074D01*
X032844Y004115D01*
X032803Y004158D01*
X032766Y004203D01*
X032732Y004251D01*
X032701Y004301D01*
X032673Y004353D01*
X032649Y004407D01*
X032628Y004462D01*
X032611Y004518D01*
X032597Y004575D01*
X032588Y004634D01*
X032582Y004692D01*
X032580Y004751D01*
X032580Y007151D01*
X032578Y007174D01*
X032573Y007197D01*
X032564Y007219D01*
X032551Y007239D01*
X032536Y007257D01*
X032518Y007272D01*
X032498Y007285D01*
X032476Y007294D01*
X032453Y007299D01*
X032430Y007301D01*
X030430Y007301D01*
X030407Y007299D01*
X030384Y007294D01*
X030362Y007285D01*
X030342Y007272D01*
X030324Y007257D01*
X030309Y007239D01*
X030296Y007219D01*
X030287Y007197D01*
X030282Y007174D01*
X030280Y007151D01*
X030280Y005551D01*
X027989Y005551D02*
X027991Y005599D01*
X027997Y005647D01*
X028007Y005694D01*
X028020Y005740D01*
X028038Y005785D01*
X028058Y005829D01*
X028083Y005871D01*
X028111Y005910D01*
X028141Y005947D01*
X028175Y005981D01*
X028212Y006013D01*
X028250Y006042D01*
X028291Y006067D01*
X028334Y006089D01*
X028379Y006107D01*
X028425Y006121D01*
X028472Y006132D01*
X028520Y006139D01*
X028568Y006142D01*
X028616Y006141D01*
X028664Y006136D01*
X028712Y006127D01*
X028758Y006115D01*
X028803Y006098D01*
X028847Y006078D01*
X028889Y006055D01*
X028929Y006028D01*
X028967Y005998D01*
X029002Y005965D01*
X029034Y005929D01*
X029064Y005891D01*
X029090Y005850D01*
X029112Y005807D01*
X029132Y005763D01*
X029147Y005718D01*
X029159Y005671D01*
X029167Y005623D01*
X029171Y005575D01*
X029171Y005527D01*
X029167Y005479D01*
X029159Y005431D01*
X029147Y005384D01*
X029132Y005339D01*
X029112Y005295D01*
X029090Y005252D01*
X029064Y005211D01*
X029034Y005173D01*
X029002Y005137D01*
X028967Y005104D01*
X028929Y005074D01*
X028889Y005047D01*
X028847Y005024D01*
X028803Y005004D01*
X028758Y004987D01*
X028712Y004975D01*
X028664Y004966D01*
X028616Y004961D01*
X028568Y004960D01*
X028520Y004963D01*
X028472Y004970D01*
X028425Y004981D01*
X028379Y004995D01*
X028334Y005013D01*
X028291Y005035D01*
X028250Y005060D01*
X028212Y005089D01*
X028175Y005121D01*
X028141Y005155D01*
X028111Y005192D01*
X028083Y005231D01*
X028058Y005273D01*
X028038Y005317D01*
X028020Y005362D01*
X028007Y005408D01*
X027997Y005455D01*
X027991Y005503D01*
X027989Y005551D01*
X028580Y003851D02*
X028661Y003853D01*
X028742Y003859D01*
X028822Y003868D01*
X028902Y003882D01*
X028981Y003899D01*
X029059Y003920D01*
X029136Y003944D01*
X029212Y003973D01*
X029286Y004005D01*
X029359Y004040D01*
X029430Y004079D01*
X029499Y004121D01*
X029566Y004166D01*
X029631Y004215D01*
X029693Y004266D01*
X029753Y004321D01*
X029810Y004378D01*
X029865Y004438D01*
X029916Y004500D01*
X029965Y004565D01*
X030010Y004632D01*
X030052Y004701D01*
X030091Y004772D01*
X030126Y004845D01*
X030158Y004919D01*
X030187Y004995D01*
X030211Y005072D01*
X030232Y005150D01*
X030249Y005229D01*
X030263Y005309D01*
X030272Y005389D01*
X030278Y005470D01*
X030280Y005551D01*
X034380Y003851D02*
X038780Y003851D01*
X028347Y012303D02*
X028349Y012328D01*
X028355Y012353D01*
X028364Y012377D01*
X028377Y012399D01*
X028394Y012419D01*
X028413Y012436D01*
X028434Y012450D01*
X028458Y012460D01*
X028482Y012467D01*
X028508Y012470D01*
X028533Y012469D01*
X028558Y012464D01*
X028582Y012455D01*
X028605Y012443D01*
X028625Y012428D01*
X028643Y012409D01*
X028658Y012388D01*
X028669Y012365D01*
X028677Y012341D01*
X028681Y012316D01*
X028681Y012290D01*
X028677Y012265D01*
X028669Y012241D01*
X028658Y012218D01*
X028643Y012197D01*
X028625Y012178D01*
X028605Y012163D01*
X028582Y012151D01*
X028558Y012142D01*
X028533Y012137D01*
X028508Y012136D01*
X028482Y012139D01*
X028458Y012146D01*
X028434Y012156D01*
X028413Y012170D01*
X028394Y012187D01*
X028377Y012207D01*
X028364Y012229D01*
X028355Y012253D01*
X028349Y012278D01*
X028347Y012303D01*
X028347Y013799D02*
X028349Y013824D01*
X028355Y013849D01*
X028364Y013873D01*
X028377Y013895D01*
X028394Y013915D01*
X028413Y013932D01*
X028434Y013946D01*
X028458Y013956D01*
X028482Y013963D01*
X028508Y013966D01*
X028533Y013965D01*
X028558Y013960D01*
X028582Y013951D01*
X028605Y013939D01*
X028625Y013924D01*
X028643Y013905D01*
X028658Y013884D01*
X028669Y013861D01*
X028677Y013837D01*
X028681Y013812D01*
X028681Y013786D01*
X028677Y013761D01*
X028669Y013737D01*
X028658Y013714D01*
X028643Y013693D01*
X028625Y013674D01*
X028605Y013659D01*
X028582Y013647D01*
X028558Y013638D01*
X028533Y013633D01*
X028508Y013632D01*
X028482Y013635D01*
X028458Y013642D01*
X028434Y013652D01*
X028413Y013666D01*
X028394Y013683D01*
X028377Y013703D01*
X028364Y013725D01*
X028355Y013749D01*
X028349Y013774D01*
X028347Y013799D01*
X030080Y024601D02*
X030080Y029001D01*
X028530Y035051D02*
X028530Y039451D01*
X036089Y030651D02*
X036091Y030699D01*
X036097Y030747D01*
X036107Y030794D01*
X036120Y030840D01*
X036138Y030885D01*
X036158Y030929D01*
X036183Y030971D01*
X036211Y031010D01*
X036241Y031047D01*
X036275Y031081D01*
X036312Y031113D01*
X036350Y031142D01*
X036391Y031167D01*
X036434Y031189D01*
X036479Y031207D01*
X036525Y031221D01*
X036572Y031232D01*
X036620Y031239D01*
X036668Y031242D01*
X036716Y031241D01*
X036764Y031236D01*
X036812Y031227D01*
X036858Y031215D01*
X036903Y031198D01*
X036947Y031178D01*
X036989Y031155D01*
X037029Y031128D01*
X037067Y031098D01*
X037102Y031065D01*
X037134Y031029D01*
X037164Y030991D01*
X037190Y030950D01*
X037212Y030907D01*
X037232Y030863D01*
X037247Y030818D01*
X037259Y030771D01*
X037267Y030723D01*
X037271Y030675D01*
X037271Y030627D01*
X037267Y030579D01*
X037259Y030531D01*
X037247Y030484D01*
X037232Y030439D01*
X037212Y030395D01*
X037190Y030352D01*
X037164Y030311D01*
X037134Y030273D01*
X037102Y030237D01*
X037067Y030204D01*
X037029Y030174D01*
X036989Y030147D01*
X036947Y030124D01*
X036903Y030104D01*
X036858Y030087D01*
X036812Y030075D01*
X036764Y030066D01*
X036716Y030061D01*
X036668Y030060D01*
X036620Y030063D01*
X036572Y030070D01*
X036525Y030081D01*
X036479Y030095D01*
X036434Y030113D01*
X036391Y030135D01*
X036350Y030160D01*
X036312Y030189D01*
X036275Y030221D01*
X036241Y030255D01*
X036211Y030292D01*
X036183Y030331D01*
X036158Y030373D01*
X036138Y030417D01*
X036120Y030462D01*
X036107Y030508D01*
X036097Y030555D01*
X036091Y030603D01*
X036089Y030651D01*
X009804Y018551D02*
X009806Y018584D01*
X009812Y018616D01*
X009821Y018647D01*
X009834Y018677D01*
X009851Y018705D01*
X009871Y018731D01*
X009894Y018755D01*
X009919Y018775D01*
X009947Y018793D01*
X009976Y018807D01*
X010007Y018817D01*
X010039Y018824D01*
X010072Y018827D01*
X010105Y018826D01*
X010137Y018821D01*
X010168Y018812D01*
X010199Y018800D01*
X010227Y018784D01*
X010254Y018765D01*
X010278Y018743D01*
X010299Y018718D01*
X010318Y018691D01*
X010333Y018662D01*
X010344Y018632D01*
X010352Y018600D01*
X010356Y018567D01*
X010356Y018535D01*
X010352Y018502D01*
X010344Y018470D01*
X010333Y018440D01*
X010318Y018411D01*
X010299Y018384D01*
X010278Y018359D01*
X010254Y018337D01*
X010227Y018318D01*
X010199Y018302D01*
X010168Y018290D01*
X010137Y018281D01*
X010105Y018276D01*
X010072Y018275D01*
X010039Y018278D01*
X010007Y018285D01*
X009976Y018295D01*
X009947Y018309D01*
X009919Y018327D01*
X009894Y018347D01*
X009871Y018371D01*
X009851Y018397D01*
X009834Y018425D01*
X009821Y018455D01*
X009812Y018486D01*
X009806Y018518D01*
X009804Y018551D01*
X005804Y018551D02*
X005806Y018584D01*
X005812Y018616D01*
X005821Y018647D01*
X005834Y018677D01*
X005851Y018705D01*
X005871Y018731D01*
X005894Y018755D01*
X005919Y018775D01*
X005947Y018793D01*
X005976Y018807D01*
X006007Y018817D01*
X006039Y018824D01*
X006072Y018827D01*
X006105Y018826D01*
X006137Y018821D01*
X006168Y018812D01*
X006199Y018800D01*
X006227Y018784D01*
X006254Y018765D01*
X006278Y018743D01*
X006299Y018718D01*
X006318Y018691D01*
X006333Y018662D01*
X006344Y018632D01*
X006352Y018600D01*
X006356Y018567D01*
X006356Y018535D01*
X006352Y018502D01*
X006344Y018470D01*
X006333Y018440D01*
X006318Y018411D01*
X006299Y018384D01*
X006278Y018359D01*
X006254Y018337D01*
X006227Y018318D01*
X006199Y018302D01*
X006168Y018290D01*
X006137Y018281D01*
X006105Y018276D01*
X006072Y018275D01*
X006039Y018278D01*
X006007Y018285D01*
X005976Y018295D01*
X005947Y018309D01*
X005919Y018327D01*
X005894Y018347D01*
X005871Y018371D01*
X005851Y018397D01*
X005834Y018425D01*
X005821Y018455D01*
X005812Y018486D01*
X005806Y018518D01*
X005804Y018551D01*
X002589Y026801D02*
X002591Y026849D01*
X002597Y026897D01*
X002607Y026944D01*
X002620Y026990D01*
X002638Y027035D01*
X002658Y027079D01*
X002683Y027121D01*
X002711Y027160D01*
X002741Y027197D01*
X002775Y027231D01*
X002812Y027263D01*
X002850Y027292D01*
X002891Y027317D01*
X002934Y027339D01*
X002979Y027357D01*
X003025Y027371D01*
X003072Y027382D01*
X003120Y027389D01*
X003168Y027392D01*
X003216Y027391D01*
X003264Y027386D01*
X003312Y027377D01*
X003358Y027365D01*
X003403Y027348D01*
X003447Y027328D01*
X003489Y027305D01*
X003529Y027278D01*
X003567Y027248D01*
X003602Y027215D01*
X003634Y027179D01*
X003664Y027141D01*
X003690Y027100D01*
X003712Y027057D01*
X003732Y027013D01*
X003747Y026968D01*
X003759Y026921D01*
X003767Y026873D01*
X003771Y026825D01*
X003771Y026777D01*
X003767Y026729D01*
X003759Y026681D01*
X003747Y026634D01*
X003732Y026589D01*
X003712Y026545D01*
X003690Y026502D01*
X003664Y026461D01*
X003634Y026423D01*
X003602Y026387D01*
X003567Y026354D01*
X003529Y026324D01*
X003489Y026297D01*
X003447Y026274D01*
X003403Y026254D01*
X003358Y026237D01*
X003312Y026225D01*
X003264Y026216D01*
X003216Y026211D01*
X003168Y026210D01*
X003120Y026213D01*
X003072Y026220D01*
X003025Y026231D01*
X002979Y026245D01*
X002934Y026263D01*
X002891Y026285D01*
X002850Y026310D01*
X002812Y026339D01*
X002775Y026371D01*
X002741Y026405D01*
X002711Y026442D01*
X002683Y026481D01*
X002658Y026523D01*
X002638Y026567D01*
X002620Y026612D01*
X002607Y026658D01*
X002597Y026705D01*
X002591Y026753D01*
X002589Y026801D01*
X002389Y032851D02*
X002391Y032899D01*
X002397Y032947D01*
X002407Y032994D01*
X002420Y033040D01*
X002438Y033085D01*
X002458Y033129D01*
X002483Y033171D01*
X002511Y033210D01*
X002541Y033247D01*
X002575Y033281D01*
X002612Y033313D01*
X002650Y033342D01*
X002691Y033367D01*
X002734Y033389D01*
X002779Y033407D01*
X002825Y033421D01*
X002872Y033432D01*
X002920Y033439D01*
X002968Y033442D01*
X003016Y033441D01*
X003064Y033436D01*
X003112Y033427D01*
X003158Y033415D01*
X003203Y033398D01*
X003247Y033378D01*
X003289Y033355D01*
X003329Y033328D01*
X003367Y033298D01*
X003402Y033265D01*
X003434Y033229D01*
X003464Y033191D01*
X003490Y033150D01*
X003512Y033107D01*
X003532Y033063D01*
X003547Y033018D01*
X003559Y032971D01*
X003567Y032923D01*
X003571Y032875D01*
X003571Y032827D01*
X003567Y032779D01*
X003559Y032731D01*
X003547Y032684D01*
X003532Y032639D01*
X003512Y032595D01*
X003490Y032552D01*
X003464Y032511D01*
X003434Y032473D01*
X003402Y032437D01*
X003367Y032404D01*
X003329Y032374D01*
X003289Y032347D01*
X003247Y032324D01*
X003203Y032304D01*
X003158Y032287D01*
X003112Y032275D01*
X003064Y032266D01*
X003016Y032261D01*
X002968Y032260D01*
X002920Y032263D01*
X002872Y032270D01*
X002825Y032281D01*
X002779Y032295D01*
X002734Y032313D01*
X002691Y032335D01*
X002650Y032360D01*
X002612Y032389D01*
X002575Y032421D01*
X002541Y032455D01*
X002511Y032492D01*
X002483Y032531D01*
X002458Y032573D01*
X002438Y032617D01*
X002420Y032662D01*
X002407Y032708D01*
X002397Y032755D01*
X002391Y032803D01*
X002389Y032851D01*
X002389Y041601D02*
X002391Y041649D01*
X002397Y041697D01*
X002407Y041744D01*
X002420Y041790D01*
X002438Y041835D01*
X002458Y041879D01*
X002483Y041921D01*
X002511Y041960D01*
X002541Y041997D01*
X002575Y042031D01*
X002612Y042063D01*
X002650Y042092D01*
X002691Y042117D01*
X002734Y042139D01*
X002779Y042157D01*
X002825Y042171D01*
X002872Y042182D01*
X002920Y042189D01*
X002968Y042192D01*
X003016Y042191D01*
X003064Y042186D01*
X003112Y042177D01*
X003158Y042165D01*
X003203Y042148D01*
X003247Y042128D01*
X003289Y042105D01*
X003329Y042078D01*
X003367Y042048D01*
X003402Y042015D01*
X003434Y041979D01*
X003464Y041941D01*
X003490Y041900D01*
X003512Y041857D01*
X003532Y041813D01*
X003547Y041768D01*
X003559Y041721D01*
X003567Y041673D01*
X003571Y041625D01*
X003571Y041577D01*
X003567Y041529D01*
X003559Y041481D01*
X003547Y041434D01*
X003532Y041389D01*
X003512Y041345D01*
X003490Y041302D01*
X003464Y041261D01*
X003434Y041223D01*
X003402Y041187D01*
X003367Y041154D01*
X003329Y041124D01*
X003289Y041097D01*
X003247Y041074D01*
X003203Y041054D01*
X003158Y041037D01*
X003112Y041025D01*
X003064Y041016D01*
X003016Y041011D01*
X002968Y041010D01*
X002920Y041013D01*
X002872Y041020D01*
X002825Y041031D01*
X002779Y041045D01*
X002734Y041063D01*
X002691Y041085D01*
X002650Y041110D01*
X002612Y041139D01*
X002575Y041171D01*
X002541Y041205D01*
X002511Y041242D01*
X002483Y041281D01*
X002458Y041323D01*
X002438Y041367D01*
X002420Y041412D01*
X002407Y041458D01*
X002397Y041505D01*
X002391Y041553D01*
X002389Y041601D01*
D14*
X016680Y025501D02*
X016580Y025401D01*
X016580Y024601D01*
X016480Y024501D01*
X023700Y035385D02*
X023700Y035672D01*
X023556Y035529D02*
X023843Y035529D01*
X035380Y016651D02*
X035580Y016651D01*
X035680Y016551D01*
X035680Y015851D01*
X035280Y014651D02*
X033480Y014651D01*
X033280Y014851D01*
D15*
X034047Y022871D02*
X034140Y022871D01*
X034187Y022917D01*
X034187Y023011D01*
X034093Y023011D01*
X034000Y023104D02*
X034000Y022917D01*
X034047Y022871D01*
X034000Y023104D02*
X034047Y023151D01*
X034140Y023151D01*
X034187Y023104D01*
X034295Y023151D02*
X034481Y022871D01*
X034481Y023151D01*
X034589Y023151D02*
X034729Y023151D01*
X034776Y023104D01*
X034776Y022917D01*
X034729Y022871D01*
X034589Y022871D01*
X034589Y023151D01*
X034295Y023151D02*
X034295Y022871D01*
X035700Y023251D02*
X035887Y023251D01*
X035793Y023251D02*
X035793Y022971D01*
X036700Y022971D02*
X036700Y023251D01*
X036840Y023251D01*
X036887Y023204D01*
X036887Y023111D01*
X036840Y023064D01*
X036700Y023064D01*
X036793Y023064D02*
X036887Y022971D01*
X011060Y023967D02*
X011060Y024061D01*
X011013Y024107D01*
X010920Y024107D01*
X010920Y024014D01*
X011013Y023921D02*
X011060Y023967D01*
X011013Y023921D02*
X010826Y023921D01*
X010780Y023967D01*
X010780Y024061D01*
X010826Y024107D01*
X010780Y024215D02*
X011060Y024402D01*
X010780Y024402D01*
X010780Y024510D02*
X010780Y024650D01*
X010826Y024697D01*
X011013Y024697D01*
X011060Y024650D01*
X011060Y024510D01*
X010780Y024510D01*
X010780Y024215D02*
X011060Y024215D01*
X010780Y025521D02*
X010780Y025707D01*
X010780Y025614D02*
X011060Y025614D01*
X011060Y026321D02*
X010780Y026321D01*
X010780Y026461D01*
X010826Y026507D01*
X010920Y026507D01*
X010967Y026461D01*
X010967Y026321D01*
X010967Y026414D02*
X011060Y026507D01*
D16*
X011313Y027839D02*
X011547Y027839D01*
X011605Y027897D01*
X011605Y028014D01*
X011547Y028073D01*
X011547Y028207D02*
X011605Y028207D01*
X011547Y028207D02*
X011313Y028441D01*
X011255Y028441D01*
X011255Y028207D01*
X011313Y028073D02*
X011255Y028014D01*
X011255Y027897D01*
X011313Y027839D01*
X011313Y029076D02*
X011547Y029076D01*
X011605Y029134D01*
X011605Y029251D01*
X011547Y029309D01*
X011547Y029444D02*
X011488Y029444D01*
X011430Y029502D01*
X011430Y029619D01*
X011488Y029677D01*
X011547Y029677D01*
X011605Y029619D01*
X011605Y029502D01*
X011547Y029444D01*
X011430Y029502D02*
X011371Y029444D01*
X011313Y029444D01*
X011255Y029502D01*
X011255Y029619D01*
X011313Y029677D01*
X011371Y029677D01*
X011430Y029619D01*
X011313Y029309D02*
X011255Y029251D01*
X011255Y029134D01*
X011313Y029076D01*
X009477Y027963D02*
X009297Y027783D01*
X009342Y027669D02*
X009297Y027624D01*
X009297Y027533D01*
X009342Y027488D01*
X009432Y027488D01*
X009477Y027533D01*
X009477Y027624D01*
X009432Y027669D01*
X009342Y027669D01*
X009477Y027783D02*
X009297Y027963D01*
X009477Y027382D02*
X009477Y027292D01*
X009477Y027337D02*
X009207Y027337D01*
X009207Y027292D01*
X009342Y027178D02*
X009297Y027132D01*
X009297Y026997D01*
X009207Y026997D02*
X009477Y026997D01*
X009477Y027132D01*
X009432Y027178D01*
X009342Y027178D01*
X009297Y026883D02*
X009477Y026883D01*
X009477Y026748D01*
X009432Y026703D01*
X009297Y026703D01*
X009384Y025505D02*
X008734Y025505D01*
X008734Y025327D01*
X008026Y025327D01*
X008026Y025505D01*
X007376Y025505D01*
X007376Y025190D01*
X007140Y025190D01*
X007140Y023812D01*
X007356Y023812D01*
X007356Y023497D01*
X009404Y023497D01*
X009404Y023812D01*
X009620Y023812D01*
X009620Y025190D01*
X009384Y025190D01*
X009384Y025505D01*
X008734Y025505D02*
X008026Y025505D01*
X005155Y027739D02*
X005155Y027973D01*
X005155Y028107D02*
X004921Y028341D01*
X004863Y028341D01*
X004805Y028282D01*
X004805Y028166D01*
X004863Y028107D01*
X005155Y028107D02*
X005155Y028341D01*
X005155Y027739D02*
X004805Y027739D01*
X005113Y029576D02*
X005230Y029576D01*
X005289Y029634D01*
X005423Y029634D02*
X005482Y029576D01*
X005598Y029576D01*
X005657Y029634D01*
X005657Y029868D01*
X005598Y029926D01*
X005482Y029926D01*
X005423Y029868D01*
X005423Y029809D01*
X005482Y029751D01*
X005657Y029751D01*
X005289Y029868D02*
X005230Y029926D01*
X005113Y029926D01*
X005055Y029868D01*
X005055Y029634D01*
X005113Y029576D01*
X009347Y033153D02*
X009482Y033153D01*
X009527Y033198D01*
X009527Y033333D01*
X009347Y033333D01*
X009347Y033447D02*
X009347Y033582D01*
X009392Y033628D01*
X009482Y033628D01*
X009527Y033582D01*
X009527Y033447D01*
X009257Y033447D01*
X009257Y033742D02*
X009257Y033787D01*
X009527Y033787D01*
X009527Y033742D02*
X009527Y033832D01*
X009482Y033938D02*
X009527Y033983D01*
X009527Y034074D01*
X009482Y034119D01*
X009392Y034119D01*
X009347Y034074D01*
X009347Y033983D01*
X009392Y033938D01*
X009482Y033938D01*
X009527Y034233D02*
X009347Y034413D01*
X009347Y034233D02*
X009527Y034413D01*
X009330Y037276D02*
X009330Y038925D01*
X009930Y038653D02*
X009930Y038548D01*
X009533Y039051D02*
X009479Y039024D01*
X009428Y038994D01*
X009378Y038961D01*
X009330Y038926D01*
X010427Y039051D02*
X010484Y039022D01*
X010540Y038989D01*
X010593Y038954D01*
X010644Y038914D01*
X010692Y038872D01*
X010738Y038827D01*
X010781Y038780D01*
X010821Y038730D01*
X010858Y038677D01*
X010891Y038622D01*
X010922Y038566D01*
X010948Y038507D01*
X010971Y038447D01*
X010991Y038386D01*
X011006Y038324D01*
X011018Y038261D01*
X011026Y038197D01*
X011030Y038133D01*
X011030Y038069D01*
X011026Y038005D01*
X011018Y037941D01*
X011006Y037878D01*
X010991Y037816D01*
X010971Y037755D01*
X010948Y037695D01*
X010922Y037636D01*
X010891Y037580D01*
X010858Y037525D01*
X010821Y037472D01*
X010781Y037422D01*
X010738Y037375D01*
X010692Y037330D01*
X010644Y037288D01*
X010593Y037248D01*
X010540Y037213D01*
X010484Y037180D01*
X010427Y037151D01*
X009930Y037548D02*
X009930Y037653D01*
X009542Y037146D02*
X009486Y037173D01*
X009432Y037204D01*
X009380Y037238D01*
X009330Y037275D01*
X014013Y029526D02*
X013955Y029468D01*
X013955Y029234D01*
X014013Y029176D01*
X014130Y029176D01*
X014189Y029234D01*
X014323Y029234D02*
X014382Y029176D01*
X014498Y029176D01*
X014557Y029234D01*
X014557Y029351D01*
X014498Y029409D01*
X014440Y029409D01*
X014323Y029351D01*
X014323Y029526D01*
X014557Y029526D01*
X014189Y029468D02*
X014130Y029526D01*
X014013Y029526D01*
X015655Y028377D02*
X015655Y028144D01*
X015830Y028144D01*
X015771Y028261D01*
X015771Y028319D01*
X015830Y028377D01*
X015947Y028377D01*
X016005Y028319D01*
X016005Y028202D01*
X015947Y028144D01*
X016005Y028009D02*
X015888Y027892D01*
X015888Y027951D02*
X015888Y027776D01*
X016005Y027776D02*
X015655Y027776D01*
X015655Y027951D01*
X015713Y028009D01*
X015830Y028009D01*
X015888Y027951D01*
X017118Y027851D02*
X017352Y027851D01*
X017487Y027851D02*
X017720Y027851D01*
X017603Y027851D02*
X017603Y028201D01*
X017487Y028084D01*
X017118Y028201D02*
X017118Y027851D01*
X018605Y026869D02*
X018780Y026694D01*
X018780Y026927D01*
X018955Y026869D02*
X018605Y026869D01*
X018663Y026559D02*
X018605Y026501D01*
X018605Y026326D01*
X018955Y026326D01*
X018838Y026326D02*
X018838Y026501D01*
X018780Y026559D01*
X018663Y026559D01*
X018838Y026442D02*
X018955Y026559D01*
X018274Y025894D02*
X018274Y025107D01*
X018288Y024627D02*
X018347Y024627D01*
X018405Y024569D01*
X018405Y024452D01*
X018347Y024394D01*
X018405Y024259D02*
X018288Y024142D01*
X018288Y024201D02*
X018288Y024026D01*
X018405Y024026D02*
X018055Y024026D01*
X018055Y024201D01*
X018113Y024259D01*
X018230Y024259D01*
X018288Y024201D01*
X018113Y024394D02*
X018055Y024452D01*
X018055Y024569D01*
X018113Y024627D01*
X018171Y024627D01*
X018230Y024569D01*
X018288Y024627D01*
X018230Y024569D02*
X018230Y024511D01*
X017420Y024051D02*
X017187Y024051D01*
X017362Y024226D01*
X017362Y023876D01*
X017052Y023934D02*
X016994Y023876D01*
X016877Y023876D01*
X016818Y023934D01*
X016818Y024168D01*
X016877Y024226D01*
X016994Y024226D01*
X017052Y024168D01*
X016455Y024266D02*
X016397Y024207D01*
X016455Y024266D02*
X016455Y024382D01*
X016397Y024441D01*
X016338Y024441D01*
X016280Y024382D01*
X016280Y024324D01*
X016280Y024382D02*
X016221Y024441D01*
X016163Y024441D01*
X016105Y024382D01*
X016105Y024266D01*
X016163Y024207D01*
X016163Y024073D02*
X016105Y024014D01*
X016105Y023897D01*
X016163Y023839D01*
X016397Y023839D01*
X016455Y023897D01*
X016455Y024014D01*
X016397Y024073D01*
X017399Y025028D02*
X017401Y025038D01*
X017406Y025047D01*
X017415Y025053D01*
X017424Y025056D01*
X017435Y025055D01*
X017444Y025050D01*
X017451Y025043D01*
X017455Y025033D01*
X017455Y025023D01*
X017451Y025013D01*
X017444Y025006D01*
X017435Y025001D01*
X017424Y025000D01*
X017415Y025003D01*
X017406Y025009D01*
X017401Y025018D01*
X017399Y025028D01*
X017486Y025107D02*
X017486Y025894D01*
X015705Y025819D02*
X015647Y025877D01*
X015588Y025877D01*
X015530Y025819D01*
X015530Y025644D01*
X015647Y025644D01*
X015705Y025702D01*
X015705Y025819D01*
X015530Y025644D02*
X015413Y025761D01*
X015355Y025877D01*
X015413Y025509D02*
X015355Y025451D01*
X015355Y025334D01*
X015413Y025276D01*
X015647Y025276D01*
X015705Y025334D01*
X015705Y025451D01*
X015647Y025509D01*
X014420Y025268D02*
X014362Y025326D01*
X014245Y025326D01*
X014187Y025268D01*
X014052Y025268D02*
X013994Y025326D01*
X013877Y025326D01*
X013818Y025268D01*
X013818Y025034D01*
X013877Y024976D01*
X013994Y024976D01*
X014052Y025034D01*
X014187Y024976D02*
X014420Y025209D01*
X014420Y025268D01*
X014420Y024976D02*
X014187Y024976D01*
X014090Y026280D02*
X013857Y026280D01*
X013973Y026280D02*
X013973Y026630D01*
X013857Y026513D01*
X013722Y026572D02*
X013664Y026630D01*
X013547Y026630D01*
X013488Y026572D01*
X013488Y026338D01*
X013547Y026280D01*
X013664Y026280D01*
X013722Y026338D01*
X013360Y026280D02*
X013243Y026280D01*
X013301Y026280D02*
X013301Y026630D01*
X013243Y026630D02*
X013360Y026630D01*
X019880Y023595D02*
X026179Y023595D01*
X025474Y021011D02*
X024647Y021011D01*
X023899Y021011D01*
X006694Y021011D01*
X005080Y021011D01*
X005080Y019358D01*
X005080Y013807D01*
X024647Y013807D01*
X027127Y013807D01*
X027127Y021011D01*
X025474Y021011D01*
X024647Y021011D02*
X024647Y013807D01*
X024647Y011051D01*
X005080Y011051D01*
X005080Y013807D01*
X019880Y029894D02*
X026179Y029894D01*
X027013Y026626D02*
X026955Y026568D01*
X026955Y026334D01*
X027013Y026276D01*
X027130Y026276D01*
X027189Y026334D01*
X027323Y026276D02*
X027557Y026276D01*
X027440Y026276D02*
X027440Y026626D01*
X027323Y026509D01*
X027189Y026568D02*
X027130Y026626D01*
X027013Y026626D01*
X032676Y026574D02*
X032676Y024527D01*
X032991Y024527D01*
X032991Y024310D01*
X034369Y024310D01*
X034369Y024547D01*
X034684Y024547D01*
X034684Y025196D01*
X034507Y025196D01*
X034507Y025905D01*
X034684Y025905D01*
X034684Y026555D01*
X034369Y026555D01*
X034369Y026791D01*
X032991Y026791D01*
X032991Y026574D01*
X032676Y026574D01*
X034684Y025905D02*
X034684Y025196D01*
X036482Y024533D02*
X036482Y024398D01*
X036527Y024353D01*
X036662Y024353D01*
X036662Y024533D01*
X036777Y024533D02*
X036912Y024533D01*
X036957Y024488D01*
X036957Y024398D01*
X036912Y024353D01*
X036777Y024353D01*
X036777Y024624D01*
X037071Y024624D02*
X037116Y024624D01*
X037116Y024353D01*
X037071Y024353D02*
X037161Y024353D01*
X037268Y024398D02*
X037313Y024353D01*
X037403Y024353D01*
X037448Y024398D01*
X037448Y024488D01*
X037403Y024533D01*
X037313Y024533D01*
X037268Y024488D01*
X037268Y024398D01*
X037562Y024353D02*
X037743Y024533D01*
X037743Y024353D02*
X037562Y024533D01*
X039955Y023869D02*
X040013Y023927D01*
X040071Y023927D01*
X040130Y023869D01*
X040130Y023752D01*
X040071Y023694D01*
X040013Y023694D01*
X039955Y023752D01*
X039955Y023869D01*
X040130Y023869D02*
X040188Y023927D01*
X040247Y023927D01*
X040305Y023869D01*
X040305Y023752D01*
X040247Y023694D01*
X040188Y023694D01*
X040130Y023752D01*
X040247Y023559D02*
X040305Y023501D01*
X040305Y023384D01*
X040247Y023326D01*
X040013Y023326D01*
X039955Y023384D01*
X039955Y023501D01*
X040013Y023559D01*
X040013Y023027D02*
X040247Y022794D01*
X040305Y022794D01*
X040247Y022659D02*
X040305Y022601D01*
X040305Y022484D01*
X040247Y022426D01*
X040013Y022426D01*
X039955Y022484D01*
X039955Y022601D01*
X040013Y022659D01*
X039955Y022794D02*
X039955Y023027D01*
X040013Y023027D01*
X039647Y028089D02*
X039705Y028147D01*
X039705Y028264D01*
X039647Y028323D01*
X039647Y028457D02*
X039705Y028516D01*
X039705Y028632D01*
X039647Y028691D01*
X039413Y028691D01*
X039355Y028632D01*
X039355Y028516D01*
X039413Y028457D01*
X039471Y028457D01*
X039530Y028516D01*
X039530Y028691D01*
X039413Y028323D02*
X039355Y028264D01*
X039355Y028147D01*
X039413Y028089D01*
X039647Y028089D01*
X038120Y028676D02*
X037887Y028676D01*
X038120Y028909D01*
X038120Y028968D01*
X038062Y029026D01*
X037945Y029026D01*
X037887Y028968D01*
X037752Y028676D02*
X037518Y028676D01*
X037518Y029026D01*
X035020Y018676D02*
X034903Y018618D01*
X034787Y018501D01*
X034962Y018501D01*
X035020Y018442D01*
X035020Y018384D01*
X034962Y018326D01*
X034845Y018326D01*
X034787Y018384D01*
X034787Y018501D01*
X034652Y018618D02*
X034594Y018676D01*
X034477Y018676D01*
X034418Y018618D01*
X034418Y018384D01*
X034477Y018326D01*
X034594Y018326D01*
X034652Y018384D01*
X033657Y018351D02*
X033423Y018351D01*
X033598Y018526D01*
X033598Y018176D01*
X033289Y018234D02*
X033230Y018176D01*
X033113Y018176D01*
X033055Y018234D01*
X033055Y018468D01*
X033113Y018526D01*
X033230Y018526D01*
X033289Y018468D01*
X032897Y017327D02*
X032955Y017269D01*
X032955Y017152D01*
X032897Y017094D01*
X032897Y016959D02*
X032955Y016901D01*
X032955Y016784D01*
X032897Y016726D01*
X032663Y016726D01*
X032605Y016784D01*
X032605Y016901D01*
X032663Y016959D01*
X032663Y017094D02*
X032605Y017152D01*
X032605Y017269D01*
X032663Y017327D01*
X032721Y017327D01*
X032780Y017269D01*
X032838Y017327D01*
X032897Y017327D01*
X032780Y017269D02*
X032780Y017211D01*
X032880Y016503D02*
X032882Y016513D01*
X032887Y016522D01*
X032896Y016528D01*
X032905Y016531D01*
X032916Y016530D01*
X032925Y016525D01*
X032932Y016518D01*
X032936Y016508D01*
X032936Y016498D01*
X032932Y016488D01*
X032925Y016481D01*
X032916Y016476D01*
X032905Y016475D01*
X032896Y016478D01*
X032887Y016484D01*
X032882Y016493D01*
X032880Y016503D01*
X032986Y016444D02*
X033774Y016444D01*
X033774Y015657D02*
X032986Y015657D01*
X033174Y014051D02*
X033174Y007751D01*
X036855Y006774D02*
X037205Y006774D01*
X037205Y006657D02*
X037205Y006891D01*
X036971Y006657D02*
X036855Y006774D01*
X036913Y006523D02*
X036855Y006464D01*
X036855Y006347D01*
X036913Y006289D01*
X037147Y006289D01*
X037205Y006347D01*
X037205Y006464D01*
X037147Y006523D01*
X039755Y006501D02*
X039813Y006559D01*
X039930Y006559D01*
X039988Y006501D01*
X039988Y006326D01*
X039988Y006442D02*
X040105Y006559D01*
X040105Y006694D02*
X040105Y006927D01*
X040105Y006811D02*
X039755Y006811D01*
X039871Y006694D01*
X039755Y006501D02*
X039755Y006326D01*
X040105Y006326D01*
X039474Y007751D02*
X039474Y014051D01*
X039813Y013227D02*
X039755Y013169D01*
X039755Y013052D01*
X039813Y012994D01*
X039813Y012859D02*
X039930Y012859D01*
X039988Y012801D01*
X039988Y012626D01*
X039988Y012742D02*
X040105Y012859D01*
X040105Y012994D02*
X039871Y013227D01*
X039813Y013227D01*
X040105Y013227D02*
X040105Y012994D01*
X039813Y012859D02*
X039755Y012801D01*
X039755Y012626D01*
X040105Y012626D01*
X038598Y015026D02*
X038482Y015026D01*
X038423Y015084D01*
X038423Y015201D02*
X038540Y015259D01*
X038598Y015259D01*
X038657Y015201D01*
X038657Y015084D01*
X038598Y015026D01*
X038423Y015201D02*
X038423Y015376D01*
X038657Y015376D01*
X038289Y015318D02*
X038289Y015201D01*
X038230Y015142D01*
X038055Y015142D01*
X038055Y015026D02*
X038055Y015376D01*
X038230Y015376D01*
X038289Y015318D01*
X038172Y015142D02*
X038289Y015026D01*
X039613Y016726D02*
X039730Y016726D01*
X039789Y016784D01*
X039923Y016784D02*
X039982Y016726D01*
X040098Y016726D01*
X040157Y016784D01*
X040157Y016901D01*
X040098Y016959D01*
X040040Y016959D01*
X039923Y016901D01*
X039923Y017076D01*
X040157Y017076D01*
X039789Y017018D02*
X039730Y017076D01*
X039613Y017076D01*
X039555Y017018D01*
X039555Y016784D01*
X039613Y016726D01*
X037109Y017056D02*
X037109Y017172D01*
X037109Y017114D02*
X036759Y017114D01*
X036759Y017056D02*
X036759Y017172D01*
X036817Y017301D02*
X037051Y017301D01*
X037109Y017360D01*
X037109Y017476D01*
X037051Y017535D01*
X037109Y017669D02*
X037109Y017903D01*
X037109Y017786D02*
X036759Y017786D01*
X036876Y017669D01*
X036817Y017535D02*
X036759Y017476D01*
X036759Y017360D01*
X036817Y017301D01*
X036305Y017284D02*
X036305Y017401D01*
X036247Y017459D01*
X036305Y017594D02*
X036071Y017827D01*
X036013Y017827D01*
X035955Y017769D01*
X035955Y017652D01*
X036013Y017594D01*
X036013Y017459D02*
X035955Y017401D01*
X035955Y017284D01*
X036013Y017226D01*
X036247Y017226D01*
X036305Y017284D01*
X036305Y017594D02*
X036305Y017827D01*
X035780Y015827D02*
X035780Y015594D01*
X035780Y015711D02*
X035430Y015711D01*
X035546Y015594D01*
X035357Y015501D02*
X035123Y015501D01*
X035298Y015676D01*
X035298Y015326D01*
X035430Y015226D02*
X035780Y015226D01*
X035780Y015459D01*
X035307Y015018D02*
X035307Y014959D01*
X035248Y014901D01*
X035307Y014842D01*
X035307Y014784D01*
X035248Y014726D01*
X035132Y014726D01*
X035073Y014784D01*
X034939Y014726D02*
X034822Y014842D01*
X034880Y014842D02*
X034705Y014842D01*
X034705Y014726D02*
X034705Y015076D01*
X034880Y015076D01*
X034939Y015018D01*
X034939Y014901D01*
X034880Y014842D01*
X035073Y015018D02*
X035132Y015076D01*
X035248Y015076D01*
X035307Y015018D01*
X035248Y014901D02*
X035190Y014901D01*
X034989Y015326D02*
X034872Y015442D01*
X034930Y015442D02*
X034755Y015442D01*
X034755Y015326D02*
X034755Y015676D01*
X034930Y015676D01*
X034989Y015618D01*
X034989Y015501D01*
X034930Y015442D01*
X029330Y014926D02*
X029330Y014556D01*
X028031Y014556D01*
X028031Y014926D01*
X028031Y017926D02*
X028031Y018296D01*
X029330Y018296D01*
X029330Y017926D01*
X025830Y010551D02*
X024830Y010551D01*
X023830Y010551D02*
X022830Y010551D01*
X021830Y010551D02*
X020830Y010551D01*
X020830Y009051D01*
X020830Y007051D02*
X020830Y005551D01*
X025830Y005551D01*
X025830Y007051D01*
X025830Y009051D02*
X025830Y010551D01*
X025379Y036595D02*
X019080Y036595D01*
X018005Y040707D02*
X017665Y040707D01*
X017665Y040878D01*
X017721Y040934D01*
X017835Y040934D01*
X017892Y040878D01*
X017892Y040707D01*
X017892Y040821D02*
X018005Y040934D01*
X018005Y041067D02*
X017778Y041293D01*
X017721Y041293D01*
X017665Y041237D01*
X017665Y041123D01*
X017721Y041067D01*
X018005Y041067D02*
X018005Y041293D01*
X019080Y042894D02*
X025379Y042894D01*
D17*
X019889Y042501D02*
X019891Y042524D01*
X019897Y042547D01*
X019906Y042568D01*
X019919Y042588D01*
X019935Y042605D01*
X019953Y042619D01*
X019973Y042630D01*
X019995Y042638D01*
X020018Y042642D01*
X020042Y042642D01*
X020065Y042638D01*
X020087Y042630D01*
X020107Y042619D01*
X020125Y042605D01*
X020141Y042588D01*
X020154Y042568D01*
X020163Y042547D01*
X020169Y042524D01*
X020171Y042501D01*
X020169Y042478D01*
X020163Y042455D01*
X020154Y042434D01*
X020141Y042414D01*
X020125Y042397D01*
X020107Y042383D01*
X020087Y042372D01*
X020065Y042364D01*
X020042Y042360D01*
X020018Y042360D01*
X019995Y042364D01*
X019973Y042372D01*
X019953Y042383D01*
X019935Y042397D01*
X019919Y042414D01*
X019906Y042434D01*
X019897Y042455D01*
X019891Y042478D01*
X019889Y042501D01*
X027830Y034301D02*
X027832Y034321D01*
X027838Y034339D01*
X027847Y034357D01*
X027859Y034372D01*
X027874Y034384D01*
X027892Y034393D01*
X027910Y034399D01*
X027930Y034401D01*
X027950Y034399D01*
X027968Y034393D01*
X027986Y034384D01*
X028001Y034372D01*
X028013Y034357D01*
X028022Y034339D01*
X028028Y034321D01*
X028030Y034301D01*
X028028Y034281D01*
X028022Y034263D01*
X028013Y034245D01*
X028001Y034230D01*
X027986Y034218D01*
X027968Y034209D01*
X027950Y034203D01*
X027930Y034201D01*
X027910Y034203D01*
X027892Y034209D01*
X027874Y034218D01*
X027859Y034230D01*
X027847Y034245D01*
X027838Y034263D01*
X027832Y034281D01*
X027830Y034301D01*
X020830Y029401D02*
X020832Y029421D01*
X020838Y029439D01*
X020847Y029457D01*
X020859Y029472D01*
X020874Y029484D01*
X020892Y029493D01*
X020910Y029499D01*
X020930Y029501D01*
X020950Y029499D01*
X020968Y029493D01*
X020986Y029484D01*
X021001Y029472D01*
X021013Y029457D01*
X021022Y029439D01*
X021028Y029421D01*
X021030Y029401D01*
X021028Y029381D01*
X021022Y029363D01*
X021013Y029345D01*
X021001Y029330D01*
X020986Y029318D01*
X020968Y029309D01*
X020950Y029303D01*
X020930Y029301D01*
X020910Y029303D01*
X020892Y029309D01*
X020874Y029318D01*
X020859Y029330D01*
X020847Y029345D01*
X020838Y029363D01*
X020832Y029381D01*
X020830Y029401D01*
D18*
X020830Y031851D02*
X020330Y031851D01*
X020080Y032101D01*
X019830Y031851D01*
X019330Y031851D01*
X019080Y032101D01*
X018830Y031851D01*
X018330Y031851D01*
X018080Y032101D01*
X018080Y032601D01*
X018330Y032851D01*
X018830Y032851D01*
X019080Y032601D01*
X019330Y032851D01*
X019830Y032851D01*
X020080Y032601D01*
X020330Y032851D01*
X020830Y032851D01*
X021080Y032601D01*
X021330Y032851D01*
X021830Y032851D01*
X022080Y032601D01*
X022330Y032851D01*
X022830Y032851D01*
X023080Y032601D01*
X023330Y032851D01*
X023830Y032851D01*
X024080Y032601D01*
X024080Y032101D01*
X023830Y031851D01*
X023330Y031851D01*
X023080Y032101D01*
X022830Y031851D01*
X022330Y031851D01*
X022080Y032101D01*
X021830Y031851D01*
X021330Y031851D01*
X021080Y032101D01*
X020830Y031851D01*
X017910Y027712D02*
X016650Y027712D01*
X016650Y026689D02*
X017910Y026689D01*
X027950Y020051D02*
X027952Y020101D01*
X027958Y020151D01*
X027968Y020200D01*
X027982Y020248D01*
X027999Y020295D01*
X028020Y020340D01*
X028045Y020384D01*
X028073Y020425D01*
X028105Y020464D01*
X028139Y020501D01*
X028176Y020535D01*
X028216Y020565D01*
X028258Y020592D01*
X028302Y020616D01*
X028348Y020637D01*
X028395Y020653D01*
X028443Y020666D01*
X028493Y020675D01*
X028542Y020680D01*
X028593Y020681D01*
X028643Y020678D01*
X028692Y020671D01*
X028741Y020660D01*
X028789Y020645D01*
X028835Y020627D01*
X028880Y020605D01*
X028923Y020579D01*
X028964Y020550D01*
X029003Y020518D01*
X029039Y020483D01*
X029071Y020445D01*
X029101Y020405D01*
X029128Y020362D01*
X029151Y020318D01*
X029170Y020272D01*
X029186Y020224D01*
X029198Y020175D01*
X029206Y020126D01*
X029210Y020076D01*
X029210Y020026D01*
X029206Y019976D01*
X029198Y019927D01*
X029186Y019878D01*
X029170Y019830D01*
X029151Y019784D01*
X029128Y019740D01*
X029101Y019697D01*
X029071Y019657D01*
X029039Y019619D01*
X029003Y019584D01*
X028964Y019552D01*
X028923Y019523D01*
X028880Y019497D01*
X028835Y019475D01*
X028789Y019457D01*
X028741Y019442D01*
X028692Y019431D01*
X028643Y019424D01*
X028593Y019421D01*
X028542Y019422D01*
X028493Y019427D01*
X028443Y019436D01*
X028395Y019449D01*
X028348Y019465D01*
X028302Y019486D01*
X028258Y019510D01*
X028216Y019537D01*
X028176Y019567D01*
X028139Y019601D01*
X028105Y019638D01*
X028073Y019677D01*
X028045Y019718D01*
X028020Y019762D01*
X027999Y019807D01*
X027982Y019854D01*
X027968Y019902D01*
X027958Y019951D01*
X027952Y020001D01*
X027950Y020051D01*
X032604Y018779D02*
X032604Y022322D01*
X035714Y022322D01*
X035714Y021732D01*
X037446Y021732D01*
X037446Y022322D01*
X040556Y022322D01*
X040556Y018818D01*
X040556Y018779D02*
X032604Y018779D01*
X034468Y017281D02*
X034468Y016021D01*
X035492Y016021D02*
X035492Y017281D01*
X038330Y021643D02*
X038830Y021643D01*
X037446Y022322D02*
X035714Y022322D01*
X039888Y010606D02*
X039980Y010484D01*
X040161Y010484D01*
X040066Y010606D02*
X039990Y010490D01*
X039980Y010484D02*
X039799Y010484D01*
X039888Y009106D02*
X039980Y008984D01*
X040161Y008984D01*
X040066Y009106D02*
X039990Y008990D01*
X039980Y008984D02*
X039799Y008984D01*
X027950Y005551D02*
X027952Y005601D01*
X027958Y005651D01*
X027968Y005700D01*
X027982Y005748D01*
X027999Y005795D01*
X028020Y005840D01*
X028045Y005884D01*
X028073Y005925D01*
X028105Y005964D01*
X028139Y006001D01*
X028176Y006035D01*
X028216Y006065D01*
X028258Y006092D01*
X028302Y006116D01*
X028348Y006137D01*
X028395Y006153D01*
X028443Y006166D01*
X028493Y006175D01*
X028542Y006180D01*
X028593Y006181D01*
X028643Y006178D01*
X028692Y006171D01*
X028741Y006160D01*
X028789Y006145D01*
X028835Y006127D01*
X028880Y006105D01*
X028923Y006079D01*
X028964Y006050D01*
X029003Y006018D01*
X029039Y005983D01*
X029071Y005945D01*
X029101Y005905D01*
X029128Y005862D01*
X029151Y005818D01*
X029170Y005772D01*
X029186Y005724D01*
X029198Y005675D01*
X029206Y005626D01*
X029210Y005576D01*
X029210Y005526D01*
X029206Y005476D01*
X029198Y005427D01*
X029186Y005378D01*
X029170Y005330D01*
X029151Y005284D01*
X029128Y005240D01*
X029101Y005197D01*
X029071Y005157D01*
X029039Y005119D01*
X029003Y005084D01*
X028964Y005052D01*
X028923Y005023D01*
X028880Y004997D01*
X028835Y004975D01*
X028789Y004957D01*
X028741Y004942D01*
X028692Y004931D01*
X028643Y004924D01*
X028593Y004921D01*
X028542Y004922D01*
X028493Y004927D01*
X028443Y004936D01*
X028395Y004949D01*
X028348Y004965D01*
X028302Y004986D01*
X028258Y005010D01*
X028216Y005037D01*
X028176Y005067D01*
X028139Y005101D01*
X028105Y005138D01*
X028073Y005177D01*
X028045Y005218D01*
X028020Y005262D01*
X027999Y005307D01*
X027982Y005354D01*
X027968Y005402D01*
X027958Y005451D01*
X027952Y005501D01*
X027950Y005551D01*
X019280Y006201D02*
X019280Y007901D01*
X018485Y008251D02*
X017680Y008251D01*
X016880Y007901D02*
X016880Y006201D01*
X017680Y005851D02*
X018473Y005851D01*
X017380Y007051D02*
X017382Y007103D01*
X017388Y007155D01*
X017398Y007207D01*
X017411Y007257D01*
X017428Y007307D01*
X017449Y007355D01*
X017474Y007401D01*
X017502Y007445D01*
X017533Y007487D01*
X017567Y007527D01*
X017604Y007564D01*
X017644Y007598D01*
X017686Y007629D01*
X017730Y007657D01*
X017776Y007682D01*
X017824Y007703D01*
X017874Y007720D01*
X017924Y007733D01*
X017976Y007743D01*
X018028Y007749D01*
X018080Y007751D01*
X018132Y007749D01*
X018184Y007743D01*
X018236Y007733D01*
X018286Y007720D01*
X018336Y007703D01*
X018384Y007682D01*
X018430Y007657D01*
X018474Y007629D01*
X018516Y007598D01*
X018556Y007564D01*
X018593Y007527D01*
X018627Y007487D01*
X018658Y007445D01*
X018686Y007401D01*
X018711Y007355D01*
X018732Y007307D01*
X018749Y007257D01*
X018762Y007207D01*
X018772Y007155D01*
X018778Y007103D01*
X018780Y007051D01*
X018778Y006999D01*
X018772Y006947D01*
X018762Y006895D01*
X018749Y006845D01*
X018732Y006795D01*
X018711Y006747D01*
X018686Y006701D01*
X018658Y006657D01*
X018627Y006615D01*
X018593Y006575D01*
X018556Y006538D01*
X018516Y006504D01*
X018474Y006473D01*
X018430Y006445D01*
X018384Y006420D01*
X018336Y006399D01*
X018286Y006382D01*
X018236Y006369D01*
X018184Y006359D01*
X018132Y006353D01*
X018080Y006351D01*
X018028Y006353D01*
X017976Y006359D01*
X017924Y006369D01*
X017874Y006382D01*
X017824Y006399D01*
X017776Y006420D01*
X017730Y006445D01*
X017686Y006473D01*
X017644Y006504D01*
X017604Y006538D01*
X017567Y006575D01*
X017533Y006615D01*
X017502Y006657D01*
X017474Y006701D01*
X017449Y006747D01*
X017428Y006795D01*
X017411Y006845D01*
X017398Y006895D01*
X017388Y006947D01*
X017382Y006999D01*
X017380Y007051D01*
X014780Y006201D02*
X014780Y007901D01*
X013985Y008251D02*
X013180Y008251D01*
X012380Y007901D02*
X012380Y006201D01*
X013180Y005851D02*
X013973Y005851D01*
X012880Y007051D02*
X012882Y007103D01*
X012888Y007155D01*
X012898Y007207D01*
X012911Y007257D01*
X012928Y007307D01*
X012949Y007355D01*
X012974Y007401D01*
X013002Y007445D01*
X013033Y007487D01*
X013067Y007527D01*
X013104Y007564D01*
X013144Y007598D01*
X013186Y007629D01*
X013230Y007657D01*
X013276Y007682D01*
X013324Y007703D01*
X013374Y007720D01*
X013424Y007733D01*
X013476Y007743D01*
X013528Y007749D01*
X013580Y007751D01*
X013632Y007749D01*
X013684Y007743D01*
X013736Y007733D01*
X013786Y007720D01*
X013836Y007703D01*
X013884Y007682D01*
X013930Y007657D01*
X013974Y007629D01*
X014016Y007598D01*
X014056Y007564D01*
X014093Y007527D01*
X014127Y007487D01*
X014158Y007445D01*
X014186Y007401D01*
X014211Y007355D01*
X014232Y007307D01*
X014249Y007257D01*
X014262Y007207D01*
X014272Y007155D01*
X014278Y007103D01*
X014280Y007051D01*
X014278Y006999D01*
X014272Y006947D01*
X014262Y006895D01*
X014249Y006845D01*
X014232Y006795D01*
X014211Y006747D01*
X014186Y006701D01*
X014158Y006657D01*
X014127Y006615D01*
X014093Y006575D01*
X014056Y006538D01*
X014016Y006504D01*
X013974Y006473D01*
X013930Y006445D01*
X013884Y006420D01*
X013836Y006399D01*
X013786Y006382D01*
X013736Y006369D01*
X013684Y006359D01*
X013632Y006353D01*
X013580Y006351D01*
X013528Y006353D01*
X013476Y006359D01*
X013424Y006369D01*
X013374Y006382D01*
X013324Y006399D01*
X013276Y006420D01*
X013230Y006445D01*
X013186Y006473D01*
X013144Y006504D01*
X013104Y006538D01*
X013067Y006575D01*
X013033Y006615D01*
X013002Y006657D01*
X012974Y006701D01*
X012949Y006747D01*
X012928Y006795D01*
X012911Y006845D01*
X012898Y006895D01*
X012888Y006947D01*
X012882Y006999D01*
X012880Y007051D01*
X011080Y008801D02*
X011080Y010301D01*
X004340Y016318D02*
X004340Y017184D01*
X003513Y018010D02*
X002647Y018010D01*
X001820Y017184D02*
X001820Y016318D01*
X002647Y015491D02*
X003513Y015491D01*
X002411Y016751D02*
X002413Y016802D01*
X002419Y016853D01*
X002429Y016903D01*
X002442Y016953D01*
X002460Y017001D01*
X002480Y017048D01*
X002505Y017093D01*
X002533Y017136D01*
X002564Y017177D01*
X002598Y017215D01*
X002635Y017250D01*
X002674Y017283D01*
X002716Y017313D01*
X002760Y017339D01*
X002806Y017361D01*
X002854Y017381D01*
X002903Y017396D01*
X002953Y017408D01*
X003003Y017416D01*
X003054Y017420D01*
X003106Y017420D01*
X003157Y017416D01*
X003207Y017408D01*
X003257Y017396D01*
X003306Y017381D01*
X003354Y017361D01*
X003400Y017339D01*
X003444Y017313D01*
X003486Y017283D01*
X003525Y017250D01*
X003562Y017215D01*
X003596Y017177D01*
X003627Y017136D01*
X003655Y017093D01*
X003680Y017048D01*
X003700Y017001D01*
X003718Y016953D01*
X003731Y016903D01*
X003741Y016853D01*
X003747Y016802D01*
X003749Y016751D01*
X003747Y016700D01*
X003741Y016649D01*
X003731Y016599D01*
X003718Y016549D01*
X003700Y016501D01*
X003680Y016454D01*
X003655Y016409D01*
X003627Y016366D01*
X003596Y016325D01*
X003562Y016287D01*
X003525Y016252D01*
X003486Y016219D01*
X003444Y016189D01*
X003400Y016163D01*
X003354Y016141D01*
X003306Y016121D01*
X003257Y016106D01*
X003207Y016094D01*
X003157Y016086D01*
X003106Y016082D01*
X003054Y016082D01*
X003003Y016086D01*
X002953Y016094D01*
X002903Y016106D01*
X002854Y016121D01*
X002806Y016141D01*
X002760Y016163D01*
X002716Y016189D01*
X002674Y016219D01*
X002635Y016252D01*
X002598Y016287D01*
X002564Y016325D01*
X002533Y016366D01*
X002505Y016409D01*
X002480Y016454D01*
X002460Y016501D01*
X002442Y016549D01*
X002429Y016599D01*
X002419Y016649D01*
X002413Y016700D01*
X002411Y016751D01*
X002450Y020051D02*
X002452Y020101D01*
X002458Y020151D01*
X002468Y020200D01*
X002482Y020248D01*
X002499Y020295D01*
X002520Y020340D01*
X002545Y020384D01*
X002573Y020425D01*
X002605Y020464D01*
X002639Y020501D01*
X002676Y020535D01*
X002716Y020565D01*
X002758Y020592D01*
X002802Y020616D01*
X002848Y020637D01*
X002895Y020653D01*
X002943Y020666D01*
X002993Y020675D01*
X003042Y020680D01*
X003093Y020681D01*
X003143Y020678D01*
X003192Y020671D01*
X003241Y020660D01*
X003289Y020645D01*
X003335Y020627D01*
X003380Y020605D01*
X003423Y020579D01*
X003464Y020550D01*
X003503Y020518D01*
X003539Y020483D01*
X003571Y020445D01*
X003601Y020405D01*
X003628Y020362D01*
X003651Y020318D01*
X003670Y020272D01*
X003686Y020224D01*
X003698Y020175D01*
X003706Y020126D01*
X003710Y020076D01*
X003710Y020026D01*
X003706Y019976D01*
X003698Y019927D01*
X003686Y019878D01*
X003670Y019830D01*
X003651Y019784D01*
X003628Y019740D01*
X003601Y019697D01*
X003571Y019657D01*
X003539Y019619D01*
X003503Y019584D01*
X003464Y019552D01*
X003423Y019523D01*
X003380Y019497D01*
X003335Y019475D01*
X003289Y019457D01*
X003241Y019442D01*
X003192Y019431D01*
X003143Y019424D01*
X003093Y019421D01*
X003042Y019422D01*
X002993Y019427D01*
X002943Y019436D01*
X002895Y019449D01*
X002848Y019465D01*
X002802Y019486D01*
X002758Y019510D01*
X002716Y019537D01*
X002676Y019567D01*
X002639Y019601D01*
X002605Y019638D01*
X002573Y019677D01*
X002545Y019718D01*
X002520Y019762D01*
X002499Y019807D01*
X002482Y019854D01*
X002468Y019902D01*
X002458Y019951D01*
X002452Y020001D01*
X002450Y020051D01*
X002450Y005551D02*
X002452Y005601D01*
X002458Y005651D01*
X002468Y005700D01*
X002482Y005748D01*
X002499Y005795D01*
X002520Y005840D01*
X002545Y005884D01*
X002573Y005925D01*
X002605Y005964D01*
X002639Y006001D01*
X002676Y006035D01*
X002716Y006065D01*
X002758Y006092D01*
X002802Y006116D01*
X002848Y006137D01*
X002895Y006153D01*
X002943Y006166D01*
X002993Y006175D01*
X003042Y006180D01*
X003093Y006181D01*
X003143Y006178D01*
X003192Y006171D01*
X003241Y006160D01*
X003289Y006145D01*
X003335Y006127D01*
X003380Y006105D01*
X003423Y006079D01*
X003464Y006050D01*
X003503Y006018D01*
X003539Y005983D01*
X003571Y005945D01*
X003601Y005905D01*
X003628Y005862D01*
X003651Y005818D01*
X003670Y005772D01*
X003686Y005724D01*
X003698Y005675D01*
X003706Y005626D01*
X003710Y005576D01*
X003710Y005526D01*
X003706Y005476D01*
X003698Y005427D01*
X003686Y005378D01*
X003670Y005330D01*
X003651Y005284D01*
X003628Y005240D01*
X003601Y005197D01*
X003571Y005157D01*
X003539Y005119D01*
X003503Y005084D01*
X003464Y005052D01*
X003423Y005023D01*
X003380Y004997D01*
X003335Y004975D01*
X003289Y004957D01*
X003241Y004942D01*
X003192Y004931D01*
X003143Y004924D01*
X003093Y004921D01*
X003042Y004922D01*
X002993Y004927D01*
X002943Y004936D01*
X002895Y004949D01*
X002848Y004965D01*
X002802Y004986D01*
X002758Y005010D01*
X002716Y005037D01*
X002676Y005067D01*
X002639Y005101D01*
X002605Y005138D01*
X002573Y005177D01*
X002545Y005218D01*
X002520Y005262D01*
X002499Y005307D01*
X002482Y005354D01*
X002468Y005402D01*
X002458Y005451D01*
X002452Y005501D01*
X002450Y005551D01*
X004810Y039841D02*
X004970Y040001D01*
X004810Y040161D01*
X005290Y040161D01*
X005210Y040356D02*
X005130Y040436D01*
X005130Y040677D01*
X005050Y040677D02*
X005290Y040677D01*
X005290Y040436D01*
X005210Y040356D01*
X004970Y040436D02*
X004970Y040596D01*
X005050Y040677D01*
X004970Y040872D02*
X005290Y041192D01*
X005290Y040872D02*
X004970Y041192D01*
X005050Y041903D02*
X004890Y042063D01*
X004810Y042223D01*
X004810Y042419D02*
X005130Y042419D01*
X005290Y042579D01*
X005130Y042739D01*
X004810Y042739D01*
X005130Y042223D02*
X005050Y042143D01*
X005050Y041903D01*
X005210Y041903D01*
X005290Y041983D01*
X005290Y042143D01*
X005210Y042223D01*
X005130Y042223D01*
X006255Y041357D02*
X006255Y039979D01*
X006570Y039979D01*
X006570Y040963D01*
X007043Y040963D01*
X006875Y040321D02*
X006554Y040321D01*
X005290Y039841D02*
X004810Y039841D01*
X007043Y042932D02*
X008617Y042932D01*
X009405Y041357D02*
X009405Y039979D01*
X009090Y039979D01*
X009090Y040963D01*
X008617Y040963D01*
X008750Y040461D02*
X008750Y040141D01*
X008590Y040301D02*
X008910Y040301D01*
X010013Y039912D02*
X010013Y042353D01*
X012769Y042353D01*
X012769Y039912D01*
X010013Y039912D01*
X010454Y040621D02*
X010775Y040621D01*
X011890Y040601D02*
X012210Y040601D01*
X012050Y040441D02*
X012050Y040761D01*
X013050Y041641D02*
X013050Y041961D01*
X012890Y041801D02*
X013210Y041801D01*
X012769Y042353D02*
X012769Y042668D01*
X010013Y042668D01*
X010013Y042353D01*
D19*
X009976Y039921D02*
X009862Y039921D01*
X009806Y039864D01*
X009806Y039637D01*
X009862Y039581D01*
X009976Y039581D01*
X010032Y039637D01*
X010174Y039581D02*
X010401Y039807D01*
X010401Y039864D01*
X010344Y039921D01*
X010231Y039921D01*
X010174Y039864D01*
X010032Y039864D02*
X009976Y039921D01*
X009673Y039921D02*
X009560Y039921D01*
X009617Y039921D02*
X009617Y039581D01*
X009673Y039581D02*
X009560Y039581D01*
X010174Y039581D02*
X010401Y039581D01*
X009030Y038901D02*
X009030Y038101D01*
X009028Y038084D01*
X009024Y038067D01*
X009017Y038051D01*
X009007Y038037D01*
X008994Y038024D01*
X008980Y038014D01*
X008964Y038007D01*
X008947Y038003D01*
X008930Y038001D01*
X006230Y038001D01*
X006213Y038003D01*
X006196Y038007D01*
X006180Y038014D01*
X006166Y038024D01*
X006153Y038037D01*
X006143Y038051D01*
X006136Y038067D01*
X006132Y038084D01*
X006130Y038101D01*
X006130Y038901D01*
X006132Y038918D01*
X006136Y038935D01*
X006143Y038951D01*
X006153Y038965D01*
X006166Y038978D01*
X006180Y038988D01*
X006196Y038995D01*
X006213Y038999D01*
X006230Y039001D01*
X008930Y039001D01*
X008947Y038999D01*
X008964Y038995D01*
X008980Y038988D01*
X008994Y038978D01*
X009007Y038965D01*
X009017Y038951D01*
X009024Y038935D01*
X009028Y038918D01*
X009030Y038901D01*
X008180Y038501D02*
X007700Y038501D01*
X007450Y038501D02*
X006980Y038501D01*
X006050Y038619D02*
X005993Y038562D01*
X005937Y038562D01*
X005880Y038619D01*
X005880Y038732D01*
X005937Y038789D01*
X005993Y038789D01*
X006050Y038732D01*
X006050Y038619D01*
X005880Y038619D02*
X005823Y038562D01*
X005766Y038562D01*
X005710Y038619D01*
X005710Y038732D01*
X005766Y038789D01*
X005823Y038789D01*
X005880Y038732D01*
X005993Y038421D02*
X006050Y038364D01*
X006050Y038251D01*
X005993Y038194D01*
X005766Y038194D01*
X005710Y038251D01*
X005710Y038364D01*
X005766Y038421D01*
X006230Y037501D02*
X008930Y037501D01*
X008947Y037499D01*
X008964Y037495D01*
X008980Y037488D01*
X008994Y037478D01*
X009007Y037465D01*
X009017Y037451D01*
X009024Y037435D01*
X009028Y037418D01*
X009030Y037401D01*
X009030Y036601D01*
X009028Y036584D01*
X009024Y036567D01*
X009017Y036551D01*
X009007Y036537D01*
X008994Y036524D01*
X008980Y036514D01*
X008964Y036507D01*
X008947Y036503D01*
X008930Y036501D01*
X006230Y036501D01*
X006213Y036503D01*
X006196Y036507D01*
X006180Y036514D01*
X006166Y036524D01*
X006153Y036537D01*
X006143Y036551D01*
X006136Y036567D01*
X006132Y036584D01*
X006130Y036601D01*
X006130Y037401D01*
X006132Y037418D01*
X006136Y037435D01*
X006143Y037451D01*
X006153Y037465D01*
X006166Y037478D01*
X006180Y037488D01*
X006196Y037495D01*
X006213Y037499D01*
X006230Y037501D01*
X006050Y037062D02*
X005993Y037062D01*
X005766Y037289D01*
X005710Y037289D01*
X005710Y037062D01*
X005766Y036921D02*
X005710Y036864D01*
X005710Y036751D01*
X005766Y036694D01*
X005993Y036694D01*
X006050Y036751D01*
X006050Y036864D01*
X005993Y036921D01*
X005648Y036371D02*
X005535Y036371D01*
X005478Y036314D01*
X005478Y036257D01*
X005535Y036201D01*
X005705Y036201D01*
X005705Y036314D02*
X005648Y036371D01*
X005705Y036314D02*
X005705Y036087D01*
X005648Y036031D01*
X005535Y036031D01*
X005478Y036087D01*
X005337Y036087D02*
X005280Y036031D01*
X005167Y036031D01*
X005110Y036087D01*
X005110Y036314D01*
X005167Y036371D01*
X005280Y036371D01*
X005337Y036314D01*
X005150Y034789D02*
X005150Y034562D01*
X005150Y034676D02*
X004810Y034676D01*
X004923Y034562D01*
X005150Y034421D02*
X005150Y034194D01*
X004810Y034194D01*
X006980Y037001D02*
X007450Y037001D01*
X007700Y037001D02*
X008180Y037001D01*
X010830Y035351D02*
X010830Y032651D01*
X010832Y032634D01*
X010836Y032617D01*
X010843Y032601D01*
X010853Y032587D01*
X010866Y032574D01*
X010880Y032564D01*
X010896Y032557D01*
X010913Y032553D01*
X010930Y032551D01*
X011730Y032551D01*
X011747Y032553D01*
X011764Y032557D01*
X011780Y032564D01*
X011794Y032574D01*
X011807Y032587D01*
X011817Y032601D01*
X011824Y032617D01*
X011828Y032634D01*
X011830Y032651D01*
X011830Y035351D01*
X011828Y035368D01*
X011824Y035385D01*
X011817Y035401D01*
X011807Y035415D01*
X011794Y035428D01*
X011780Y035438D01*
X011764Y035445D01*
X011747Y035449D01*
X011730Y035451D01*
X010930Y035451D01*
X010913Y035449D01*
X010896Y035445D01*
X010880Y035438D01*
X010866Y035428D01*
X010853Y035415D01*
X010843Y035401D01*
X010836Y035385D01*
X010832Y035368D01*
X010830Y035351D01*
X011330Y034601D02*
X011330Y034121D01*
X011330Y033871D02*
X011330Y033401D01*
X012080Y033201D02*
X012080Y033051D01*
X012082Y033034D01*
X012086Y033017D01*
X012093Y033001D01*
X012103Y032987D01*
X012116Y032974D01*
X012130Y032964D01*
X012146Y032957D01*
X012163Y032953D01*
X012180Y032951D01*
X012780Y032951D01*
X012797Y032953D01*
X012814Y032957D01*
X012830Y032964D01*
X012844Y032974D01*
X012857Y032987D01*
X012867Y033001D01*
X012874Y033017D01*
X012878Y033034D01*
X012880Y033051D01*
X012880Y033201D01*
X012830Y033251D01*
X012830Y034651D01*
X012880Y034701D01*
X012880Y034851D01*
X012878Y034868D01*
X012874Y034885D01*
X012867Y034901D01*
X012857Y034915D01*
X012844Y034928D01*
X012830Y034938D01*
X012814Y034945D01*
X012797Y034949D01*
X012780Y034951D01*
X012180Y034951D01*
X012163Y034949D01*
X012146Y034945D01*
X012130Y034938D01*
X012116Y034928D01*
X012103Y034915D01*
X012093Y034901D01*
X012086Y034885D01*
X012082Y034868D01*
X012080Y034851D01*
X012080Y034701D01*
X012130Y034651D01*
X012130Y033251D01*
X012080Y033201D01*
X012320Y033744D02*
X012320Y033914D01*
X012376Y033971D01*
X012490Y033971D01*
X012547Y033914D01*
X012547Y033744D01*
X012660Y033744D02*
X012320Y033744D01*
X012547Y033857D02*
X012660Y033971D01*
X012603Y034112D02*
X012660Y034169D01*
X012660Y034282D01*
X012603Y034339D01*
X012547Y034339D01*
X012490Y034282D01*
X012490Y034226D01*
X012490Y034282D02*
X012433Y034339D01*
X012376Y034339D01*
X012320Y034282D01*
X012320Y034169D01*
X012376Y034112D01*
X011605Y032421D02*
X011378Y032421D01*
X011378Y032251D01*
X011492Y032307D01*
X011548Y032307D01*
X011605Y032251D01*
X011605Y032137D01*
X011548Y032081D01*
X011435Y032081D01*
X011378Y032137D01*
X011237Y032137D02*
X011180Y032081D01*
X011067Y032081D01*
X011010Y032137D01*
X011010Y032364D01*
X011067Y032421D01*
X011180Y032421D01*
X011237Y032364D01*
X013210Y032269D02*
X013380Y032099D01*
X013380Y032326D01*
X013550Y032269D02*
X013210Y032269D01*
X013266Y031957D02*
X013210Y031901D01*
X013210Y031787D01*
X013266Y031731D01*
X013493Y031731D01*
X013550Y031787D01*
X013550Y031901D01*
X013493Y031957D01*
X013630Y031601D02*
X013630Y032401D01*
X013632Y032418D01*
X013636Y032435D01*
X013643Y032451D01*
X013653Y032465D01*
X013666Y032478D01*
X013680Y032488D01*
X013696Y032495D01*
X013713Y032499D01*
X013730Y032501D01*
X016430Y032501D01*
X016447Y032499D01*
X016464Y032495D01*
X016480Y032488D01*
X016494Y032478D01*
X016507Y032465D01*
X016517Y032451D01*
X016524Y032435D01*
X016528Y032418D01*
X016530Y032401D01*
X016530Y031601D01*
X016528Y031584D01*
X016524Y031567D01*
X016517Y031551D01*
X016507Y031537D01*
X016494Y031524D01*
X016480Y031514D01*
X016464Y031507D01*
X016447Y031503D01*
X016430Y031501D01*
X013730Y031501D01*
X013713Y031503D01*
X013696Y031507D01*
X013680Y031514D01*
X013666Y031524D01*
X013653Y031537D01*
X013643Y031551D01*
X013636Y031567D01*
X013632Y031584D01*
X013630Y031601D01*
X014480Y032001D02*
X014960Y032001D01*
X015210Y032001D02*
X015680Y032001D01*
X015380Y032601D02*
X016230Y032601D01*
X016230Y043001D01*
X014030Y043001D01*
X014030Y032601D01*
X014880Y032601D01*
X014882Y032631D01*
X014887Y032661D01*
X014896Y032690D01*
X014909Y032717D01*
X014924Y032743D01*
X014943Y032767D01*
X014964Y032788D01*
X014988Y032807D01*
X015014Y032822D01*
X015041Y032835D01*
X015070Y032844D01*
X015100Y032849D01*
X015130Y032851D01*
X015160Y032849D01*
X015190Y032844D01*
X015219Y032835D01*
X015246Y032822D01*
X015272Y032807D01*
X015296Y032788D01*
X015317Y032767D01*
X015336Y032743D01*
X015351Y032717D01*
X015364Y032690D01*
X015373Y032661D01*
X015378Y032631D01*
X015380Y032601D01*
X015419Y033111D02*
X015192Y033111D01*
X015305Y033111D02*
X015305Y033451D01*
X015192Y033337D01*
X015050Y033394D02*
X014994Y033451D01*
X014880Y033451D01*
X014823Y033394D01*
X014823Y033167D01*
X014880Y033111D01*
X014994Y033111D01*
X015050Y033167D01*
X014691Y033111D02*
X014578Y033111D01*
X014635Y033111D02*
X014635Y033451D01*
X014691Y033451D02*
X014578Y033451D01*
X017360Y033537D02*
X017416Y033481D01*
X017643Y033481D01*
X017700Y033537D01*
X017700Y033651D01*
X017643Y033707D01*
X017700Y033849D02*
X017473Y034076D01*
X017416Y034076D01*
X017360Y034019D01*
X017360Y033906D01*
X017416Y033849D01*
X017416Y033707D02*
X017360Y033651D01*
X017360Y033537D01*
X017700Y033849D02*
X017700Y034076D01*
X017880Y034151D02*
X017880Y033351D01*
X017882Y033334D01*
X017886Y033317D01*
X017893Y033301D01*
X017903Y033287D01*
X017916Y033274D01*
X017930Y033264D01*
X017946Y033257D01*
X017963Y033253D01*
X017980Y033251D01*
X020680Y033251D01*
X020697Y033253D01*
X020714Y033257D01*
X020730Y033264D01*
X020744Y033274D01*
X020757Y033287D01*
X020767Y033301D01*
X020774Y033317D01*
X020778Y033334D01*
X020780Y033351D01*
X020780Y034151D01*
X020778Y034168D01*
X020774Y034185D01*
X020767Y034201D01*
X020757Y034215D01*
X020744Y034228D01*
X020730Y034238D01*
X020714Y034245D01*
X020697Y034249D01*
X020680Y034251D01*
X017980Y034251D01*
X017963Y034249D01*
X017946Y034245D01*
X017930Y034238D01*
X017916Y034228D01*
X017903Y034215D01*
X017893Y034201D01*
X017886Y034185D01*
X017882Y034168D01*
X017880Y034151D01*
X018730Y033751D02*
X019210Y033751D01*
X019460Y033751D02*
X019930Y033751D01*
X018880Y034851D02*
X021280Y034851D01*
X021330Y034853D01*
X021379Y034859D01*
X021428Y034868D01*
X021476Y034881D01*
X021523Y034898D01*
X021568Y034918D01*
X021612Y034942D01*
X021654Y034969D01*
X021694Y035000D01*
X021731Y035033D01*
X021765Y035069D01*
X021797Y035107D01*
X021826Y035148D01*
X021851Y035190D01*
X021873Y035235D01*
X021892Y035281D01*
X021907Y035329D01*
X021918Y035377D01*
X021926Y035426D01*
X021930Y035476D01*
X021930Y035526D01*
X021926Y035576D01*
X021918Y035625D01*
X021907Y035673D01*
X021892Y035721D01*
X021873Y035767D01*
X021851Y035812D01*
X021826Y035854D01*
X021797Y035895D01*
X021765Y035933D01*
X021731Y035969D01*
X021694Y036002D01*
X021654Y036033D01*
X021612Y036060D01*
X021568Y036084D01*
X021523Y036104D01*
X021476Y036121D01*
X021428Y036134D01*
X021379Y036143D01*
X021330Y036149D01*
X021280Y036151D01*
X018880Y036151D01*
X018330Y036251D02*
X018330Y038951D01*
X018328Y038968D01*
X018324Y038985D01*
X018317Y039001D01*
X018307Y039015D01*
X018294Y039028D01*
X018280Y039038D01*
X018264Y039045D01*
X018247Y039049D01*
X018230Y039051D01*
X017430Y039051D01*
X017413Y039049D01*
X017396Y039045D01*
X017380Y039038D01*
X017366Y039028D01*
X017353Y039015D01*
X017343Y039001D01*
X017336Y038985D01*
X017332Y038968D01*
X017330Y038951D01*
X017330Y036251D01*
X017332Y036234D01*
X017336Y036217D01*
X017343Y036201D01*
X017353Y036187D01*
X017366Y036174D01*
X017380Y036164D01*
X017396Y036157D01*
X017413Y036153D01*
X017430Y036151D01*
X018230Y036151D01*
X018247Y036153D01*
X018264Y036157D01*
X018280Y036164D01*
X018294Y036174D01*
X018307Y036187D01*
X018317Y036201D01*
X018324Y036217D01*
X018328Y036234D01*
X018330Y036251D01*
X017750Y035982D02*
X017750Y035869D01*
X017693Y035812D01*
X017693Y035671D02*
X017750Y035614D01*
X017750Y035501D01*
X017693Y035444D01*
X017466Y035444D01*
X017410Y035501D01*
X017410Y035614D01*
X017466Y035671D01*
X017466Y035812D02*
X017410Y035869D01*
X017410Y035982D01*
X017466Y036039D01*
X017523Y036039D01*
X017580Y035982D01*
X017637Y036039D01*
X017693Y036039D01*
X017750Y035982D01*
X017580Y035982D02*
X017580Y035926D01*
X017830Y037001D02*
X017830Y037471D01*
X017830Y037721D02*
X017830Y038201D01*
X017530Y040001D02*
X018130Y040001D01*
X018147Y040003D01*
X018164Y040007D01*
X018180Y040014D01*
X018194Y040024D01*
X018207Y040037D01*
X018217Y040051D01*
X018224Y040067D01*
X018228Y040084D01*
X018230Y040101D01*
X018230Y040251D01*
X018180Y040301D01*
X018180Y041701D01*
X018230Y041751D01*
X018230Y041901D01*
X018228Y041918D01*
X018224Y041935D01*
X018217Y041951D01*
X018207Y041965D01*
X018194Y041978D01*
X018180Y041988D01*
X018164Y041995D01*
X018147Y041999D01*
X018130Y042001D01*
X017530Y042001D01*
X017513Y041999D01*
X017496Y041995D01*
X017480Y041988D01*
X017466Y041978D01*
X017453Y041965D01*
X017443Y041951D01*
X017436Y041935D01*
X017432Y041918D01*
X017430Y041901D01*
X017430Y041751D01*
X017480Y041701D01*
X017480Y040301D01*
X017430Y040251D01*
X017430Y040101D01*
X017432Y040084D01*
X017436Y040067D01*
X017443Y040051D01*
X017453Y040037D01*
X017466Y040024D01*
X017480Y040014D01*
X017496Y040007D01*
X017513Y040003D01*
X017530Y040001D01*
X019830Y035801D02*
X019830Y035501D01*
X019580Y035501D01*
X019830Y035501D02*
X019830Y035201D01*
X019980Y035201D02*
X019980Y035801D01*
X020180Y035801D01*
X020180Y035201D01*
X019980Y035201D01*
X020330Y035201D02*
X020330Y035501D01*
X020580Y035501D01*
X020330Y035501D02*
X020330Y035801D01*
X018880Y036151D02*
X018830Y036149D01*
X018781Y036143D01*
X018732Y036134D01*
X018684Y036121D01*
X018637Y036104D01*
X018592Y036084D01*
X018548Y036060D01*
X018506Y036033D01*
X018466Y036002D01*
X018429Y035969D01*
X018395Y035933D01*
X018363Y035895D01*
X018334Y035854D01*
X018309Y035812D01*
X018287Y035767D01*
X018268Y035721D01*
X018253Y035673D01*
X018242Y035625D01*
X018234Y035576D01*
X018230Y035526D01*
X018230Y035476D01*
X018234Y035426D01*
X018242Y035377D01*
X018253Y035329D01*
X018268Y035281D01*
X018287Y035235D01*
X018309Y035190D01*
X018334Y035148D01*
X018363Y035107D01*
X018395Y035069D01*
X018429Y035033D01*
X018466Y035000D01*
X018506Y034969D01*
X018548Y034942D01*
X018592Y034918D01*
X018637Y034898D01*
X018684Y034881D01*
X018732Y034868D01*
X018781Y034859D01*
X018830Y034853D01*
X018880Y034851D01*
X021830Y034051D02*
X021830Y033451D01*
X021832Y033434D01*
X021836Y033417D01*
X021843Y033401D01*
X021853Y033387D01*
X021866Y033374D01*
X021880Y033364D01*
X021896Y033357D01*
X021913Y033353D01*
X021930Y033351D01*
X022080Y033351D01*
X022130Y033401D01*
X023530Y033401D01*
X023580Y033351D01*
X023730Y033351D01*
X023747Y033353D01*
X023764Y033357D01*
X023780Y033364D01*
X023794Y033374D01*
X023807Y033387D01*
X023817Y033401D01*
X023824Y033417D01*
X023828Y033434D01*
X023830Y033451D01*
X023830Y034051D01*
X023828Y034068D01*
X023824Y034085D01*
X023817Y034101D01*
X023807Y034115D01*
X023794Y034128D01*
X023780Y034138D01*
X023764Y034145D01*
X023747Y034149D01*
X023730Y034151D01*
X023580Y034151D01*
X023530Y034101D01*
X022130Y034101D01*
X022080Y034151D01*
X021930Y034151D01*
X021913Y034149D01*
X021896Y034145D01*
X021880Y034138D01*
X021866Y034128D01*
X021853Y034115D01*
X021843Y034101D01*
X021836Y034085D01*
X021832Y034068D01*
X021830Y034051D01*
X022460Y034191D02*
X022460Y034531D01*
X022630Y034531D01*
X022687Y034474D01*
X022687Y034361D01*
X022630Y034304D01*
X022460Y034304D01*
X022573Y034304D02*
X022687Y034191D01*
X022828Y034191D02*
X023055Y034191D01*
X022942Y034191D02*
X022942Y034531D01*
X022828Y034417D01*
X022730Y035501D02*
X022732Y035546D01*
X022737Y035592D01*
X022745Y035636D01*
X022757Y035680D01*
X022773Y035723D01*
X022791Y035765D01*
X022813Y035805D01*
X022837Y035843D01*
X022864Y035879D01*
X022894Y035914D01*
X022927Y035945D01*
X022962Y035975D01*
X023930Y035501D02*
X023928Y035454D01*
X023922Y035406D01*
X023913Y035360D01*
X023900Y035314D01*
X023884Y035270D01*
X023863Y035226D01*
X023840Y035185D01*
X023814Y035146D01*
X023784Y035109D01*
X023751Y035074D01*
X023716Y035042D01*
X023679Y035013D01*
X023930Y035501D02*
X023928Y035547D01*
X023923Y035593D01*
X023914Y035639D01*
X023902Y035684D01*
X023886Y035727D01*
X023867Y035769D01*
X023844Y035810D01*
X023819Y035849D01*
X023791Y035885D01*
X023760Y035920D01*
X023726Y035952D01*
X023690Y035981D01*
X022730Y035501D02*
X022732Y035456D01*
X022737Y035410D01*
X022745Y035366D01*
X022757Y035322D01*
X022773Y035279D01*
X022791Y035237D01*
X022813Y035197D01*
X022837Y035159D01*
X022864Y035123D01*
X022894Y035088D01*
X022927Y035057D01*
X022962Y035027D01*
X026130Y039851D02*
X026930Y039851D01*
X026947Y039853D01*
X026964Y039857D01*
X026980Y039864D01*
X026994Y039874D01*
X027007Y039887D01*
X027017Y039901D01*
X027024Y039917D01*
X027028Y039934D01*
X027030Y039951D01*
X027030Y042651D01*
X027028Y042668D01*
X027024Y042685D01*
X027017Y042701D01*
X027007Y042715D01*
X026994Y042728D01*
X026980Y042738D01*
X026964Y042745D01*
X026947Y042749D01*
X026930Y042751D01*
X026130Y042751D01*
X026113Y042749D01*
X026096Y042745D01*
X026080Y042738D01*
X026066Y042728D01*
X026053Y042715D01*
X026043Y042701D01*
X026036Y042685D01*
X026032Y042668D01*
X026030Y042651D01*
X026030Y039951D01*
X026032Y039934D01*
X026036Y039917D01*
X026043Y039901D01*
X026053Y039887D01*
X026066Y039874D01*
X026080Y039864D01*
X026096Y039857D01*
X026113Y039853D01*
X026130Y039851D01*
X026530Y040701D02*
X026530Y041181D01*
X026530Y041431D02*
X026530Y041901D01*
X027160Y040862D02*
X027500Y040862D01*
X027500Y040749D02*
X027500Y040976D01*
X027273Y040749D02*
X027160Y040862D01*
X027216Y040607D02*
X027160Y040551D01*
X027160Y040437D01*
X027216Y040381D01*
X027443Y040381D01*
X027500Y040437D01*
X027500Y040551D01*
X027443Y040607D01*
X017448Y027387D02*
X017212Y027387D01*
X017212Y026914D02*
X017448Y026914D01*
X014879Y026005D02*
X013081Y026005D01*
X013081Y028497D01*
X014879Y028497D01*
X014879Y026005D01*
X014280Y026355D02*
X014282Y026381D01*
X014288Y026407D01*
X014297Y026431D01*
X014310Y026454D01*
X014326Y026475D01*
X014345Y026493D01*
X014366Y026509D01*
X014390Y026521D01*
X014414Y026529D01*
X014440Y026534D01*
X014467Y026535D01*
X014493Y026532D01*
X014518Y026525D01*
X014542Y026515D01*
X014565Y026501D01*
X014585Y026485D01*
X014602Y026465D01*
X014617Y026443D01*
X014628Y026419D01*
X014636Y026394D01*
X014640Y026368D01*
X014640Y026342D01*
X014636Y026316D01*
X014628Y026291D01*
X014617Y026267D01*
X014602Y026245D01*
X014585Y026225D01*
X014565Y026209D01*
X014542Y026195D01*
X014518Y026185D01*
X014493Y026178D01*
X014467Y026175D01*
X014440Y026176D01*
X014414Y026181D01*
X014390Y026189D01*
X014366Y026201D01*
X014345Y026217D01*
X014326Y026235D01*
X014310Y026256D01*
X014297Y026279D01*
X014288Y026303D01*
X014282Y026329D01*
X014280Y026355D01*
X011430Y036151D02*
X011430Y036251D01*
X011330Y036251D01*
X011430Y036251D02*
X011430Y036351D01*
X011430Y036251D02*
X011530Y036251D01*
X010930Y036801D02*
X010932Y036864D01*
X010938Y036926D01*
X010948Y036988D01*
X010961Y037050D01*
X010979Y037110D01*
X011000Y037169D01*
X011025Y037227D01*
X011054Y037283D01*
X011086Y037337D01*
X011121Y037389D01*
X011159Y037438D01*
X011201Y037486D01*
X011245Y037530D01*
X011293Y037572D01*
X011342Y037610D01*
X011394Y037645D01*
X011448Y037677D01*
X011504Y037706D01*
X011562Y037731D01*
X011621Y037752D01*
X011681Y037770D01*
X011743Y037783D01*
X011805Y037793D01*
X011867Y037799D01*
X011930Y037801D01*
X011993Y037799D01*
X012055Y037793D01*
X012117Y037783D01*
X012179Y037770D01*
X012239Y037752D01*
X012298Y037731D01*
X012356Y037706D01*
X012412Y037677D01*
X012466Y037645D01*
X012518Y037610D01*
X012567Y037572D01*
X012615Y037530D01*
X012659Y037486D01*
X012701Y037438D01*
X012739Y037389D01*
X012774Y037337D01*
X012806Y037283D01*
X012835Y037227D01*
X012860Y037169D01*
X012881Y037110D01*
X012899Y037050D01*
X012912Y036988D01*
X012922Y036926D01*
X012928Y036864D01*
X012930Y036801D01*
X012928Y036738D01*
X012922Y036676D01*
X012912Y036614D01*
X012899Y036552D01*
X012881Y036492D01*
X012860Y036433D01*
X012835Y036375D01*
X012806Y036319D01*
X012774Y036265D01*
X012739Y036213D01*
X012701Y036164D01*
X012659Y036116D01*
X012615Y036072D01*
X012567Y036030D01*
X012518Y035992D01*
X012466Y035957D01*
X012412Y035925D01*
X012356Y035896D01*
X012298Y035871D01*
X012239Y035850D01*
X012179Y035832D01*
X012117Y035819D01*
X012055Y035809D01*
X011993Y035803D01*
X011930Y035801D01*
X011867Y035803D01*
X011805Y035809D01*
X011743Y035819D01*
X011681Y035832D01*
X011621Y035850D01*
X011562Y035871D01*
X011504Y035896D01*
X011448Y035925D01*
X011394Y035957D01*
X011342Y035992D01*
X011293Y036030D01*
X011245Y036072D01*
X011201Y036116D01*
X011159Y036164D01*
X011121Y036213D01*
X011086Y036265D01*
X011054Y036319D01*
X011025Y036375D01*
X011000Y036433D01*
X010979Y036492D01*
X010961Y036552D01*
X010948Y036614D01*
X010938Y036676D01*
X010932Y036738D01*
X010930Y036801D01*
X012216Y038081D02*
X012443Y038081D01*
X012500Y038137D01*
X012500Y038251D01*
X012443Y038307D01*
X012443Y038449D02*
X012500Y038506D01*
X012500Y038619D01*
X012443Y038676D01*
X012387Y038676D01*
X012330Y038619D01*
X012330Y038449D01*
X012443Y038449D01*
X012330Y038449D02*
X012216Y038562D01*
X012160Y038676D01*
X012216Y038307D02*
X012160Y038251D01*
X012160Y038137D01*
X012216Y038081D01*
X001730Y020051D02*
X001732Y020124D01*
X001738Y020197D01*
X001748Y020269D01*
X001762Y020341D01*
X001779Y020412D01*
X001801Y020482D01*
X001826Y020551D01*
X001855Y020618D01*
X001887Y020683D01*
X001923Y020747D01*
X001963Y020809D01*
X002005Y020868D01*
X002051Y020925D01*
X002100Y020979D01*
X002152Y021031D01*
X002206Y021080D01*
X002263Y021126D01*
X002322Y021168D01*
X002384Y021208D01*
X002448Y021244D01*
X002513Y021276D01*
X002580Y021305D01*
X002649Y021330D01*
X002719Y021352D01*
X002790Y021369D01*
X002862Y021383D01*
X002934Y021393D01*
X003007Y021399D01*
X003080Y021401D01*
X003153Y021399D01*
X003226Y021393D01*
X003298Y021383D01*
X003370Y021369D01*
X003441Y021352D01*
X003511Y021330D01*
X003580Y021305D01*
X003647Y021276D01*
X003712Y021244D01*
X003776Y021208D01*
X003838Y021168D01*
X003897Y021126D01*
X003954Y021080D01*
X004008Y021031D01*
X004060Y020979D01*
X004109Y020925D01*
X004155Y020868D01*
X004197Y020809D01*
X004237Y020747D01*
X004273Y020683D01*
X004305Y020618D01*
X004334Y020551D01*
X004359Y020482D01*
X004381Y020412D01*
X004398Y020341D01*
X004412Y020269D01*
X004422Y020197D01*
X004428Y020124D01*
X004430Y020051D01*
X004428Y019978D01*
X004422Y019905D01*
X004412Y019833D01*
X004398Y019761D01*
X004381Y019690D01*
X004359Y019620D01*
X004334Y019551D01*
X004305Y019484D01*
X004273Y019419D01*
X004237Y019355D01*
X004197Y019293D01*
X004155Y019234D01*
X004109Y019177D01*
X004060Y019123D01*
X004008Y019071D01*
X003954Y019022D01*
X003897Y018976D01*
X003838Y018934D01*
X003776Y018894D01*
X003712Y018858D01*
X003647Y018826D01*
X003580Y018797D01*
X003511Y018772D01*
X003441Y018750D01*
X003370Y018733D01*
X003298Y018719D01*
X003226Y018709D01*
X003153Y018703D01*
X003080Y018701D01*
X003007Y018703D01*
X002934Y018709D01*
X002862Y018719D01*
X002790Y018733D01*
X002719Y018750D01*
X002649Y018772D01*
X002580Y018797D01*
X002513Y018826D01*
X002448Y018858D01*
X002384Y018894D01*
X002322Y018934D01*
X002263Y018976D01*
X002206Y019022D01*
X002152Y019071D01*
X002100Y019123D01*
X002051Y019177D01*
X002005Y019234D01*
X001963Y019293D01*
X001923Y019355D01*
X001887Y019419D01*
X001855Y019484D01*
X001826Y019551D01*
X001801Y019620D01*
X001779Y019690D01*
X001762Y019761D01*
X001748Y019833D01*
X001738Y019905D01*
X001732Y019978D01*
X001730Y020051D01*
X009080Y009551D02*
X009082Y009614D01*
X009088Y009676D01*
X009098Y009738D01*
X009111Y009800D01*
X009129Y009860D01*
X009150Y009919D01*
X009175Y009977D01*
X009204Y010033D01*
X009236Y010087D01*
X009271Y010139D01*
X009309Y010188D01*
X009351Y010236D01*
X009395Y010280D01*
X009443Y010322D01*
X009492Y010360D01*
X009544Y010395D01*
X009598Y010427D01*
X009654Y010456D01*
X009712Y010481D01*
X009771Y010502D01*
X009831Y010520D01*
X009893Y010533D01*
X009955Y010543D01*
X010017Y010549D01*
X010080Y010551D01*
X010143Y010549D01*
X010205Y010543D01*
X010267Y010533D01*
X010329Y010520D01*
X010389Y010502D01*
X010448Y010481D01*
X010506Y010456D01*
X010562Y010427D01*
X010616Y010395D01*
X010668Y010360D01*
X010717Y010322D01*
X010765Y010280D01*
X010809Y010236D01*
X010851Y010188D01*
X010889Y010139D01*
X010924Y010087D01*
X010956Y010033D01*
X010985Y009977D01*
X011010Y009919D01*
X011031Y009860D01*
X011049Y009800D01*
X011062Y009738D01*
X011072Y009676D01*
X011078Y009614D01*
X011080Y009551D01*
X011078Y009488D01*
X011072Y009426D01*
X011062Y009364D01*
X011049Y009302D01*
X011031Y009242D01*
X011010Y009183D01*
X010985Y009125D01*
X010956Y009069D01*
X010924Y009015D01*
X010889Y008963D01*
X010851Y008914D01*
X010809Y008866D01*
X010765Y008822D01*
X010717Y008780D01*
X010668Y008742D01*
X010616Y008707D01*
X010562Y008675D01*
X010506Y008646D01*
X010448Y008621D01*
X010389Y008600D01*
X010329Y008582D01*
X010267Y008569D01*
X010205Y008559D01*
X010143Y008553D01*
X010080Y008551D01*
X010017Y008553D01*
X009955Y008559D01*
X009893Y008569D01*
X009831Y008582D01*
X009771Y008600D01*
X009712Y008621D01*
X009654Y008646D01*
X009598Y008675D01*
X009544Y008707D01*
X009492Y008742D01*
X009443Y008780D01*
X009395Y008822D01*
X009351Y008866D01*
X009309Y008914D01*
X009271Y008963D01*
X009236Y009015D01*
X009204Y009069D01*
X009175Y009125D01*
X009150Y009183D01*
X009129Y009242D01*
X009111Y009302D01*
X009098Y009364D01*
X009088Y009426D01*
X009082Y009488D01*
X009080Y009551D01*
X013580Y010151D02*
X013627Y010149D01*
X013675Y010143D01*
X013721Y010134D01*
X013767Y010121D01*
X013811Y010105D01*
X013855Y010084D01*
X013896Y010061D01*
X013935Y010035D01*
X013972Y010005D01*
X014007Y009972D01*
X014039Y009937D01*
X014068Y009900D01*
X013580Y008951D02*
X013535Y008953D01*
X013489Y008958D01*
X013445Y008966D01*
X013401Y008978D01*
X013358Y008994D01*
X013316Y009012D01*
X013276Y009034D01*
X013238Y009058D01*
X013202Y009085D01*
X013167Y009115D01*
X013136Y009148D01*
X013106Y009183D01*
X013580Y008951D02*
X013625Y008953D01*
X013671Y008958D01*
X013715Y008966D01*
X013759Y008978D01*
X013802Y008994D01*
X013844Y009012D01*
X013884Y009034D01*
X013922Y009058D01*
X013958Y009085D01*
X013993Y009115D01*
X014024Y009148D01*
X014054Y009183D01*
X013580Y010151D02*
X013534Y010149D01*
X013488Y010144D01*
X013442Y010135D01*
X013397Y010123D01*
X013354Y010107D01*
X013312Y010088D01*
X013271Y010065D01*
X013232Y010040D01*
X013196Y010012D01*
X013161Y009981D01*
X013129Y009947D01*
X013100Y009911D01*
X018080Y010151D02*
X018127Y010149D01*
X018175Y010143D01*
X018221Y010134D01*
X018267Y010121D01*
X018311Y010105D01*
X018355Y010084D01*
X018396Y010061D01*
X018435Y010035D01*
X018472Y010005D01*
X018507Y009972D01*
X018539Y009937D01*
X018568Y009900D01*
X018080Y008951D02*
X018035Y008953D01*
X017989Y008958D01*
X017945Y008966D01*
X017901Y008978D01*
X017858Y008994D01*
X017816Y009012D01*
X017776Y009034D01*
X017738Y009058D01*
X017702Y009085D01*
X017667Y009115D01*
X017636Y009148D01*
X017606Y009183D01*
X018080Y008951D02*
X018125Y008953D01*
X018171Y008958D01*
X018215Y008966D01*
X018259Y008978D01*
X018302Y008994D01*
X018344Y009012D01*
X018384Y009034D01*
X018422Y009058D01*
X018458Y009085D01*
X018493Y009115D01*
X018524Y009148D01*
X018554Y009183D01*
X018080Y010151D02*
X018034Y010149D01*
X017988Y010144D01*
X017942Y010135D01*
X017897Y010123D01*
X017854Y010107D01*
X017812Y010088D01*
X017771Y010065D01*
X017732Y010040D01*
X017696Y010012D01*
X017661Y009981D01*
X017629Y009947D01*
X017600Y009911D01*
X027230Y005551D02*
X027232Y005624D01*
X027238Y005697D01*
X027248Y005769D01*
X027262Y005841D01*
X027279Y005912D01*
X027301Y005982D01*
X027326Y006051D01*
X027355Y006118D01*
X027387Y006183D01*
X027423Y006247D01*
X027463Y006309D01*
X027505Y006368D01*
X027551Y006425D01*
X027600Y006479D01*
X027652Y006531D01*
X027706Y006580D01*
X027763Y006626D01*
X027822Y006668D01*
X027884Y006708D01*
X027948Y006744D01*
X028013Y006776D01*
X028080Y006805D01*
X028149Y006830D01*
X028219Y006852D01*
X028290Y006869D01*
X028362Y006883D01*
X028434Y006893D01*
X028507Y006899D01*
X028580Y006901D01*
X028653Y006899D01*
X028726Y006893D01*
X028798Y006883D01*
X028870Y006869D01*
X028941Y006852D01*
X029011Y006830D01*
X029080Y006805D01*
X029147Y006776D01*
X029212Y006744D01*
X029276Y006708D01*
X029338Y006668D01*
X029397Y006626D01*
X029454Y006580D01*
X029508Y006531D01*
X029560Y006479D01*
X029609Y006425D01*
X029655Y006368D01*
X029697Y006309D01*
X029737Y006247D01*
X029773Y006183D01*
X029805Y006118D01*
X029834Y006051D01*
X029859Y005982D01*
X029881Y005912D01*
X029898Y005841D01*
X029912Y005769D01*
X029922Y005697D01*
X029928Y005624D01*
X029930Y005551D01*
X029928Y005478D01*
X029922Y005405D01*
X029912Y005333D01*
X029898Y005261D01*
X029881Y005190D01*
X029859Y005120D01*
X029834Y005051D01*
X029805Y004984D01*
X029773Y004919D01*
X029737Y004855D01*
X029697Y004793D01*
X029655Y004734D01*
X029609Y004677D01*
X029560Y004623D01*
X029508Y004571D01*
X029454Y004522D01*
X029397Y004476D01*
X029338Y004434D01*
X029276Y004394D01*
X029212Y004358D01*
X029147Y004326D01*
X029080Y004297D01*
X029011Y004272D01*
X028941Y004250D01*
X028870Y004233D01*
X028798Y004219D01*
X028726Y004209D01*
X028653Y004203D01*
X028580Y004201D01*
X028507Y004203D01*
X028434Y004209D01*
X028362Y004219D01*
X028290Y004233D01*
X028219Y004250D01*
X028149Y004272D01*
X028080Y004297D01*
X028013Y004326D01*
X027948Y004358D01*
X027884Y004394D01*
X027822Y004434D01*
X027763Y004476D01*
X027706Y004522D01*
X027652Y004571D01*
X027600Y004623D01*
X027551Y004677D01*
X027505Y004734D01*
X027463Y004793D01*
X027423Y004855D01*
X027387Y004919D01*
X027355Y004984D01*
X027326Y005051D01*
X027301Y005120D01*
X027279Y005190D01*
X027262Y005261D01*
X027248Y005333D01*
X027238Y005405D01*
X027232Y005478D01*
X027230Y005551D01*
X034694Y016483D02*
X034694Y016719D01*
X035166Y016719D02*
X035166Y016483D01*
X036584Y016352D02*
X036584Y018149D01*
X039076Y018149D01*
X039076Y016352D01*
X036584Y016352D01*
X036754Y016771D02*
X036756Y016797D01*
X036762Y016823D01*
X036771Y016847D01*
X036784Y016870D01*
X036800Y016891D01*
X036819Y016909D01*
X036840Y016925D01*
X036864Y016937D01*
X036888Y016945D01*
X036914Y016950D01*
X036941Y016951D01*
X036967Y016948D01*
X036992Y016941D01*
X037016Y016931D01*
X037039Y016917D01*
X037059Y016901D01*
X037076Y016881D01*
X037091Y016859D01*
X037102Y016835D01*
X037110Y016810D01*
X037114Y016784D01*
X037114Y016758D01*
X037110Y016732D01*
X037102Y016707D01*
X037091Y016683D01*
X037076Y016661D01*
X037059Y016641D01*
X037039Y016625D01*
X037016Y016611D01*
X036992Y016601D01*
X036967Y016594D01*
X036941Y016591D01*
X036914Y016592D01*
X036888Y016597D01*
X036864Y016605D01*
X036840Y016617D01*
X036819Y016633D01*
X036800Y016651D01*
X036784Y016672D01*
X036771Y016695D01*
X036762Y016719D01*
X036756Y016745D01*
X036754Y016771D01*
X027230Y020051D02*
X027232Y020124D01*
X027238Y020197D01*
X027248Y020269D01*
X027262Y020341D01*
X027279Y020412D01*
X027301Y020482D01*
X027326Y020551D01*
X027355Y020618D01*
X027387Y020683D01*
X027423Y020747D01*
X027463Y020809D01*
X027505Y020868D01*
X027551Y020925D01*
X027600Y020979D01*
X027652Y021031D01*
X027706Y021080D01*
X027763Y021126D01*
X027822Y021168D01*
X027884Y021208D01*
X027948Y021244D01*
X028013Y021276D01*
X028080Y021305D01*
X028149Y021330D01*
X028219Y021352D01*
X028290Y021369D01*
X028362Y021383D01*
X028434Y021393D01*
X028507Y021399D01*
X028580Y021401D01*
X028653Y021399D01*
X028726Y021393D01*
X028798Y021383D01*
X028870Y021369D01*
X028941Y021352D01*
X029011Y021330D01*
X029080Y021305D01*
X029147Y021276D01*
X029212Y021244D01*
X029276Y021208D01*
X029338Y021168D01*
X029397Y021126D01*
X029454Y021080D01*
X029508Y021031D01*
X029560Y020979D01*
X029609Y020925D01*
X029655Y020868D01*
X029697Y020809D01*
X029737Y020747D01*
X029773Y020683D01*
X029805Y020618D01*
X029834Y020551D01*
X029859Y020482D01*
X029881Y020412D01*
X029898Y020341D01*
X029912Y020269D01*
X029922Y020197D01*
X029928Y020124D01*
X029930Y020051D01*
X029928Y019978D01*
X029922Y019905D01*
X029912Y019833D01*
X029898Y019761D01*
X029881Y019690D01*
X029859Y019620D01*
X029834Y019551D01*
X029805Y019484D01*
X029773Y019419D01*
X029737Y019355D01*
X029697Y019293D01*
X029655Y019234D01*
X029609Y019177D01*
X029560Y019123D01*
X029508Y019071D01*
X029454Y019022D01*
X029397Y018976D01*
X029338Y018934D01*
X029276Y018894D01*
X029212Y018858D01*
X029147Y018826D01*
X029080Y018797D01*
X029011Y018772D01*
X028941Y018750D01*
X028870Y018733D01*
X028798Y018719D01*
X028726Y018709D01*
X028653Y018703D01*
X028580Y018701D01*
X028507Y018703D01*
X028434Y018709D01*
X028362Y018719D01*
X028290Y018733D01*
X028219Y018750D01*
X028149Y018772D01*
X028080Y018797D01*
X028013Y018826D01*
X027948Y018858D01*
X027884Y018894D01*
X027822Y018934D01*
X027763Y018976D01*
X027706Y019022D01*
X027652Y019071D01*
X027600Y019123D01*
X027551Y019177D01*
X027505Y019234D01*
X027463Y019293D01*
X027423Y019355D01*
X027387Y019419D01*
X027355Y019484D01*
X027326Y019551D01*
X027301Y019620D01*
X027279Y019690D01*
X027262Y019761D01*
X027248Y019833D01*
X027238Y019905D01*
X027232Y019978D01*
X027230Y020051D01*
X001730Y005551D02*
X001732Y005624D01*
X001738Y005697D01*
X001748Y005769D01*
X001762Y005841D01*
X001779Y005912D01*
X001801Y005982D01*
X001826Y006051D01*
X001855Y006118D01*
X001887Y006183D01*
X001923Y006247D01*
X001963Y006309D01*
X002005Y006368D01*
X002051Y006425D01*
X002100Y006479D01*
X002152Y006531D01*
X002206Y006580D01*
X002263Y006626D01*
X002322Y006668D01*
X002384Y006708D01*
X002448Y006744D01*
X002513Y006776D01*
X002580Y006805D01*
X002649Y006830D01*
X002719Y006852D01*
X002790Y006869D01*
X002862Y006883D01*
X002934Y006893D01*
X003007Y006899D01*
X003080Y006901D01*
X003153Y006899D01*
X003226Y006893D01*
X003298Y006883D01*
X003370Y006869D01*
X003441Y006852D01*
X003511Y006830D01*
X003580Y006805D01*
X003647Y006776D01*
X003712Y006744D01*
X003776Y006708D01*
X003838Y006668D01*
X003897Y006626D01*
X003954Y006580D01*
X004008Y006531D01*
X004060Y006479D01*
X004109Y006425D01*
X004155Y006368D01*
X004197Y006309D01*
X004237Y006247D01*
X004273Y006183D01*
X004305Y006118D01*
X004334Y006051D01*
X004359Y005982D01*
X004381Y005912D01*
X004398Y005841D01*
X004412Y005769D01*
X004422Y005697D01*
X004428Y005624D01*
X004430Y005551D01*
X004428Y005478D01*
X004422Y005405D01*
X004412Y005333D01*
X004398Y005261D01*
X004381Y005190D01*
X004359Y005120D01*
X004334Y005051D01*
X004305Y004984D01*
X004273Y004919D01*
X004237Y004855D01*
X004197Y004793D01*
X004155Y004734D01*
X004109Y004677D01*
X004060Y004623D01*
X004008Y004571D01*
X003954Y004522D01*
X003897Y004476D01*
X003838Y004434D01*
X003776Y004394D01*
X003712Y004358D01*
X003647Y004326D01*
X003580Y004297D01*
X003511Y004272D01*
X003441Y004250D01*
X003370Y004233D01*
X003298Y004219D01*
X003226Y004209D01*
X003153Y004203D01*
X003080Y004201D01*
X003007Y004203D01*
X002934Y004209D01*
X002862Y004219D01*
X002790Y004233D01*
X002719Y004250D01*
X002649Y004272D01*
X002580Y004297D01*
X002513Y004326D01*
X002448Y004358D01*
X002384Y004394D01*
X002322Y004434D01*
X002263Y004476D01*
X002206Y004522D01*
X002152Y004571D01*
X002100Y004623D01*
X002051Y004677D01*
X002005Y004734D01*
X001963Y004793D01*
X001923Y004855D01*
X001887Y004919D01*
X001855Y004984D01*
X001826Y005051D01*
X001801Y005120D01*
X001779Y005190D01*
X001762Y005261D01*
X001748Y005333D01*
X001738Y005405D01*
X001732Y005478D01*
X001730Y005551D01*
D20*
X011080Y008801D02*
X011037Y008747D01*
X010991Y008695D01*
X010942Y008646D01*
X010890Y008599D01*
X010836Y008556D01*
X010780Y008515D01*
X010721Y008478D01*
X010661Y008444D01*
X010598Y008414D01*
X010535Y008387D01*
X010469Y008363D01*
X010403Y008343D01*
X010335Y008327D01*
X010267Y008315D01*
X010198Y008307D01*
X010129Y008302D01*
X010059Y008301D01*
X009990Y008304D01*
X009921Y008311D01*
X009853Y008322D01*
X009785Y008336D01*
X009718Y008355D01*
X009652Y008377D01*
X009587Y008402D01*
X009524Y008431D01*
X009463Y008464D01*
X009404Y008500D01*
X009347Y008539D01*
X009291Y008581D01*
X009239Y008626D01*
X009189Y008674D01*
X009142Y008725D01*
X009097Y008779D01*
X009056Y008834D01*
X009018Y008892D01*
X008983Y008952D01*
X008951Y009014D01*
X008923Y009077D01*
X008899Y009142D01*
X008878Y009208D01*
X008861Y009276D01*
X008847Y009344D01*
X008838Y009413D01*
X008832Y009482D01*
X008830Y009551D01*
X008832Y009620D01*
X008838Y009689D01*
X008847Y009758D01*
X008861Y009826D01*
X008878Y009894D01*
X008899Y009960D01*
X008923Y010025D01*
X008951Y010088D01*
X008983Y010150D01*
X009018Y010210D01*
X009056Y010268D01*
X009097Y010323D01*
X009142Y010377D01*
X009189Y010428D01*
X009239Y010476D01*
X009291Y010521D01*
X009347Y010563D01*
X009404Y010602D01*
X009463Y010638D01*
X009524Y010671D01*
X009587Y010700D01*
X009652Y010725D01*
X009718Y010747D01*
X009785Y010766D01*
X009853Y010780D01*
X009921Y010791D01*
X009990Y010798D01*
X010059Y010801D01*
X010129Y010800D01*
X010198Y010795D01*
X010267Y010787D01*
X010335Y010775D01*
X010403Y010759D01*
X010469Y010739D01*
X010535Y010715D01*
X010598Y010688D01*
X010661Y010658D01*
X010721Y010624D01*
X010780Y010587D01*
X010836Y010546D01*
X010890Y010503D01*
X010942Y010456D01*
X010991Y010407D01*
X011037Y010355D01*
X011080Y010301D01*
X012885Y009154D02*
X012915Y009106D01*
X012948Y009061D01*
X012984Y009018D01*
X013022Y008977D01*
X013064Y008940D01*
X013108Y008905D01*
X013154Y008874D01*
X013203Y008845D01*
X013253Y008821D01*
X013305Y008800D01*
X013359Y008782D01*
X013413Y008769D01*
X013468Y008759D01*
X013524Y008753D01*
X013580Y008751D01*
X012874Y009927D02*
X012901Y009974D01*
X012931Y010019D01*
X012964Y010062D01*
X013000Y010102D01*
X013039Y010140D01*
X013080Y010175D01*
X013123Y010208D01*
X013168Y010237D01*
X013216Y010263D01*
X013265Y010286D01*
X013315Y010306D01*
X013366Y010322D01*
X013419Y010335D01*
X013472Y010344D01*
X013526Y010349D01*
X013580Y010351D01*
X014191Y009034D02*
X014155Y008995D01*
X014116Y008957D01*
X014076Y008923D01*
X014033Y008891D01*
X013988Y008863D01*
X013941Y008837D01*
X013892Y008814D01*
X013842Y008795D01*
X013791Y008779D01*
X013739Y008767D01*
X013687Y008758D01*
X013633Y008753D01*
X013580Y008751D01*
X014195Y010063D02*
X014159Y010103D01*
X014120Y010141D01*
X014079Y010176D01*
X014036Y010208D01*
X013991Y010238D01*
X013944Y010264D01*
X013895Y010286D01*
X013844Y010306D01*
X013793Y010322D01*
X013741Y010335D01*
X013687Y010344D01*
X013634Y010349D01*
X013580Y010351D01*
X017385Y009154D02*
X017415Y009106D01*
X017448Y009061D01*
X017484Y009018D01*
X017522Y008977D01*
X017564Y008940D01*
X017608Y008905D01*
X017654Y008874D01*
X017703Y008845D01*
X017753Y008821D01*
X017805Y008800D01*
X017859Y008782D01*
X017913Y008769D01*
X017968Y008759D01*
X018024Y008753D01*
X018080Y008751D01*
X017374Y009927D02*
X017401Y009974D01*
X017431Y010019D01*
X017464Y010062D01*
X017500Y010102D01*
X017539Y010140D01*
X017580Y010175D01*
X017623Y010208D01*
X017668Y010237D01*
X017716Y010263D01*
X017765Y010286D01*
X017815Y010306D01*
X017866Y010322D01*
X017919Y010335D01*
X017972Y010344D01*
X018026Y010349D01*
X018080Y010351D01*
X018691Y009034D02*
X018655Y008995D01*
X018616Y008957D01*
X018576Y008923D01*
X018533Y008891D01*
X018488Y008863D01*
X018441Y008837D01*
X018392Y008814D01*
X018342Y008795D01*
X018291Y008779D01*
X018239Y008767D01*
X018187Y008758D01*
X018133Y008753D01*
X018080Y008751D01*
X018695Y010063D02*
X018659Y010103D01*
X018620Y010141D01*
X018579Y010176D01*
X018536Y010208D01*
X018491Y010238D01*
X018444Y010264D01*
X018395Y010286D01*
X018344Y010306D01*
X018293Y010322D01*
X018241Y010335D01*
X018187Y010344D01*
X018134Y010349D01*
X018080Y010351D01*
X022830Y034881D02*
X022970Y034881D01*
X024130Y035501D02*
X024128Y035555D01*
X024123Y035609D01*
X024114Y035662D01*
X024101Y035715D01*
X024085Y035766D01*
X024065Y035816D01*
X024042Y035865D01*
X024016Y035913D01*
X023987Y035958D01*
X023954Y036001D01*
X023919Y036042D01*
X023881Y036081D01*
X023841Y036117D01*
X023798Y036150D01*
X023753Y036180D01*
X023706Y036207D01*
X022933Y036196D02*
X022885Y036166D01*
X022840Y036133D01*
X022797Y036097D01*
X022756Y036059D01*
X022719Y036017D01*
X022684Y035973D01*
X022653Y035927D01*
X022624Y035878D01*
X022600Y035828D01*
X022579Y035776D01*
X022561Y035722D01*
X022548Y035668D01*
X022538Y035613D01*
X022532Y035557D01*
X022530Y035501D01*
X022532Y035448D01*
X022537Y035394D01*
X022546Y035342D01*
X022558Y035290D01*
X022574Y035239D01*
X022593Y035189D01*
X022616Y035140D01*
X022642Y035093D01*
X022670Y035048D01*
X022702Y035005D01*
X022736Y034965D01*
X022774Y034926D01*
X022813Y034890D01*
X023842Y034886D02*
X023882Y034922D01*
X023920Y034961D01*
X023955Y035002D01*
X023987Y035045D01*
X024017Y035090D01*
X024043Y035137D01*
X024065Y035186D01*
X024085Y035237D01*
X024101Y035288D01*
X024114Y035340D01*
X024123Y035394D01*
X024128Y035447D01*
X024130Y035501D01*
X023830Y034881D02*
X023690Y034881D01*
D21*
X021371Y021637D03*
X021371Y021164D03*
X010021Y006937D03*
X010021Y006464D03*
X010021Y005937D03*
X010021Y005464D03*
X010021Y004937D03*
X010021Y004464D03*
D22*
X010021Y004701D03*
X010021Y005701D03*
X010021Y006701D03*
X021371Y021401D03*
D23*
X014789Y026095D02*
X014789Y028407D01*
X013171Y028407D01*
X013171Y026095D01*
X014789Y026095D01*
X036674Y018059D02*
X036674Y016442D01*
X038986Y016442D01*
X038986Y018059D01*
X036674Y018059D01*
D24*
X035751Y023662D02*
X035652Y023662D01*
X035652Y027481D01*
X035751Y027481D01*
X039570Y027481D02*
X039629Y027481D01*
X039629Y023662D01*
X039570Y023662D01*
X010168Y025873D02*
X010168Y025971D01*
X010168Y025873D02*
X006349Y025873D01*
X006349Y025971D01*
X006349Y029790D02*
X006349Y029849D01*
X010168Y029849D01*
X010168Y029790D01*
X010218Y032323D02*
X010218Y032421D01*
X010218Y032323D02*
X006399Y032323D01*
X006399Y032421D01*
X006399Y036240D02*
X006399Y036299D01*
X010218Y036299D01*
X010218Y036240D01*
D25*
X009352Y032796D03*
X009302Y026346D03*
X036125Y024529D03*
D26*
X038992Y030033D03*
D27*
X003798Y029212D03*
X003848Y035662D03*
D28*
X021755Y033751D03*
X023905Y033751D03*
D29*
X021280Y034651D02*
X018880Y034651D01*
X018823Y034653D01*
X018767Y034659D01*
X018711Y034668D01*
X018655Y034681D01*
X018601Y034698D01*
X018548Y034718D01*
X018497Y034742D01*
X018447Y034770D01*
X018399Y034800D01*
X018353Y034834D01*
X018310Y034871D01*
X018269Y034910D01*
X018231Y034952D01*
X018196Y034997D01*
X018164Y035044D01*
X018135Y035093D01*
X018109Y035143D01*
X018087Y035196D01*
X018068Y035249D01*
X018053Y035304D01*
X018042Y035360D01*
X018034Y035416D01*
X018030Y035473D01*
X018030Y035529D01*
X018034Y035586D01*
X018042Y035642D01*
X018053Y035698D01*
X018068Y035753D01*
X018087Y035806D01*
X018109Y035859D01*
X018135Y035909D01*
X018164Y035958D01*
X018196Y036005D01*
X018231Y036050D01*
X018269Y036092D01*
X018310Y036131D01*
X018353Y036168D01*
X018399Y036202D01*
X018447Y036232D01*
X018497Y036260D01*
X018548Y036284D01*
X018601Y036304D01*
X018655Y036321D01*
X018711Y036334D01*
X018767Y036343D01*
X018823Y036349D01*
X018880Y036351D01*
X021280Y036351D01*
X021337Y036349D01*
X021393Y036343D01*
X021449Y036334D01*
X021505Y036321D01*
X021559Y036304D01*
X021612Y036284D01*
X021663Y036260D01*
X021713Y036232D01*
X021761Y036202D01*
X021807Y036168D01*
X021850Y036131D01*
X021891Y036092D01*
X021929Y036050D01*
X021964Y036005D01*
X021996Y035958D01*
X022025Y035909D01*
X022051Y035859D01*
X022073Y035806D01*
X022092Y035753D01*
X022107Y035698D01*
X022118Y035642D01*
X022126Y035586D01*
X022130Y035529D01*
X022130Y035473D01*
X022126Y035416D01*
X022118Y035360D01*
X022107Y035304D01*
X022092Y035249D01*
X022073Y035196D01*
X022051Y035143D01*
X022025Y035093D01*
X021996Y035044D01*
X021964Y034997D01*
X021929Y034952D01*
X021891Y034910D01*
X021850Y034871D01*
X021807Y034834D01*
X021761Y034800D01*
X021713Y034770D01*
X021663Y034742D01*
X021612Y034718D01*
X021559Y034698D01*
X021505Y034681D01*
X021449Y034668D01*
X021393Y034659D01*
X021337Y034653D01*
X021280Y034651D01*
D30*
X017830Y039926D03*
X017830Y042076D03*
X012480Y035026D03*
X012480Y032876D03*
M02*
