%
M48
M72
T01C0.0150
T02C0.0236
T03C0.0315
T04C0.0320
T05C0.0335
T06C0.0394
T07C0.0400
T08C0.0472
T09C0.0500
T10C0.0551
T11C0.0700
T12C0.0900
T13C0.1181
%
T01
X4780Y4351
X6180Y5851
X5080Y6651
X4380Y7251
X2580Y7351
X1880Y7951
X1880Y8651
X2180Y8851
X2580Y9051
X2880Y10551
X1980Y11051
X2680Y12151
X2580Y13551
X2080Y13551
X1880Y13951
X1780Y14451
X1980Y14751
X3080Y13551
X3580Y13551
X3980Y13651
X4380Y13051
X5280Y13251
X5980Y12151
X7180Y12251
X7980Y12751
X8680Y12351
X9480Y12051
X9280Y10651
X7880Y11051
X6480Y10751
X6680Y9351
X7980Y9351
X8280Y9351
X7980Y8551
X7880Y7651
X8580Y7451
X9080Y7551
X9580Y7651
X10780Y8251
X11180Y8251
X11580Y8351
X11880Y9651
X13380Y8051
X14980Y7751
X15580Y7751
X15980Y7551
X16380Y8351
X15780Y8751
X15380Y8751
X16080Y9651
X17480Y10151
X18280Y10151
X18780Y10551
X18380Y11451
X18580Y11851
X17680Y12451
X15980Y13651
X15580Y13951
X16080Y14151
X15080Y14251
X15080Y13751
X14480Y13451
X14180Y14351
X13380Y14951
X12980Y14251
X13180Y13851
X12180Y13551
X11980Y13951
X11680Y14251
X11580Y14651
X11180Y14351
X10480Y13751
X10080Y13551
X10980Y13251
X11980Y12951
X12380Y12751
X12180Y12251
X12180Y11751
X11680Y15151
X11180Y16251
X11680Y18651
X13180Y17851
X13380Y19051
X13280Y19751
X14380Y19951
X14780Y18551
X15480Y17651
X15780Y16851
X17180Y16651
X17280Y17251
X18280Y16551
X19280Y17251
X19780Y17351
X20480Y17951
X20980Y17951
X19780Y18551
X19480Y18951
X20430Y19601
X20930Y20401
X21330Y20101
X21330Y19601
X20180Y20651
X20180Y20951
X19830Y21301
X18980Y20951
X17880Y20051
X17680Y20251
X17680Y20551
X16180Y20051
X15780Y19851
X15880Y18751
X17780Y19051
X18080Y19051
X20980Y16251
X21380Y16251
X22580Y16451
X22980Y16551
X23080Y16951
X23180Y17551
X23180Y18351
X22480Y18451
X23680Y19251
X24480Y20751
X24480Y21051
X25480Y21251
X26480Y20051
X25580Y19251
X25580Y18951
X25580Y18651
X25580Y18351
X26080Y17851
X26480Y17551
X25480Y16551
X25980Y16151
X26680Y14751
X26180Y14251
X26080Y13851
X25380Y13951
X26080Y12751
X26880Y12651
X27580Y12151
X27980Y11351
X27280Y10251
X26180Y11051
X25080Y12551
X24180Y12551
X23780Y11751
X22480Y12751
X22280Y13251
X21380Y14051
X20680Y14151
X20580Y13551
X20880Y12751
X20180Y11751
X20380Y11451
X20880Y10651
X20380Y10351
X20980Y9751
X21780Y8651
X22680Y9251
X22780Y10151
X23680Y8051
X25080Y8851
X24980Y9451
X26280Y9151
X26780Y7651
X28880Y7751
X29880Y7751
X29880Y10751
X32980Y10751
X33980Y9951
X34380Y8751
X35480Y8751
X36980Y8451
X37580Y8751
X38780Y8651
X39180Y9851
X38180Y10751
X39080Y11051
X39780Y11251
X39680Y12151
X38780Y12051
X37280Y12251
X36680Y12751
X36080Y13251
X35280Y12351
X34180Y11851
X33180Y12451
X33780Y13451
X34180Y14751
X34580Y14751
X34680Y15151
X34580Y15551
X34080Y15651
X34180Y16551
X34380Y16751
X33380Y16651
X33480Y17451
X33980Y17751
X33980Y18051
X33380Y18651
X32880Y18551
X32880Y18251
X33280Y19451
X32880Y20251
X33230Y20951
X32980Y21751
X33330Y22651
X32880Y23451
X34430Y23451
X34680Y23951
X35130Y24351
X35180Y24951
X35180Y25851
X35880Y26351
X36480Y26351
X37080Y26351
X37680Y26351
X38280Y26351
X38880Y26351
X39480Y26451
X40080Y26951
X40080Y27551
X40080Y28051
X40080Y28451
X39580Y28451
X39580Y28051
X37180Y28151
X37180Y28451
X35680Y28451
X35680Y28051
X35180Y27351
X34680Y26851
X34180Y28351
X32980Y28351
X32980Y27051
X29680Y27701
X29080Y27701
X28580Y27701
X28180Y27701
X27580Y27701
X26980Y27601
X26980Y28501
X27680Y28501
X27680Y29501
X27080Y29501
X25280Y28201
X25480Y27151
X25180Y26001
X24580Y25401
X25180Y24901
X25180Y24301
X25180Y23801
X23780Y24001
X23880Y24801
X22780Y25101
X22480Y24501
X22180Y23901
X21580Y24701
X21880Y25101
X21280Y23901
X20530Y25151
X20680Y25501
X20680Y26101
X20980Y26801
X21680Y26701
X20980Y27601
X20980Y28301
X20980Y29001
X20580Y29501
X21880Y29301
X22880Y29601
X22880Y28501
X21880Y28201
X24080Y28601
X25180Y29401
X24080Y29601
X24830Y32401
X25030Y34001
X25630Y35101
X25030Y35401
X25530Y36201
X24030Y37501
X24130Y38201
X23730Y39301
X23830Y40301
X24530Y41501
X24530Y42201
X23730Y41801
X22930Y42201
X22130Y41301
X21130Y42201
X20530Y41601
X19930Y41201
X20930Y40001
X21130Y38801
X22330Y39401
X21630Y37501
X22330Y36101
X21730Y35501
X22230Y34801
X22830Y33801
X20930Y34301
X19730Y34101
X18980Y33701
X17730Y34301
X18530Y36001
X20130Y36001
X20030Y37001
X19830Y39401
X18130Y40501
X17730Y40101
X18030Y41801
X19730Y42201
X15730Y39501
X15230Y40601
X15130Y42501
X12730Y39501
X11730Y38201
X12930Y36801
X12930Y35801
X11830Y35501
X11630Y34401
X12730Y34301
X12730Y33701
X13530Y32601
X14580Y33901
X14530Y34501
X14930Y35101
X14630Y35401
X15430Y35301
X15930Y35901
X15430Y36201
X14630Y37001
X14530Y37801
X10830Y39601
X9130Y39601
X9030Y41201
X7580Y41501
X6930Y41201
X6930Y40601
X6930Y39901
X6930Y39401
X7430Y39101
X7630Y37701
X7930Y36101
X7230Y36101
X7230Y35601
X7230Y35101
X7230Y34601
X7230Y34101
X7230Y33601
X7230Y33101
X7230Y32601
X7930Y32601
X7930Y33301
X7930Y34001
X7930Y34701
X7930Y35401
X8730Y35401
X8730Y36101
X8730Y34701
X8730Y34001
X8730Y33301
X8730Y32601
X9030Y31901
X7930Y31901
X6730Y32001
X5630Y32101
X5630Y32701
X5630Y33201
X5630Y33801
X5630Y36201
X5630Y36801
X5630Y37501
X5630Y38301
X5630Y39001
X5630Y39701
X5630Y40401
X5630Y41101
X5630Y41801
X5630Y42501
X7930Y42401
X15330Y33801
X17430Y32401
X17280Y29301
X16480Y29301
X15880Y29101
X15480Y29101
X15180Y28801
X16080Y28501
X16380Y28201
X16080Y27901
X16980Y27901
X17380Y27701
X17780Y27901
X17480Y28401
X18280Y27901
X18580Y27701
X18680Y27301
X18480Y27001
X18280Y26601
X18680Y26601
X18280Y26201
X17180Y26301
X16880Y26201
X15880Y24801
X16180Y24751
X16480Y24751
X15780Y23901
X15480Y24051
X14880Y23901
X14180Y23901
X13380Y23901
X13380Y25001
X13380Y25601
X13980Y25001
X14780Y25001
X14680Y26401
X14280Y27501
X13680Y27501
X13280Y27501
X13480Y27901
X13780Y28201
X13480Y28801
X12480Y29301
X12680Y29701
X11880Y29801
X11380Y29801
X11580Y29401
X11380Y29001
X11380Y28601
X11380Y28101
X12280Y27701
X12380Y28701
X9530Y27951
X9380Y29001
X8880Y29701
X8280Y29001
X8680Y28101
X8180Y27501
X7730Y28151
X7080Y28201
X7080Y27501
X7080Y26801
X7680Y26901
X7080Y26101
X6880Y25701
X6180Y25701
X5980Y25001
X5980Y24501
X5980Y23901
X5380Y23901
X5380Y24501
X5380Y25001
X5380Y25501
X5380Y26001
X5480Y27501
X7080Y28801
X7080Y29301
X7080Y29701
X5780Y29701
X5380Y29701
X8680Y26901
X9180Y26201
X9580Y25801
X10080Y25701
X10380Y25051
X11780Y25501
X11880Y24501
X9530Y26801
X8680Y25901
X8880Y25301
X7880Y25301
X7780Y26051
X6680Y25001
X6680Y23901
X5680Y20851
X7980Y19251
X7980Y17851
X6180Y15751
X6280Y15051
X4880Y15751
X3680Y15051
X5480Y17751
X9080Y14951
X8680Y13751
X4280Y12051
X4280Y10251
X4480Y9351
X8680Y6151
X11480Y5051
X11680Y6051
X15080Y6151
X15580Y6151
X15980Y6151
X15280Y5351
X18080Y5951
X19780Y5851
X20980Y5351
X20980Y4551
X19780Y4351
X21880Y5951
X22380Y7051
X23780Y6451
X26180Y4951
X32980Y7051
X33380Y6051
X33780Y5451
X34980Y6951
X35980Y6851
X38280Y6351
X38780Y6651
X39280Y6551
X39580Y6151
X39180Y5651
X40180Y6751
X35280Y10951
X32980Y8651
X33280Y14751
X35680Y15051
X36480Y15051
X36880Y16551
X36180Y17151
X35980Y18851
X35480Y18851
X34980Y18851
X37880Y17851
X37880Y17351
X38480Y16651
X38580Y15651
X39380Y15151
X39580Y14051
X40230Y13201
X39380Y17651
X39330Y18601
X39080Y18951
X38580Y19051
X38080Y18851
X39780Y19951
X40080Y19551
X39380Y21651
X39380Y22551
X39780Y22551
X39780Y23451
X39780Y23851
X40130Y24201
X39480Y24651
X39980Y25151
X38880Y24851
X38280Y25251
X37930Y24351
X37180Y25251
X36780Y24751
X36380Y24351
X36080Y25151
X35480Y23351
X35080Y22151
X34480Y21951
X37880Y22551
X29680Y25901
X29080Y25901
X28580Y25901
X26980Y26301
X26980Y25501
X26980Y24801
X27080Y21351
X28680Y18051
X27680Y14651
X24280Y15101
X24080Y14551
X24280Y15851
X23830Y16351
X22980Y16051
X22080Y14851
X21680Y14851
X21280Y14951
X20580Y14851
X19980Y15251
X17780Y14751
X14180Y17451
X13280Y16851
X11080Y20351
X11280Y20751
X11680Y20751
X13680Y21251
X9280Y21151
X18180Y29301
X19180Y29501
X18280Y24601
X19180Y24301
X22415Y21301
X10930Y32401
X10180Y32251
X26330Y33901
X27730Y34801
X28130Y34801
X26130Y38101
X26230Y39601
X27530Y39801
X26230Y41701
X27630Y42401
T02
X33430Y26551
X33930Y26551
X33930Y26051
X33430Y26051
X33430Y25551
X33930Y25551
X33930Y25051
X33430Y25051
X33430Y24551
X33930Y24551
X27127Y18035
X27127Y17051
X16930Y11011
X16340Y11011
X15749Y11011
X15159Y11011
X14568Y11011
X13978Y11011
X13387Y11011
X12797Y11011
X9380Y24251
X9380Y24751
X8880Y24751
X8380Y24751
X7880Y24751
X7880Y24251
X8380Y24251
X8880Y24251
X7380Y24251
X7380Y24751
T03
X28031Y17426
X28031Y16426
X28031Y15426
X29330Y15426
X29330Y16426
X29330Y17426
T04
X18580Y9551
X17580Y9551
X14080Y9551
X13080Y9551
X10580Y9551
X9580Y9551
X14080Y32001
X13630Y33301
X13630Y34301
X13630Y35301
X13630Y36301
X13630Y37301
X13630Y38301
X13630Y39301
X13630Y40301
X13630Y41301
X13630Y42301
X16630Y42301
X16630Y41301
X16630Y40301
X16630Y39301
X16630Y38301
X16630Y37301
X16630Y36301
X16630Y35301
X16630Y34301
X16630Y33301
X16080Y32001
X18330Y33751
X19130Y35501
X17830Y36601
X17830Y38601
X17830Y39501
X17830Y42501
X11930Y37301
X11930Y36301
X12480Y35451
X11330Y35001
X11330Y33001
X12480Y32451
X9980Y37101
X9980Y38101
X9980Y39101
X8580Y38501
X8580Y37001
X6580Y37001
X6580Y38501
X20330Y33751
X21330Y33751
X21030Y35501
X23330Y36001
X23330Y35001
X24330Y33751
X26530Y40301
X26530Y42301
T05
X28514Y13799
X28514Y12303
T06
X33080Y5551
X33080Y4701
X33930Y4701
X39230Y4701
X40030Y4701
X40030Y5551
X29530Y24001
X28480Y24001
X28380Y29451
X29530Y29451
X27330Y34701
X26680Y34901
X27330Y35551
X28030Y40601
X27230Y41401
X28030Y42201
T07
X27830Y33451
X26830Y33451
X25830Y33451
X25830Y32451
X26830Y32451
X27830Y32451
X23580Y32351
X22580Y32351
X21580Y32351
X20580Y32351
X19580Y32351
X18580Y32351
X34580Y21051
X35580Y21051
X35580Y20051
X34580Y20051
X36580Y20051
X36580Y21051
X37580Y21051
X37580Y20051
X38580Y20051
X38580Y21051
X24330Y10801
X22330Y10801
X18970Y8331
X17190Y8331
X17190Y5771
X18970Y5771
X22330Y5101
X23330Y5101
X24330Y5101
X14470Y5771
X12690Y5771
X12690Y8331
X14470Y8331
T08
X12080Y41251
X10702Y41251
T09
X3080Y16751
T10
X6080Y18551
X10080Y18551
T11
X4084Y17755
X2076Y17755
X2076Y15747
X4084Y15747
T12
X20730Y8051
X25930Y8051
T13
X28580Y5551
X28580Y20051
X36680Y30651
X3180Y26801
X2980Y32851
X2980Y41601
X3080Y20051
X3080Y5551
M30
