G75*
%MOIN*%
%OFA0B0*%
%FSLAX24Y24*%
%IPPOS*%
%LPD*%
%AMOC8*
5,1,8,0,0,1.08239X$1,22.5*
%
%ADD10C,0.0000*%
%ADD11R,0.0472X0.0472*%
%ADD12R,0.0120X0.0390*%
%ADD13R,0.0315X0.0709*%
%ADD14R,0.0276X0.0709*%
%ADD15R,0.0787X0.0394*%
%ADD16R,0.0900X0.2000*%
%ADD17R,0.0420X0.0860*%
%ADD18R,0.0315X0.0630*%
%ADD19R,0.0315X0.0138*%
%ADD20R,0.0472X0.0315*%
%ADD21R,0.0433X0.0394*%
%ADD22R,0.0394X0.0433*%
%ADD23R,0.0512X0.0591*%
%ADD24R,0.0315X0.0315*%
%ADD25R,0.0787X0.0472*%
%ADD26R,0.0390X0.0120*%
%ADD27R,0.0709X0.0315*%
%ADD28R,0.0709X0.0276*%
%ADD29R,0.0394X0.0787*%
%ADD30R,0.2000X0.0900*%
%ADD31R,0.0860X0.0420*%
%ADD32R,0.0630X0.0315*%
%ADD33R,0.0138X0.0315*%
%ADD34R,0.0315X0.0472*%
%ADD35R,0.0591X0.0512*%
%ADD36R,0.0472X0.0787*%
%ADD37R,0.0394X0.1811*%
%ADD38R,0.0630X0.1339*%
D10*
X003080Y003851D02*
X028580Y003851D01*
X027989Y005551D02*
X027991Y005599D01*
X027997Y005647D01*
X028007Y005694D01*
X028020Y005740D01*
X028038Y005785D01*
X028058Y005829D01*
X028083Y005871D01*
X028111Y005910D01*
X028141Y005947D01*
X028175Y005981D01*
X028212Y006013D01*
X028250Y006042D01*
X028291Y006067D01*
X028334Y006089D01*
X028379Y006107D01*
X028425Y006121D01*
X028472Y006132D01*
X028520Y006139D01*
X028568Y006142D01*
X028616Y006141D01*
X028664Y006136D01*
X028712Y006127D01*
X028758Y006115D01*
X028803Y006098D01*
X028847Y006078D01*
X028889Y006055D01*
X028929Y006028D01*
X028967Y005998D01*
X029002Y005965D01*
X029034Y005929D01*
X029064Y005891D01*
X029090Y005850D01*
X029112Y005807D01*
X029132Y005763D01*
X029147Y005718D01*
X029159Y005671D01*
X029167Y005623D01*
X029171Y005575D01*
X029171Y005527D01*
X029167Y005479D01*
X029159Y005431D01*
X029147Y005384D01*
X029132Y005339D01*
X029112Y005295D01*
X029090Y005252D01*
X029064Y005211D01*
X029034Y005173D01*
X029002Y005137D01*
X028967Y005104D01*
X028929Y005074D01*
X028889Y005047D01*
X028847Y005024D01*
X028803Y005004D01*
X028758Y004987D01*
X028712Y004975D01*
X028664Y004966D01*
X028616Y004961D01*
X028568Y004960D01*
X028520Y004963D01*
X028472Y004970D01*
X028425Y004981D01*
X028379Y004995D01*
X028334Y005013D01*
X028291Y005035D01*
X028250Y005060D01*
X028212Y005089D01*
X028175Y005121D01*
X028141Y005155D01*
X028111Y005192D01*
X028083Y005231D01*
X028058Y005273D01*
X028038Y005317D01*
X028020Y005362D01*
X028007Y005408D01*
X027997Y005455D01*
X027991Y005503D01*
X027989Y005551D01*
X028580Y003851D02*
X028661Y003853D01*
X028742Y003859D01*
X028822Y003868D01*
X028902Y003882D01*
X028981Y003899D01*
X029059Y003920D01*
X029136Y003944D01*
X029212Y003973D01*
X029286Y004005D01*
X029359Y004040D01*
X029430Y004079D01*
X029499Y004121D01*
X029566Y004166D01*
X029631Y004215D01*
X029693Y004266D01*
X029753Y004321D01*
X029810Y004378D01*
X029865Y004438D01*
X029916Y004500D01*
X029965Y004565D01*
X030010Y004632D01*
X030052Y004701D01*
X030091Y004772D01*
X030126Y004845D01*
X030158Y004919D01*
X030187Y004995D01*
X030211Y005072D01*
X030232Y005150D01*
X030249Y005229D01*
X030263Y005309D01*
X030272Y005389D01*
X030278Y005470D01*
X030280Y005551D01*
X030280Y007151D01*
X030282Y007174D01*
X030287Y007197D01*
X030296Y007219D01*
X030309Y007239D01*
X030324Y007257D01*
X030342Y007272D01*
X030362Y007285D01*
X030384Y007294D01*
X030407Y007299D01*
X030430Y007301D01*
X032430Y007301D01*
X032453Y007299D01*
X032476Y007294D01*
X032498Y007285D01*
X032518Y007272D01*
X032536Y007257D01*
X032551Y007239D01*
X032564Y007219D01*
X032573Y007197D01*
X032578Y007174D01*
X032580Y007151D01*
X032580Y004751D01*
X032582Y004692D01*
X032588Y004634D01*
X032597Y004575D01*
X032611Y004518D01*
X032628Y004462D01*
X032649Y004407D01*
X032673Y004353D01*
X032701Y004301D01*
X032732Y004251D01*
X032766Y004203D01*
X032803Y004158D01*
X032844Y004115D01*
X032887Y004074D01*
X032932Y004037D01*
X032980Y004003D01*
X033030Y003972D01*
X033082Y003944D01*
X033136Y003920D01*
X033191Y003899D01*
X033247Y003882D01*
X033304Y003868D01*
X033363Y003859D01*
X033421Y003853D01*
X033480Y003851D01*
X039630Y003851D01*
X038780Y003851D02*
X034380Y003851D01*
X039630Y003851D02*
X039689Y003853D01*
X039747Y003859D01*
X039806Y003868D01*
X039863Y003882D01*
X039919Y003899D01*
X039974Y003920D01*
X040028Y003944D01*
X040080Y003972D01*
X040130Y004003D01*
X040178Y004037D01*
X040223Y004074D01*
X040266Y004115D01*
X040307Y004158D01*
X040344Y004203D01*
X040378Y004251D01*
X040409Y004301D01*
X040437Y004353D01*
X040461Y004407D01*
X040482Y004462D01*
X040499Y004518D01*
X040513Y004575D01*
X040522Y004634D01*
X040528Y004692D01*
X040530Y004751D01*
X040530Y031651D01*
X040528Y031710D01*
X040522Y031768D01*
X040513Y031827D01*
X040499Y031884D01*
X040482Y031940D01*
X040461Y031995D01*
X040437Y032049D01*
X040409Y032101D01*
X040378Y032151D01*
X040344Y032199D01*
X040307Y032244D01*
X040266Y032287D01*
X040223Y032328D01*
X040178Y032365D01*
X040130Y032399D01*
X040080Y032430D01*
X040028Y032458D01*
X039974Y032482D01*
X039919Y032503D01*
X039863Y032520D01*
X039806Y032534D01*
X039747Y032543D01*
X039689Y032549D01*
X039630Y032551D01*
X033480Y032551D01*
X033421Y032549D01*
X033363Y032543D01*
X033304Y032534D01*
X033247Y032520D01*
X033191Y032503D01*
X033136Y032482D01*
X033082Y032458D01*
X033030Y032430D01*
X032980Y032399D01*
X032932Y032365D01*
X032887Y032328D01*
X032844Y032287D01*
X032803Y032244D01*
X032766Y032199D01*
X032732Y032151D01*
X032701Y032101D01*
X032673Y032049D01*
X032649Y031995D01*
X032628Y031940D01*
X032611Y031884D01*
X032597Y031827D01*
X032588Y031768D01*
X032582Y031710D01*
X032580Y031651D01*
X032580Y019251D01*
X032578Y019225D01*
X032573Y019199D01*
X032565Y019174D01*
X032553Y019151D01*
X032539Y019129D01*
X032521Y019110D01*
X032502Y019092D01*
X032480Y019078D01*
X032457Y019066D01*
X032432Y019058D01*
X032406Y019053D01*
X032380Y019051D01*
X030530Y019051D01*
X030500Y019053D01*
X030470Y019058D01*
X030441Y019067D01*
X030414Y019080D01*
X030388Y019095D01*
X030364Y019114D01*
X030343Y019135D01*
X030324Y019159D01*
X030309Y019185D01*
X030296Y019212D01*
X030287Y019241D01*
X030282Y019271D01*
X030280Y019301D01*
X030280Y020051D01*
X027989Y020051D02*
X027991Y020099D01*
X027997Y020147D01*
X028007Y020194D01*
X028020Y020240D01*
X028038Y020285D01*
X028058Y020329D01*
X028083Y020371D01*
X028111Y020410D01*
X028141Y020447D01*
X028175Y020481D01*
X028212Y020513D01*
X028250Y020542D01*
X028291Y020567D01*
X028334Y020589D01*
X028379Y020607D01*
X028425Y020621D01*
X028472Y020632D01*
X028520Y020639D01*
X028568Y020642D01*
X028616Y020641D01*
X028664Y020636D01*
X028712Y020627D01*
X028758Y020615D01*
X028803Y020598D01*
X028847Y020578D01*
X028889Y020555D01*
X028929Y020528D01*
X028967Y020498D01*
X029002Y020465D01*
X029034Y020429D01*
X029064Y020391D01*
X029090Y020350D01*
X029112Y020307D01*
X029132Y020263D01*
X029147Y020218D01*
X029159Y020171D01*
X029167Y020123D01*
X029171Y020075D01*
X029171Y020027D01*
X029167Y019979D01*
X029159Y019931D01*
X029147Y019884D01*
X029132Y019839D01*
X029112Y019795D01*
X029090Y019752D01*
X029064Y019711D01*
X029034Y019673D01*
X029002Y019637D01*
X028967Y019604D01*
X028929Y019574D01*
X028889Y019547D01*
X028847Y019524D01*
X028803Y019504D01*
X028758Y019487D01*
X028712Y019475D01*
X028664Y019466D01*
X028616Y019461D01*
X028568Y019460D01*
X028520Y019463D01*
X028472Y019470D01*
X028425Y019481D01*
X028379Y019495D01*
X028334Y019513D01*
X028291Y019535D01*
X028250Y019560D01*
X028212Y019589D01*
X028175Y019621D01*
X028141Y019655D01*
X028111Y019692D01*
X028083Y019731D01*
X028058Y019773D01*
X028038Y019817D01*
X028020Y019862D01*
X028007Y019908D01*
X027997Y019955D01*
X027991Y020003D01*
X027989Y020051D01*
X028580Y021751D02*
X028661Y021749D01*
X028742Y021743D01*
X028822Y021734D01*
X028902Y021720D01*
X028981Y021703D01*
X029059Y021682D01*
X029136Y021658D01*
X029212Y021629D01*
X029286Y021597D01*
X029359Y021562D01*
X029430Y021523D01*
X029499Y021481D01*
X029566Y021436D01*
X029631Y021387D01*
X029693Y021336D01*
X029753Y021281D01*
X029810Y021224D01*
X029865Y021164D01*
X029916Y021102D01*
X029965Y021037D01*
X030010Y020970D01*
X030052Y020901D01*
X030091Y020830D01*
X030126Y020757D01*
X030158Y020683D01*
X030187Y020607D01*
X030211Y020530D01*
X030232Y020452D01*
X030249Y020373D01*
X030263Y020293D01*
X030272Y020213D01*
X030278Y020132D01*
X030280Y020051D01*
X028580Y021751D02*
X027530Y021751D01*
X027507Y021753D01*
X027484Y021758D01*
X027462Y021767D01*
X027442Y021780D01*
X027424Y021795D01*
X027409Y021813D01*
X027396Y021833D01*
X027387Y021855D01*
X027382Y021878D01*
X027380Y021901D01*
X027380Y023351D01*
X027382Y023374D01*
X027387Y023397D01*
X027396Y023419D01*
X027409Y023439D01*
X027424Y023457D01*
X027442Y023472D01*
X027462Y023485D01*
X027484Y023494D01*
X027507Y023499D01*
X027530Y023501D01*
X029680Y023501D01*
X029719Y023503D01*
X029758Y023509D01*
X029796Y023518D01*
X029833Y023531D01*
X029869Y023548D01*
X029902Y023568D01*
X029934Y023592D01*
X029963Y023618D01*
X029989Y023647D01*
X030013Y023679D01*
X030033Y023712D01*
X030050Y023748D01*
X030063Y023785D01*
X030072Y023823D01*
X030078Y023862D01*
X030080Y023901D01*
X030080Y029651D01*
X030074Y029692D01*
X030063Y029733D01*
X030049Y029772D01*
X030032Y029810D01*
X030011Y029846D01*
X029986Y029881D01*
X029959Y029912D01*
X029929Y029941D01*
X029896Y029967D01*
X029861Y029990D01*
X029824Y030010D01*
X029786Y030026D01*
X029746Y030039D01*
X029705Y030048D01*
X029664Y030053D01*
X029622Y030054D01*
X029580Y030051D01*
X025330Y030051D01*
X025300Y030053D01*
X025270Y030058D01*
X025241Y030067D01*
X025214Y030080D01*
X025188Y030095D01*
X025164Y030114D01*
X025143Y030135D01*
X025124Y030159D01*
X025109Y030185D01*
X025096Y030212D01*
X025087Y030241D01*
X025082Y030271D01*
X025080Y030301D01*
X025080Y031201D01*
X025082Y031235D01*
X025088Y031268D01*
X025097Y031300D01*
X025110Y031331D01*
X025126Y031361D01*
X025145Y031388D01*
X025168Y031413D01*
X025193Y031436D01*
X025220Y031455D01*
X025250Y031471D01*
X025281Y031484D01*
X025313Y031493D01*
X025346Y031499D01*
X025380Y031501D01*
X027630Y031501D01*
X027686Y031498D01*
X027743Y031499D01*
X027799Y031503D01*
X027855Y031512D01*
X027911Y031524D01*
X027965Y031540D01*
X028018Y031559D01*
X028069Y031582D01*
X028119Y031609D01*
X028167Y031639D01*
X028213Y031672D01*
X028256Y031708D01*
X028297Y031747D01*
X028335Y031789D01*
X028371Y031834D01*
X028403Y031880D01*
X028431Y031929D01*
X028457Y031979D01*
X028479Y032031D01*
X028497Y032085D01*
X028512Y032139D01*
X028523Y032195D01*
X028530Y032251D01*
X028530Y042101D01*
X028528Y042160D01*
X028522Y042218D01*
X028513Y042277D01*
X028499Y042334D01*
X028482Y042390D01*
X028461Y042445D01*
X028437Y042499D01*
X028409Y042551D01*
X028378Y042601D01*
X028344Y042649D01*
X028307Y042694D01*
X028266Y042737D01*
X028223Y042778D01*
X028178Y042815D01*
X028130Y042849D01*
X028080Y042880D01*
X028028Y042908D01*
X027974Y042932D01*
X027919Y042953D01*
X027863Y042970D01*
X027806Y042984D01*
X027747Y042993D01*
X027689Y042999D01*
X027630Y043001D01*
X002280Y043001D01*
X002222Y042997D01*
X002164Y042990D01*
X002107Y042980D01*
X002051Y042965D01*
X001995Y042948D01*
X001941Y042927D01*
X001889Y042902D01*
X001838Y042874D01*
X001788Y042843D01*
X001741Y042809D01*
X001696Y042773D01*
X001654Y042733D01*
X001614Y042691D01*
X001577Y042646D01*
X001542Y042599D01*
X001511Y042550D01*
X001483Y042500D01*
X001458Y042447D01*
X001436Y042393D01*
X001418Y042338D01*
X001403Y042282D01*
X001392Y042225D01*
X001384Y042167D01*
X001381Y042109D01*
X001380Y042051D01*
X001380Y032401D01*
X001382Y032342D01*
X001388Y032284D01*
X001397Y032225D01*
X001411Y032168D01*
X001428Y032112D01*
X001449Y032057D01*
X001473Y032003D01*
X001501Y031951D01*
X001532Y031901D01*
X001566Y031853D01*
X001603Y031808D01*
X001644Y031765D01*
X001687Y031724D01*
X001732Y031687D01*
X001780Y031653D01*
X001830Y031622D01*
X001882Y031594D01*
X001936Y031570D01*
X001991Y031549D01*
X002047Y031532D01*
X002104Y031518D01*
X002163Y031509D01*
X002221Y031503D01*
X002280Y031501D01*
X004980Y031501D01*
X005003Y031499D01*
X005026Y031494D01*
X005048Y031485D01*
X005068Y031472D01*
X005086Y031457D01*
X005101Y031439D01*
X005114Y031419D01*
X005123Y031397D01*
X005128Y031374D01*
X005130Y031351D01*
X005130Y030201D01*
X005128Y030178D01*
X005123Y030155D01*
X005114Y030133D01*
X005101Y030113D01*
X005086Y030095D01*
X005068Y030080D01*
X005048Y030067D01*
X005026Y030058D01*
X005003Y030053D01*
X004980Y030051D01*
X001780Y030051D01*
X001741Y030049D01*
X001702Y030043D01*
X001664Y030034D01*
X001627Y030021D01*
X001591Y030004D01*
X001558Y029984D01*
X001526Y029960D01*
X001497Y029934D01*
X001471Y029905D01*
X001447Y029873D01*
X001427Y029840D01*
X001410Y029804D01*
X001397Y029767D01*
X001388Y029729D01*
X001382Y029690D01*
X001380Y029651D01*
X001380Y023901D01*
X001382Y023862D01*
X001388Y023823D01*
X001397Y023785D01*
X001410Y023748D01*
X001427Y023712D01*
X001447Y023679D01*
X001471Y023647D01*
X001497Y023618D01*
X001526Y023592D01*
X001558Y023568D01*
X001591Y023548D01*
X001627Y023531D01*
X001664Y023518D01*
X001702Y023509D01*
X001741Y023503D01*
X001780Y023501D01*
X004730Y023501D01*
X004747Y023499D01*
X004764Y023495D01*
X004780Y023488D01*
X004794Y023478D01*
X004807Y023465D01*
X004817Y023451D01*
X004824Y023435D01*
X004828Y023418D01*
X004830Y023401D01*
X004830Y021851D01*
X004828Y021834D01*
X004824Y021817D01*
X004817Y021801D01*
X004807Y021787D01*
X004794Y021774D01*
X004780Y021764D01*
X004764Y021757D01*
X004747Y021753D01*
X004730Y021751D01*
X003080Y021751D01*
X002489Y020051D02*
X002491Y020099D01*
X002497Y020147D01*
X002507Y020194D01*
X002520Y020240D01*
X002538Y020285D01*
X002558Y020329D01*
X002583Y020371D01*
X002611Y020410D01*
X002641Y020447D01*
X002675Y020481D01*
X002712Y020513D01*
X002750Y020542D01*
X002791Y020567D01*
X002834Y020589D01*
X002879Y020607D01*
X002925Y020621D01*
X002972Y020632D01*
X003020Y020639D01*
X003068Y020642D01*
X003116Y020641D01*
X003164Y020636D01*
X003212Y020627D01*
X003258Y020615D01*
X003303Y020598D01*
X003347Y020578D01*
X003389Y020555D01*
X003429Y020528D01*
X003467Y020498D01*
X003502Y020465D01*
X003534Y020429D01*
X003564Y020391D01*
X003590Y020350D01*
X003612Y020307D01*
X003632Y020263D01*
X003647Y020218D01*
X003659Y020171D01*
X003667Y020123D01*
X003671Y020075D01*
X003671Y020027D01*
X003667Y019979D01*
X003659Y019931D01*
X003647Y019884D01*
X003632Y019839D01*
X003612Y019795D01*
X003590Y019752D01*
X003564Y019711D01*
X003534Y019673D01*
X003502Y019637D01*
X003467Y019604D01*
X003429Y019574D01*
X003389Y019547D01*
X003347Y019524D01*
X003303Y019504D01*
X003258Y019487D01*
X003212Y019475D01*
X003164Y019466D01*
X003116Y019461D01*
X003068Y019460D01*
X003020Y019463D01*
X002972Y019470D01*
X002925Y019481D01*
X002879Y019495D01*
X002834Y019513D01*
X002791Y019535D01*
X002750Y019560D01*
X002712Y019589D01*
X002675Y019621D01*
X002641Y019655D01*
X002611Y019692D01*
X002583Y019731D01*
X002558Y019773D01*
X002538Y019817D01*
X002520Y019862D01*
X002507Y019908D01*
X002497Y019955D01*
X002491Y020003D01*
X002489Y020051D01*
X001380Y020051D02*
X001382Y020132D01*
X001388Y020213D01*
X001397Y020293D01*
X001411Y020373D01*
X001428Y020452D01*
X001449Y020530D01*
X001473Y020607D01*
X001502Y020683D01*
X001534Y020757D01*
X001569Y020830D01*
X001608Y020901D01*
X001650Y020970D01*
X001695Y021037D01*
X001744Y021102D01*
X001795Y021164D01*
X001850Y021224D01*
X001907Y021281D01*
X001967Y021336D01*
X002029Y021387D01*
X002094Y021436D01*
X002161Y021481D01*
X002230Y021523D01*
X002301Y021562D01*
X002374Y021597D01*
X002448Y021629D01*
X002524Y021658D01*
X002601Y021682D01*
X002679Y021703D01*
X002758Y021720D01*
X002838Y021734D01*
X002918Y021743D01*
X002999Y021749D01*
X003080Y021751D01*
X001380Y020051D02*
X001380Y005551D01*
X002489Y005551D02*
X002491Y005599D01*
X002497Y005647D01*
X002507Y005694D01*
X002520Y005740D01*
X002538Y005785D01*
X002558Y005829D01*
X002583Y005871D01*
X002611Y005910D01*
X002641Y005947D01*
X002675Y005981D01*
X002712Y006013D01*
X002750Y006042D01*
X002791Y006067D01*
X002834Y006089D01*
X002879Y006107D01*
X002925Y006121D01*
X002972Y006132D01*
X003020Y006139D01*
X003068Y006142D01*
X003116Y006141D01*
X003164Y006136D01*
X003212Y006127D01*
X003258Y006115D01*
X003303Y006098D01*
X003347Y006078D01*
X003389Y006055D01*
X003429Y006028D01*
X003467Y005998D01*
X003502Y005965D01*
X003534Y005929D01*
X003564Y005891D01*
X003590Y005850D01*
X003612Y005807D01*
X003632Y005763D01*
X003647Y005718D01*
X003659Y005671D01*
X003667Y005623D01*
X003671Y005575D01*
X003671Y005527D01*
X003667Y005479D01*
X003659Y005431D01*
X003647Y005384D01*
X003632Y005339D01*
X003612Y005295D01*
X003590Y005252D01*
X003564Y005211D01*
X003534Y005173D01*
X003502Y005137D01*
X003467Y005104D01*
X003429Y005074D01*
X003389Y005047D01*
X003347Y005024D01*
X003303Y005004D01*
X003258Y004987D01*
X003212Y004975D01*
X003164Y004966D01*
X003116Y004961D01*
X003068Y004960D01*
X003020Y004963D01*
X002972Y004970D01*
X002925Y004981D01*
X002879Y004995D01*
X002834Y005013D01*
X002791Y005035D01*
X002750Y005060D01*
X002712Y005089D01*
X002675Y005121D01*
X002641Y005155D01*
X002611Y005192D01*
X002583Y005231D01*
X002558Y005273D01*
X002538Y005317D01*
X002520Y005362D01*
X002507Y005408D01*
X002497Y005455D01*
X002491Y005503D01*
X002489Y005551D01*
X001380Y005551D02*
X001382Y005470D01*
X001388Y005389D01*
X001397Y005309D01*
X001411Y005229D01*
X001428Y005150D01*
X001449Y005072D01*
X001473Y004995D01*
X001502Y004919D01*
X001534Y004845D01*
X001569Y004772D01*
X001608Y004701D01*
X001650Y004632D01*
X001695Y004565D01*
X001744Y004500D01*
X001795Y004438D01*
X001850Y004378D01*
X001907Y004321D01*
X001967Y004266D01*
X002029Y004215D01*
X002094Y004166D01*
X002161Y004121D01*
X002230Y004079D01*
X002301Y004040D01*
X002374Y004005D01*
X002448Y003973D01*
X002524Y003944D01*
X002601Y003920D01*
X002679Y003899D01*
X002758Y003882D01*
X002838Y003868D01*
X002918Y003859D01*
X002999Y003853D01*
X003080Y003851D01*
X005804Y018551D02*
X005806Y018584D01*
X005812Y018616D01*
X005821Y018647D01*
X005834Y018677D01*
X005851Y018705D01*
X005871Y018731D01*
X005894Y018755D01*
X005919Y018775D01*
X005947Y018793D01*
X005976Y018807D01*
X006007Y018817D01*
X006039Y018824D01*
X006072Y018827D01*
X006105Y018826D01*
X006137Y018821D01*
X006168Y018812D01*
X006199Y018800D01*
X006227Y018784D01*
X006254Y018765D01*
X006278Y018743D01*
X006299Y018718D01*
X006318Y018691D01*
X006333Y018662D01*
X006344Y018632D01*
X006352Y018600D01*
X006356Y018567D01*
X006356Y018535D01*
X006352Y018502D01*
X006344Y018470D01*
X006333Y018440D01*
X006318Y018411D01*
X006299Y018384D01*
X006278Y018359D01*
X006254Y018337D01*
X006227Y018318D01*
X006199Y018302D01*
X006168Y018290D01*
X006137Y018281D01*
X006105Y018276D01*
X006072Y018275D01*
X006039Y018278D01*
X006007Y018285D01*
X005976Y018295D01*
X005947Y018309D01*
X005919Y018327D01*
X005894Y018347D01*
X005871Y018371D01*
X005851Y018397D01*
X005834Y018425D01*
X005821Y018455D01*
X005812Y018486D01*
X005806Y018518D01*
X005804Y018551D01*
X009804Y018551D02*
X009806Y018584D01*
X009812Y018616D01*
X009821Y018647D01*
X009834Y018677D01*
X009851Y018705D01*
X009871Y018731D01*
X009894Y018755D01*
X009919Y018775D01*
X009947Y018793D01*
X009976Y018807D01*
X010007Y018817D01*
X010039Y018824D01*
X010072Y018827D01*
X010105Y018826D01*
X010137Y018821D01*
X010168Y018812D01*
X010199Y018800D01*
X010227Y018784D01*
X010254Y018765D01*
X010278Y018743D01*
X010299Y018718D01*
X010318Y018691D01*
X010333Y018662D01*
X010344Y018632D01*
X010352Y018600D01*
X010356Y018567D01*
X010356Y018535D01*
X010352Y018502D01*
X010344Y018470D01*
X010333Y018440D01*
X010318Y018411D01*
X010299Y018384D01*
X010278Y018359D01*
X010254Y018337D01*
X010227Y018318D01*
X010199Y018302D01*
X010168Y018290D01*
X010137Y018281D01*
X010105Y018276D01*
X010072Y018275D01*
X010039Y018278D01*
X010007Y018285D01*
X009976Y018295D01*
X009947Y018309D01*
X009919Y018327D01*
X009894Y018347D01*
X009871Y018371D01*
X009851Y018397D01*
X009834Y018425D01*
X009821Y018455D01*
X009812Y018486D01*
X009806Y018518D01*
X009804Y018551D01*
X002589Y026801D02*
X002591Y026849D01*
X002597Y026897D01*
X002607Y026944D01*
X002620Y026990D01*
X002638Y027035D01*
X002658Y027079D01*
X002683Y027121D01*
X002711Y027160D01*
X002741Y027197D01*
X002775Y027231D01*
X002812Y027263D01*
X002850Y027292D01*
X002891Y027317D01*
X002934Y027339D01*
X002979Y027357D01*
X003025Y027371D01*
X003072Y027382D01*
X003120Y027389D01*
X003168Y027392D01*
X003216Y027391D01*
X003264Y027386D01*
X003312Y027377D01*
X003358Y027365D01*
X003403Y027348D01*
X003447Y027328D01*
X003489Y027305D01*
X003529Y027278D01*
X003567Y027248D01*
X003602Y027215D01*
X003634Y027179D01*
X003664Y027141D01*
X003690Y027100D01*
X003712Y027057D01*
X003732Y027013D01*
X003747Y026968D01*
X003759Y026921D01*
X003767Y026873D01*
X003771Y026825D01*
X003771Y026777D01*
X003767Y026729D01*
X003759Y026681D01*
X003747Y026634D01*
X003732Y026589D01*
X003712Y026545D01*
X003690Y026502D01*
X003664Y026461D01*
X003634Y026423D01*
X003602Y026387D01*
X003567Y026354D01*
X003529Y026324D01*
X003489Y026297D01*
X003447Y026274D01*
X003403Y026254D01*
X003358Y026237D01*
X003312Y026225D01*
X003264Y026216D01*
X003216Y026211D01*
X003168Y026210D01*
X003120Y026213D01*
X003072Y026220D01*
X003025Y026231D01*
X002979Y026245D01*
X002934Y026263D01*
X002891Y026285D01*
X002850Y026310D01*
X002812Y026339D01*
X002775Y026371D01*
X002741Y026405D01*
X002711Y026442D01*
X002683Y026481D01*
X002658Y026523D01*
X002638Y026567D01*
X002620Y026612D01*
X002607Y026658D01*
X002597Y026705D01*
X002591Y026753D01*
X002589Y026801D01*
X002389Y032851D02*
X002391Y032899D01*
X002397Y032947D01*
X002407Y032994D01*
X002420Y033040D01*
X002438Y033085D01*
X002458Y033129D01*
X002483Y033171D01*
X002511Y033210D01*
X002541Y033247D01*
X002575Y033281D01*
X002612Y033313D01*
X002650Y033342D01*
X002691Y033367D01*
X002734Y033389D01*
X002779Y033407D01*
X002825Y033421D01*
X002872Y033432D01*
X002920Y033439D01*
X002968Y033442D01*
X003016Y033441D01*
X003064Y033436D01*
X003112Y033427D01*
X003158Y033415D01*
X003203Y033398D01*
X003247Y033378D01*
X003289Y033355D01*
X003329Y033328D01*
X003367Y033298D01*
X003402Y033265D01*
X003434Y033229D01*
X003464Y033191D01*
X003490Y033150D01*
X003512Y033107D01*
X003532Y033063D01*
X003547Y033018D01*
X003559Y032971D01*
X003567Y032923D01*
X003571Y032875D01*
X003571Y032827D01*
X003567Y032779D01*
X003559Y032731D01*
X003547Y032684D01*
X003532Y032639D01*
X003512Y032595D01*
X003490Y032552D01*
X003464Y032511D01*
X003434Y032473D01*
X003402Y032437D01*
X003367Y032404D01*
X003329Y032374D01*
X003289Y032347D01*
X003247Y032324D01*
X003203Y032304D01*
X003158Y032287D01*
X003112Y032275D01*
X003064Y032266D01*
X003016Y032261D01*
X002968Y032260D01*
X002920Y032263D01*
X002872Y032270D01*
X002825Y032281D01*
X002779Y032295D01*
X002734Y032313D01*
X002691Y032335D01*
X002650Y032360D01*
X002612Y032389D01*
X002575Y032421D01*
X002541Y032455D01*
X002511Y032492D01*
X002483Y032531D01*
X002458Y032573D01*
X002438Y032617D01*
X002420Y032662D01*
X002407Y032708D01*
X002397Y032755D01*
X002391Y032803D01*
X002389Y032851D01*
X002389Y041601D02*
X002391Y041649D01*
X002397Y041697D01*
X002407Y041744D01*
X002420Y041790D01*
X002438Y041835D01*
X002458Y041879D01*
X002483Y041921D01*
X002511Y041960D01*
X002541Y041997D01*
X002575Y042031D01*
X002612Y042063D01*
X002650Y042092D01*
X002691Y042117D01*
X002734Y042139D01*
X002779Y042157D01*
X002825Y042171D01*
X002872Y042182D01*
X002920Y042189D01*
X002968Y042192D01*
X003016Y042191D01*
X003064Y042186D01*
X003112Y042177D01*
X003158Y042165D01*
X003203Y042148D01*
X003247Y042128D01*
X003289Y042105D01*
X003329Y042078D01*
X003367Y042048D01*
X003402Y042015D01*
X003434Y041979D01*
X003464Y041941D01*
X003490Y041900D01*
X003512Y041857D01*
X003532Y041813D01*
X003547Y041768D01*
X003559Y041721D01*
X003567Y041673D01*
X003571Y041625D01*
X003571Y041577D01*
X003567Y041529D01*
X003559Y041481D01*
X003547Y041434D01*
X003532Y041389D01*
X003512Y041345D01*
X003490Y041302D01*
X003464Y041261D01*
X003434Y041223D01*
X003402Y041187D01*
X003367Y041154D01*
X003329Y041124D01*
X003289Y041097D01*
X003247Y041074D01*
X003203Y041054D01*
X003158Y041037D01*
X003112Y041025D01*
X003064Y041016D01*
X003016Y041011D01*
X002968Y041010D01*
X002920Y041013D01*
X002872Y041020D01*
X002825Y041031D01*
X002779Y041045D01*
X002734Y041063D01*
X002691Y041085D01*
X002650Y041110D01*
X002612Y041139D01*
X002575Y041171D01*
X002541Y041205D01*
X002511Y041242D01*
X002483Y041281D01*
X002458Y041323D01*
X002438Y041367D01*
X002420Y041412D01*
X002407Y041458D01*
X002397Y041505D01*
X002391Y041553D01*
X002389Y041601D01*
X028530Y039451D02*
X028530Y035051D01*
X030080Y029001D02*
X030080Y024601D01*
X036089Y030651D02*
X036091Y030699D01*
X036097Y030747D01*
X036107Y030794D01*
X036120Y030840D01*
X036138Y030885D01*
X036158Y030929D01*
X036183Y030971D01*
X036211Y031010D01*
X036241Y031047D01*
X036275Y031081D01*
X036312Y031113D01*
X036350Y031142D01*
X036391Y031167D01*
X036434Y031189D01*
X036479Y031207D01*
X036525Y031221D01*
X036572Y031232D01*
X036620Y031239D01*
X036668Y031242D01*
X036716Y031241D01*
X036764Y031236D01*
X036812Y031227D01*
X036858Y031215D01*
X036903Y031198D01*
X036947Y031178D01*
X036989Y031155D01*
X037029Y031128D01*
X037067Y031098D01*
X037102Y031065D01*
X037134Y031029D01*
X037164Y030991D01*
X037190Y030950D01*
X037212Y030907D01*
X037232Y030863D01*
X037247Y030818D01*
X037259Y030771D01*
X037267Y030723D01*
X037271Y030675D01*
X037271Y030627D01*
X037267Y030579D01*
X037259Y030531D01*
X037247Y030484D01*
X037232Y030439D01*
X037212Y030395D01*
X037190Y030352D01*
X037164Y030311D01*
X037134Y030273D01*
X037102Y030237D01*
X037067Y030204D01*
X037029Y030174D01*
X036989Y030147D01*
X036947Y030124D01*
X036903Y030104D01*
X036858Y030087D01*
X036812Y030075D01*
X036764Y030066D01*
X036716Y030061D01*
X036668Y030060D01*
X036620Y030063D01*
X036572Y030070D01*
X036525Y030081D01*
X036479Y030095D01*
X036434Y030113D01*
X036391Y030135D01*
X036350Y030160D01*
X036312Y030189D01*
X036275Y030221D01*
X036241Y030255D01*
X036211Y030292D01*
X036183Y030331D01*
X036158Y030373D01*
X036138Y030417D01*
X036120Y030462D01*
X036107Y030508D01*
X036097Y030555D01*
X036091Y030603D01*
X036089Y030651D01*
X028347Y013799D02*
X028349Y013824D01*
X028355Y013849D01*
X028364Y013873D01*
X028377Y013895D01*
X028394Y013915D01*
X028413Y013932D01*
X028434Y013946D01*
X028458Y013956D01*
X028482Y013963D01*
X028508Y013966D01*
X028533Y013965D01*
X028558Y013960D01*
X028582Y013951D01*
X028605Y013939D01*
X028625Y013924D01*
X028643Y013905D01*
X028658Y013884D01*
X028669Y013861D01*
X028677Y013837D01*
X028681Y013812D01*
X028681Y013786D01*
X028677Y013761D01*
X028669Y013737D01*
X028658Y013714D01*
X028643Y013693D01*
X028625Y013674D01*
X028605Y013659D01*
X028582Y013647D01*
X028558Y013638D01*
X028533Y013633D01*
X028508Y013632D01*
X028482Y013635D01*
X028458Y013642D01*
X028434Y013652D01*
X028413Y013666D01*
X028394Y013683D01*
X028377Y013703D01*
X028364Y013725D01*
X028355Y013749D01*
X028349Y013774D01*
X028347Y013799D01*
X028347Y012303D02*
X028349Y012328D01*
X028355Y012353D01*
X028364Y012377D01*
X028377Y012399D01*
X028394Y012419D01*
X028413Y012436D01*
X028434Y012450D01*
X028458Y012460D01*
X028482Y012467D01*
X028508Y012470D01*
X028533Y012469D01*
X028558Y012464D01*
X028582Y012455D01*
X028605Y012443D01*
X028625Y012428D01*
X028643Y012409D01*
X028658Y012388D01*
X028669Y012365D01*
X028677Y012341D01*
X028681Y012316D01*
X028681Y012290D01*
X028677Y012265D01*
X028669Y012241D01*
X028658Y012218D01*
X028643Y012197D01*
X028625Y012178D01*
X028605Y012163D01*
X028582Y012151D01*
X028558Y012142D01*
X028533Y012137D01*
X028508Y012136D01*
X028482Y012139D01*
X028458Y012146D01*
X028434Y012156D01*
X028413Y012170D01*
X028394Y012187D01*
X028377Y012207D01*
X028364Y012229D01*
X028355Y012253D01*
X028349Y012278D01*
X028347Y012303D01*
D11*
X021843Y021401D03*
X021017Y021401D03*
X010493Y006701D03*
X009667Y006701D03*
X009667Y005701D03*
X010493Y005701D03*
X010493Y004701D03*
X009667Y004701D03*
D12*
X036678Y016102D03*
X036934Y016102D03*
X037190Y016102D03*
X037446Y016102D03*
X037702Y016102D03*
X037958Y016102D03*
X038214Y016102D03*
X038470Y016102D03*
X038726Y016102D03*
X038982Y016102D03*
X038982Y018399D03*
X038726Y018399D03*
X038470Y018399D03*
X038214Y018399D03*
X037958Y018399D03*
X037702Y018399D03*
X037446Y018399D03*
X037190Y018399D03*
X036934Y018399D03*
X036678Y018399D03*
D13*
X036794Y023702D03*
X036361Y023702D03*
X037227Y023702D03*
X037660Y023702D03*
X038093Y023702D03*
X038526Y023702D03*
X038960Y023702D03*
X038960Y027442D03*
X038526Y027442D03*
X038093Y027442D03*
X037660Y027442D03*
X037227Y027442D03*
X036794Y027442D03*
X036361Y027442D03*
D14*
X035948Y027442D03*
X039373Y027442D03*
X039373Y023702D03*
X035948Y023702D03*
D15*
X038980Y029301D03*
X038980Y032096D03*
D16*
X038320Y004861D03*
X036580Y004861D03*
X034840Y004861D03*
D17*
X035143Y007751D03*
X035930Y007751D03*
X036718Y007751D03*
X037505Y007751D03*
X038293Y007751D03*
X039080Y007751D03*
X034356Y007751D03*
X033568Y007751D03*
X033568Y014051D03*
X034356Y014051D03*
X035143Y014051D03*
X035930Y014051D03*
X036718Y014051D03*
X037505Y014051D03*
X038293Y014051D03*
X039080Y014051D03*
D18*
X033380Y016051D03*
D19*
X032947Y016051D03*
X032947Y016307D03*
X032947Y015795D03*
X033813Y015795D03*
X033813Y016051D03*
X033813Y016307D03*
D20*
X034930Y016246D03*
X034930Y016955D03*
D21*
X033615Y017851D03*
X032945Y017851D03*
X032980Y015335D03*
X032980Y014666D03*
X039980Y012285D03*
X039980Y011616D03*
X039980Y007885D03*
X039980Y007216D03*
X039615Y022951D03*
X038945Y022951D03*
X038415Y022951D03*
X037745Y022951D03*
X037645Y028351D03*
X038315Y028351D03*
X027615Y027001D03*
X026945Y027001D03*
X018780Y026035D03*
X018780Y025366D03*
X018780Y024785D03*
X018780Y024116D03*
X017615Y024501D03*
X016945Y024501D03*
X015880Y026766D03*
X015880Y027435D03*
X014615Y028801D03*
X013945Y028801D03*
X013945Y025601D03*
X014615Y025601D03*
X005715Y029201D03*
X005045Y029201D03*
X005095Y035651D03*
X005765Y035651D03*
D22*
X005480Y034985D03*
X005480Y034316D03*
X010880Y029635D03*
X010880Y028966D03*
X010880Y028435D03*
X010880Y027766D03*
X005480Y027866D03*
X005480Y028535D03*
X033645Y015151D03*
X034315Y015151D03*
X036180Y016116D03*
X036180Y016785D03*
X036945Y015151D03*
X037615Y015151D03*
X039780Y017516D03*
X039780Y018185D03*
X038980Y028116D03*
X038980Y028785D03*
X037580Y006985D03*
X037580Y006316D03*
D23*
X034004Y017051D03*
X033256Y017051D03*
X034356Y017901D03*
X035104Y017901D03*
D24*
X039980Y010846D03*
X039980Y010255D03*
X039980Y009346D03*
X039980Y008755D03*
D25*
X034980Y016021D03*
X034980Y017281D03*
D26*
X015129Y026099D03*
X015129Y026355D03*
X015129Y026611D03*
X015129Y026867D03*
X015129Y027123D03*
X015129Y027379D03*
X015129Y027634D03*
X015129Y027890D03*
X015129Y028146D03*
X015129Y028402D03*
X012831Y028402D03*
X012831Y028146D03*
X012831Y027890D03*
X012831Y027634D03*
X012831Y027379D03*
X012831Y027123D03*
X012831Y026867D03*
X012831Y026611D03*
X012831Y026355D03*
X012831Y026099D03*
D27*
X010129Y026582D03*
X010129Y027015D03*
X010129Y027448D03*
X010129Y027881D03*
X010129Y028314D03*
X010129Y028747D03*
X010129Y029180D03*
X006389Y029180D03*
X006389Y028747D03*
X006389Y028314D03*
X006389Y027881D03*
X006389Y027448D03*
X006389Y027015D03*
X006389Y026582D03*
X006439Y033032D03*
X006439Y033465D03*
X006439Y033898D03*
X006439Y034331D03*
X006439Y034764D03*
X006439Y035197D03*
X006439Y035630D03*
X010179Y035630D03*
X010179Y035197D03*
X010179Y034764D03*
X010179Y034331D03*
X010179Y033898D03*
X010179Y033465D03*
X010179Y033032D03*
D28*
X010179Y032618D03*
X010129Y029594D03*
X010129Y026168D03*
X006389Y026168D03*
X006389Y029594D03*
X006439Y032618D03*
X006439Y036044D03*
X010179Y036044D03*
D29*
X004580Y035651D03*
X001785Y035651D03*
X001735Y029201D03*
X004530Y029201D03*
D30*
X027520Y035511D03*
X027520Y037251D03*
X027520Y038991D03*
X029070Y028541D03*
X029070Y026801D03*
X029070Y025061D03*
D31*
X026179Y024776D03*
X026179Y025564D03*
X026179Y026351D03*
X026179Y027138D03*
X026179Y027926D03*
X026179Y028713D03*
X026179Y029501D03*
X026179Y023989D03*
X019880Y023989D03*
X019880Y024776D03*
X019880Y025564D03*
X019880Y026351D03*
X019880Y027138D03*
X019880Y027926D03*
X019880Y028713D03*
X019880Y029501D03*
X019080Y036989D03*
X019080Y037776D03*
X019080Y038564D03*
X019080Y039351D03*
X019080Y040138D03*
X019080Y040926D03*
X019080Y041713D03*
X019080Y042501D03*
X025379Y042501D03*
X025379Y041713D03*
X025379Y040926D03*
X025379Y040138D03*
X025379Y039351D03*
X025379Y038564D03*
X025379Y037776D03*
X025379Y036989D03*
D32*
X017880Y025501D03*
D33*
X017880Y025934D03*
X018136Y025934D03*
X017624Y025934D03*
X017624Y025068D03*
X017880Y025068D03*
X018136Y025068D03*
D34*
X017684Y027151D03*
X016976Y027151D03*
D35*
X016980Y025825D03*
X016980Y025077D03*
X016130Y025177D03*
X016130Y025925D03*
D36*
X016650Y027201D03*
X017910Y027201D03*
D37*
X008224Y040294D03*
X007436Y040294D03*
D38*
X006491Y042341D03*
X009169Y042341D03*
M02*
